<mxfile host="app.diagrams.net" modified="2022-01-20T02:09:16.171Z" agent="5.0 (Macintosh; Intel Mac OS X 10_15_7) AppleWebKit/537.36 (KHTML, like Gecko) Chrome/96.0.4664.110 Safari/537.36" etag="L9um9J3imSkqRYjPAwh0" version="16.1.4" type="github">
  <diagram id="KxI_VdZoBnSUoFR5KUrw" name="Page-1">
    <mxGraphModel dx="2650" dy="-3136" grid="1" gridSize="10" guides="1" tooltips="1" connect="1" arrows="1" fold="1" page="1" pageScale="1" pageWidth="827" pageHeight="1169" math="0" shadow="0">
      <root>
        <mxCell id="0" />
        <mxCell id="1" parent="0" />
        <mxCell id="N-fQ2-YuKUNo5y9kkU3b-1" style="edgeStyle=none;rounded=0;orthogonalLoop=1;jettySize=auto;html=1;exitX=1;exitY=0;exitDx=0;exitDy=0;entryX=0;entryY=0.5;entryDx=0;entryDy=0;fontSize=28;" edge="1" parent="1" source="N-fQ2-YuKUNo5y9kkU3b-2" target="N-fQ2-YuKUNo5y9kkU3b-3">
          <mxGeometry relative="1" as="geometry" />
        </mxCell>
        <mxCell id="N-fQ2-YuKUNo5y9kkU3b-2" value="1" style="ellipse;whiteSpace=wrap;html=1;aspect=fixed;fontSize=28;" vertex="1" parent="1">
          <mxGeometry x="105" y="6560" width="80" height="80" as="geometry" />
        </mxCell>
        <mxCell id="N-fQ2-YuKUNo5y9kkU3b-3" value="2" style="ellipse;whiteSpace=wrap;html=1;aspect=fixed;fontSize=28;" vertex="1" parent="1">
          <mxGeometry x="375" y="6500" width="80" height="80" as="geometry" />
        </mxCell>
        <mxCell id="N-fQ2-YuKUNo5y9kkU3b-4" style="edgeStyle=none;rounded=0;orthogonalLoop=1;jettySize=auto;html=1;entryX=0.5;entryY=1;entryDx=0;entryDy=0;fontSize=28;" edge="1" parent="1" source="N-fQ2-YuKUNo5y9kkU3b-5" target="N-fQ2-YuKUNo5y9kkU3b-2">
          <mxGeometry relative="1" as="geometry" />
        </mxCell>
        <mxCell id="N-fQ2-YuKUNo5y9kkU3b-5" value="3" style="ellipse;whiteSpace=wrap;html=1;aspect=fixed;fontSize=28;" vertex="1" parent="1">
          <mxGeometry x="-15" y="6770" width="80" height="80" as="geometry" />
        </mxCell>
        <mxCell id="N-fQ2-YuKUNo5y9kkU3b-6" value="1" style="text;html=1;align=center;verticalAlign=middle;resizable=0;points=[];autosize=1;fontSize=28;" vertex="1" parent="1">
          <mxGeometry x="210" y="6520" width="30" height="40" as="geometry" />
        </mxCell>
        <mxCell id="N-fQ2-YuKUNo5y9kkU3b-7" value="2" style="text;html=1;align=center;verticalAlign=middle;resizable=0;points=[];autosize=1;fontSize=28;" vertex="1" parent="1">
          <mxGeometry x="100" y="6690" width="30" height="40" as="geometry" />
        </mxCell>
        <mxCell id="N-fQ2-YuKUNo5y9kkU3b-8" style="edgeStyle=none;rounded=0;orthogonalLoop=1;jettySize=auto;html=1;fontSize=28;" edge="1" parent="1" source="N-fQ2-YuKUNo5y9kkU3b-14" target="N-fQ2-YuKUNo5y9kkU3b-2">
          <mxGeometry relative="1" as="geometry">
            <Array as="points" />
          </mxGeometry>
        </mxCell>
        <mxCell id="N-fQ2-YuKUNo5y9kkU3b-9" style="edgeStyle=none;rounded=0;orthogonalLoop=1;jettySize=auto;html=1;entryX=1;entryY=0.5;entryDx=0;entryDy=0;fontSize=28;" edge="1" parent="1" source="N-fQ2-YuKUNo5y9kkU3b-14" target="N-fQ2-YuKUNo5y9kkU3b-5">
          <mxGeometry relative="1" as="geometry" />
        </mxCell>
        <mxCell id="N-fQ2-YuKUNo5y9kkU3b-10" value="4" style="edgeStyle=none;rounded=0;orthogonalLoop=1;jettySize=auto;html=1;entryX=0.5;entryY=1;entryDx=0;entryDy=0;fontSize=28;" edge="1" parent="1" source="N-fQ2-YuKUNo5y9kkU3b-14" target="N-fQ2-YuKUNo5y9kkU3b-3">
          <mxGeometry relative="1" as="geometry" />
        </mxCell>
        <mxCell id="N-fQ2-YuKUNo5y9kkU3b-11" value="5" style="edgeStyle=none;rounded=0;orthogonalLoop=1;jettySize=auto;html=1;entryX=1;entryY=0;entryDx=0;entryDy=0;fontSize=28;" edge="1" parent="1" source="N-fQ2-YuKUNo5y9kkU3b-14" target="N-fQ2-YuKUNo5y9kkU3b-20">
          <mxGeometry relative="1" as="geometry" />
        </mxCell>
        <mxCell id="N-fQ2-YuKUNo5y9kkU3b-12" value="8" style="edgeStyle=none;rounded=0;orthogonalLoop=1;jettySize=auto;html=1;entryX=0.688;entryY=0.1;entryDx=0;entryDy=0;entryPerimeter=0;fontSize=28;" edge="1" parent="1" source="N-fQ2-YuKUNo5y9kkU3b-14" target="N-fQ2-YuKUNo5y9kkU3b-22">
          <mxGeometry relative="1" as="geometry" />
        </mxCell>
        <mxCell id="N-fQ2-YuKUNo5y9kkU3b-13" value="9" style="edgeStyle=none;rounded=0;orthogonalLoop=1;jettySize=auto;html=1;entryX=0;entryY=0.5;entryDx=0;entryDy=0;fontSize=28;" edge="1" parent="1" source="N-fQ2-YuKUNo5y9kkU3b-14" target="N-fQ2-YuKUNo5y9kkU3b-24">
          <mxGeometry relative="1" as="geometry" />
        </mxCell>
        <mxCell id="N-fQ2-YuKUNo5y9kkU3b-14" value="4" style="ellipse;whiteSpace=wrap;html=1;aspect=fixed;fontSize=28;" vertex="1" parent="1">
          <mxGeometry x="250" y="6760" width="80" height="80" as="geometry" />
        </mxCell>
        <mxCell id="N-fQ2-YuKUNo5y9kkU3b-15" value="2" style="text;html=1;align=center;verticalAlign=middle;resizable=0;points=[];autosize=1;fontSize=28;" vertex="1" parent="1">
          <mxGeometry x="230" y="6670" width="30" height="40" as="geometry" />
        </mxCell>
        <mxCell id="N-fQ2-YuKUNo5y9kkU3b-16" value="3" style="text;html=1;align=center;verticalAlign=middle;resizable=0;points=[];autosize=1;fontSize=28;" vertex="1" parent="1">
          <mxGeometry x="190" y="6760" width="30" height="40" as="geometry" />
        </mxCell>
        <mxCell id="N-fQ2-YuKUNo5y9kkU3b-17" value="6" style="edgeStyle=none;rounded=0;orthogonalLoop=1;jettySize=auto;html=1;entryX=0.718;entryY=0.037;entryDx=0;entryDy=0;entryPerimeter=0;fontSize=28;" edge="1" parent="1" source="N-fQ2-YuKUNo5y9kkU3b-20" target="N-fQ2-YuKUNo5y9kkU3b-21">
          <mxGeometry relative="1" as="geometry" />
        </mxCell>
        <mxCell id="N-fQ2-YuKUNo5y9kkU3b-18" value="7" style="edgeStyle=none;rounded=0;orthogonalLoop=1;jettySize=auto;html=1;exitX=1;exitY=1;exitDx=0;exitDy=0;entryX=0.5;entryY=0;entryDx=0;entryDy=0;fontSize=28;" edge="1" parent="1" source="N-fQ2-YuKUNo5y9kkU3b-20" target="N-fQ2-YuKUNo5y9kkU3b-22">
          <mxGeometry relative="1" as="geometry" />
        </mxCell>
        <mxCell id="N-fQ2-YuKUNo5y9kkU3b-19" value="9" style="edgeStyle=none;rounded=0;orthogonalLoop=1;jettySize=auto;html=1;fontSize=28;" edge="1" parent="1" source="N-fQ2-YuKUNo5y9kkU3b-20" target="N-fQ2-YuKUNo5y9kkU3b-23">
          <mxGeometry relative="1" as="geometry" />
        </mxCell>
        <mxCell id="N-fQ2-YuKUNo5y9kkU3b-20" value="5" style="ellipse;whiteSpace=wrap;html=1;aspect=fixed;fontSize=28;" vertex="1" parent="1">
          <mxGeometry x="140" y="6950" width="80" height="80" as="geometry" />
        </mxCell>
        <mxCell id="N-fQ2-YuKUNo5y9kkU3b-21" value="6" style="ellipse;whiteSpace=wrap;html=1;aspect=fixed;fontSize=28;" vertex="1" parent="1">
          <mxGeometry x="35" y="7090" width="80" height="80" as="geometry" />
        </mxCell>
        <mxCell id="N-fQ2-YuKUNo5y9kkU3b-22" value="7" style="ellipse;whiteSpace=wrap;html=1;aspect=fixed;fontSize=28;" vertex="1" parent="1">
          <mxGeometry x="250" y="7102" width="80" height="80" as="geometry" />
        </mxCell>
        <mxCell id="N-fQ2-YuKUNo5y9kkU3b-23" value="8" style="ellipse;whiteSpace=wrap;html=1;aspect=fixed;fontSize=28;" vertex="1" parent="1">
          <mxGeometry x="425" y="7040" width="80" height="80" as="geometry" />
        </mxCell>
        <mxCell id="N-fQ2-YuKUNo5y9kkU3b-24" value="10" style="ellipse;whiteSpace=wrap;html=1;aspect=fixed;fontSize=28;" vertex="1" parent="1">
          <mxGeometry x="485" y="6890" width="80" height="80" as="geometry" />
        </mxCell>
        <mxCell id="N-fQ2-YuKUNo5y9kkU3b-25" value="4" style="edgeStyle=none;rounded=0;orthogonalLoop=1;jettySize=auto;html=1;entryX=1.007;entryY=0.738;entryDx=0;entryDy=0;entryPerimeter=0;fontSize=28;" edge="1" parent="1" source="N-fQ2-YuKUNo5y9kkU3b-37" target="N-fQ2-YuKUNo5y9kkU3b-3">
          <mxGeometry relative="1" as="geometry" />
        </mxCell>
        <mxCell id="N-fQ2-YuKUNo5y9kkU3b-26" style="edgeStyle=none;rounded=0;orthogonalLoop=1;jettySize=auto;html=1;entryX=1;entryY=0.5;entryDx=0;entryDy=0;fontSize=28;" edge="1" parent="1" source="N-fQ2-YuKUNo5y9kkU3b-37" target="N-fQ2-YuKUNo5y9kkU3b-14">
          <mxGeometry relative="1" as="geometry" />
        </mxCell>
        <mxCell id="N-fQ2-YuKUNo5y9kkU3b-27" value="10" style="edgeLabel;html=1;align=center;verticalAlign=middle;resizable=0;points=[];fontSize=28;" vertex="1" connectable="0" parent="N-fQ2-YuKUNo5y9kkU3b-26">
          <mxGeometry x="0.0174" relative="1" as="geometry">
            <mxPoint as="offset" />
          </mxGeometry>
        </mxCell>
        <mxCell id="N-fQ2-YuKUNo5y9kkU3b-28" value="4" style="edgeStyle=none;rounded=0;orthogonalLoop=1;jettySize=auto;html=1;entryX=0.5;entryY=1;entryDx=0;entryDy=0;fontSize=28;" edge="1" parent="1" source="N-fQ2-YuKUNo5y9kkU3b-37" target="N-fQ2-YuKUNo5y9kkU3b-38">
          <mxGeometry relative="1" as="geometry">
            <Array as="points" />
          </mxGeometry>
        </mxCell>
        <mxCell id="N-fQ2-YuKUNo5y9kkU3b-29" style="edgeStyle=none;rounded=0;orthogonalLoop=1;jettySize=auto;html=1;entryX=1;entryY=0;entryDx=0;entryDy=0;fontSize=28;" edge="1" parent="1" source="N-fQ2-YuKUNo5y9kkU3b-37" target="N-fQ2-YuKUNo5y9kkU3b-39">
          <mxGeometry relative="1" as="geometry" />
        </mxCell>
        <mxCell id="N-fQ2-YuKUNo5y9kkU3b-30" value="9" style="edgeLabel;html=1;align=center;verticalAlign=middle;resizable=0;points=[];fontSize=28;" vertex="1" connectable="0" parent="N-fQ2-YuKUNo5y9kkU3b-29">
          <mxGeometry x="-0.1301" y="-2" relative="1" as="geometry">
            <mxPoint y="-1" as="offset" />
          </mxGeometry>
        </mxCell>
        <mxCell id="N-fQ2-YuKUNo5y9kkU3b-31" value="11" style="edgeStyle=none;rounded=0;orthogonalLoop=1;jettySize=auto;html=1;entryX=0.377;entryY=0.017;entryDx=0;entryDy=0;entryPerimeter=0;fontSize=28;" edge="1" parent="1" source="N-fQ2-YuKUNo5y9kkU3b-37" target="N-fQ2-YuKUNo5y9kkU3b-43">
          <mxGeometry relative="1" as="geometry" />
        </mxCell>
        <mxCell id="N-fQ2-YuKUNo5y9kkU3b-32" value="&lt;font style=&quot;font-size: 24px&quot;&gt;9&lt;/font&gt;" style="rounded=0;orthogonalLoop=1;jettySize=auto;html=1;entryX=0;entryY=1;entryDx=0;entryDy=0;fontSize=19;" edge="1" parent="1" source="N-fQ2-YuKUNo5y9kkU3b-37" target="N-fQ2-YuKUNo5y9kkU3b-52">
          <mxGeometry relative="1" as="geometry" />
        </mxCell>
        <mxCell id="N-fQ2-YuKUNo5y9kkU3b-33" value="&lt;font style=&quot;font-size: 24px&quot;&gt;14&lt;/font&gt;" style="edgeStyle=none;rounded=0;orthogonalLoop=1;jettySize=auto;html=1;entryX=0;entryY=0.5;entryDx=0;entryDy=0;fontSize=19;" edge="1" parent="1" source="N-fQ2-YuKUNo5y9kkU3b-37" target="N-fQ2-YuKUNo5y9kkU3b-53">
          <mxGeometry relative="1" as="geometry" />
        </mxCell>
        <mxCell id="N-fQ2-YuKUNo5y9kkU3b-34" style="edgeStyle=none;rounded=0;orthogonalLoop=1;jettySize=auto;html=1;exitX=1;exitY=1;exitDx=0;exitDy=0;entryX=0;entryY=0.5;entryDx=0;entryDy=0;fontSize=24;" edge="1" parent="1" source="N-fQ2-YuKUNo5y9kkU3b-37" target="N-fQ2-YuKUNo5y9kkU3b-56">
          <mxGeometry relative="1" as="geometry" />
        </mxCell>
        <mxCell id="N-fQ2-YuKUNo5y9kkU3b-35" value="15" style="edgeLabel;html=1;align=center;verticalAlign=middle;resizable=0;points=[];fontSize=24;" vertex="1" connectable="0" parent="N-fQ2-YuKUNo5y9kkU3b-34">
          <mxGeometry x="-0.0098" y="3" relative="1" as="geometry">
            <mxPoint as="offset" />
          </mxGeometry>
        </mxCell>
        <mxCell id="N-fQ2-YuKUNo5y9kkU3b-36" value="9" style="edgeStyle=none;rounded=0;orthogonalLoop=1;jettySize=auto;html=1;entryX=0;entryY=0.5;entryDx=0;entryDy=0;fontSize=24;" edge="1" parent="1" source="N-fQ2-YuKUNo5y9kkU3b-37" target="N-fQ2-YuKUNo5y9kkU3b-57">
          <mxGeometry relative="1" as="geometry">
            <Array as="points" />
          </mxGeometry>
        </mxCell>
        <mxCell id="N-fQ2-YuKUNo5y9kkU3b-37" value="11" style="ellipse;whiteSpace=wrap;html=1;aspect=fixed;fontSize=28;" vertex="1" parent="1">
          <mxGeometry x="779" y="6660" width="80" height="80" as="geometry" />
        </mxCell>
        <mxCell id="N-fQ2-YuKUNo5y9kkU3b-38" value="12" style="ellipse;whiteSpace=wrap;html=1;aspect=fixed;fontSize=28;" vertex="1" parent="1">
          <mxGeometry x="779" y="6470" width="80" height="80" as="geometry" />
        </mxCell>
        <mxCell id="N-fQ2-YuKUNo5y9kkU3b-39" value="13" style="ellipse;whiteSpace=wrap;html=1;aspect=fixed;fontSize=28;" vertex="1" parent="1">
          <mxGeometry x="675" y="6840" width="80" height="80" as="geometry" />
        </mxCell>
        <mxCell id="N-fQ2-YuKUNo5y9kkU3b-40" value="12" style="edgeStyle=none;rounded=0;orthogonalLoop=1;jettySize=auto;html=1;entryX=1;entryY=1;entryDx=0;entryDy=0;fontSize=28;" edge="1" parent="1" source="N-fQ2-YuKUNo5y9kkU3b-43" target="N-fQ2-YuKUNo5y9kkU3b-24">
          <mxGeometry relative="1" as="geometry" />
        </mxCell>
        <mxCell id="N-fQ2-YuKUNo5y9kkU3b-41" value="9" style="edgeStyle=none;rounded=0;orthogonalLoop=1;jettySize=auto;html=1;fontSize=28;" edge="1" parent="1" source="N-fQ2-YuKUNo5y9kkU3b-43" target="N-fQ2-YuKUNo5y9kkU3b-46">
          <mxGeometry relative="1" as="geometry" />
        </mxCell>
        <mxCell id="N-fQ2-YuKUNo5y9kkU3b-42" value="15" style="edgeStyle=none;rounded=0;orthogonalLoop=1;jettySize=auto;html=1;entryX=0;entryY=1;entryDx=0;entryDy=0;fontSize=24;" edge="1" parent="1" source="N-fQ2-YuKUNo5y9kkU3b-43" target="N-fQ2-YuKUNo5y9kkU3b-56">
          <mxGeometry relative="1" as="geometry" />
        </mxCell>
        <mxCell id="N-fQ2-YuKUNo5y9kkU3b-43" value="14" style="ellipse;whiteSpace=wrap;html=1;aspect=fixed;fontSize=28;" vertex="1" parent="1">
          <mxGeometry x="850" y="6930" width="80" height="80" as="geometry" />
        </mxCell>
        <mxCell id="N-fQ2-YuKUNo5y9kkU3b-44" value="13" style="edgeStyle=none;rounded=0;orthogonalLoop=1;jettySize=auto;html=1;entryX=1;entryY=0.5;entryDx=0;entryDy=0;fontSize=28;" edge="1" parent="1" source="N-fQ2-YuKUNo5y9kkU3b-46" target="N-fQ2-YuKUNo5y9kkU3b-23">
          <mxGeometry relative="1" as="geometry" />
        </mxCell>
        <mxCell id="N-fQ2-YuKUNo5y9kkU3b-45" value="16" style="edgeStyle=none;rounded=0;orthogonalLoop=1;jettySize=auto;html=1;entryX=-0.002;entryY=0.375;entryDx=0;entryDy=0;entryPerimeter=0;fontSize=24;" edge="1" parent="1" source="N-fQ2-YuKUNo5y9kkU3b-46" target="N-fQ2-YuKUNo5y9kkU3b-58">
          <mxGeometry relative="1" as="geometry" />
        </mxCell>
        <mxCell id="N-fQ2-YuKUNo5y9kkU3b-46" value="15" style="ellipse;whiteSpace=wrap;html=1;aspect=fixed;fontSize=28;" vertex="1" parent="1">
          <mxGeometry x="705" y="7040" width="80" height="80" as="geometry" />
        </mxCell>
        <mxCell id="N-fQ2-YuKUNo5y9kkU3b-47" value="9" style="edgeStyle=none;rounded=0;orthogonalLoop=1;jettySize=auto;html=1;entryX=0.689;entryY=1.027;entryDx=0;entryDy=0;entryPerimeter=0;fontSize=28;" edge="1" parent="1" source="N-fQ2-YuKUNo5y9kkU3b-49" target="N-fQ2-YuKUNo5y9kkU3b-46">
          <mxGeometry relative="1" as="geometry" />
        </mxCell>
        <mxCell id="N-fQ2-YuKUNo5y9kkU3b-48" value="17" style="edgeStyle=none;rounded=0;orthogonalLoop=1;jettySize=auto;html=1;entryX=0.5;entryY=1;entryDx=0;entryDy=0;fontSize=24;" edge="1" parent="1" source="N-fQ2-YuKUNo5y9kkU3b-49" target="N-fQ2-YuKUNo5y9kkU3b-43">
          <mxGeometry relative="1" as="geometry" />
        </mxCell>
        <mxCell id="N-fQ2-YuKUNo5y9kkU3b-49" value="16" style="ellipse;whiteSpace=wrap;html=1;aspect=fixed;fontSize=28;" vertex="1" parent="1">
          <mxGeometry x="782" y="7190" width="80" height="80" as="geometry" />
        </mxCell>
        <mxCell id="N-fQ2-YuKUNo5y9kkU3b-50" value="&lt;div style=&quot;text-align: left ; font-size: 19px&quot;&gt;&lt;font style=&quot;font-size: 19px&quot;&gt;任职于：1&lt;span style=&quot;white-space: pre&quot;&gt;	&lt;/span&gt;&lt;/font&gt;&lt;/div&gt;&lt;div style=&quot;text-align: left ; font-size: 19px&quot;&gt;&lt;span&gt;&lt;font style=&quot;font-size: 19px&quot;&gt;作者：2&lt;/font&gt;&lt;/span&gt;&lt;/div&gt;&lt;div style=&quot;text-align: left ; font-size: 19px&quot;&gt;&lt;span&gt;&lt;font style=&quot;font-size: 19px&quot;&gt;引用：3&lt;/font&gt;&lt;/span&gt;&lt;/div&gt;&lt;div style=&quot;text-align: left ; font-size: 19px&quot;&gt;&lt;span&gt;&lt;font style=&quot;font-size: 19px&quot;&gt;来源：4&lt;/font&gt;&lt;/span&gt;&lt;/div&gt;&lt;div style=&quot;text-align: left ; font-size: 19px&quot;&gt;&lt;span&gt;&lt;font style=&quot;font-size: 19px&quot;&gt;分析实验：5&lt;/font&gt;&lt;/span&gt;&lt;/div&gt;&lt;div style=&quot;text-align: left ; font-size: 19px&quot;&gt;&lt;font style=&quot;font-size: 19px&quot;&gt;影响因子：6&lt;/font&gt;&lt;/div&gt;&lt;div style=&quot;text-align: left ; font-size: 19px&quot;&gt;&lt;font style=&quot;font-size: 19px&quot;&gt;实验结论：7&lt;/font&gt;&lt;/div&gt;&lt;div style=&quot;text-align: left ; font-size: 19px&quot;&gt;&lt;font style=&quot;font-size: 19px&quot;&gt;得出：8&lt;/font&gt;&lt;/div&gt;&lt;div style=&quot;text-align: left ; font-size: 19px&quot;&gt;&lt;font style=&quot;font-size: 19px&quot;&gt;相关/有关：9&lt;/font&gt;&lt;/div&gt;&lt;div style=&quot;text-align: left ; font-size: 19px&quot;&gt;&lt;font style=&quot;font-size: 19px&quot;&gt;分析报告：10&lt;/font&gt;&lt;/div&gt;&lt;div style=&quot;text-align: left ; font-size: 19px&quot;&gt;&lt;font style=&quot;font-size: 19px&quot;&gt;模式：11&lt;/font&gt;&lt;/div&gt;&lt;div style=&quot;text-align: left ; font-size: 19px&quot;&gt;&lt;font style=&quot;font-size: 19px&quot;&gt;出现：12&lt;/font&gt;&lt;/div&gt;&lt;div style=&quot;text-align: left ; font-size: 19px&quot;&gt;&lt;font style=&quot;font-size: 19px&quot;&gt;利用：13&lt;/font&gt;&lt;/div&gt;&lt;div style=&quot;text-align: left ; font-size: 19px&quot;&gt;发生位置： 14&lt;/div&gt;&lt;div style=&quot;text-align: left ; font-size: 19px&quot;&gt;预防措施：15&lt;/div&gt;&lt;div style=&quot;text-align: left ; font-size: 19px&quot;&gt;包含：16&lt;/div&gt;&lt;div style=&quot;text-align: left ; font-size: 19px&quot;&gt;潜在失效模式：17&lt;/div&gt;" style="rounded=1;whiteSpace=wrap;html=1;" vertex="1" parent="1">
          <mxGeometry x="-450" y="6280" width="250" height="450" as="geometry" />
        </mxCell>
        <mxCell id="N-fQ2-YuKUNo5y9kkU3b-51" value="&lt;div&gt;&lt;span style=&quot;font-size: 19px&quot;&gt;1 1 2&lt;/span&gt;&lt;/div&gt;&lt;font style=&quot;font-size: 19px&quot;&gt;&lt;div&gt;&lt;span&gt;3 2 1&lt;/span&gt;&lt;/div&gt;&lt;div&gt;&lt;span&gt;4 3 3&lt;/span&gt;&lt;/div&gt;&lt;div&gt;&lt;span&gt;4 2 1&lt;/span&gt;&lt;/div&gt;&lt;div&gt;&lt;span&gt;4 4 2&lt;/span&gt;&lt;/div&gt;&lt;div&gt;&lt;span&gt;4 5 5&lt;/span&gt;&lt;/div&gt;&lt;div&gt;&lt;span&gt;5 6 6&lt;/span&gt;&lt;/div&gt;&lt;div&gt;&lt;span&gt;5 7 7&lt;/span&gt;&lt;/div&gt;&lt;div&gt;&lt;span&gt;4 8 7&lt;/span&gt;&lt;/div&gt;&lt;div&gt;&lt;span&gt;5 9 8&lt;/span&gt;&lt;/div&gt;&lt;div&gt;&lt;span&gt;4 9 10&lt;/span&gt;&lt;/div&gt;&lt;div&gt;&lt;span&gt;11 4 2&lt;/span&gt;&lt;/div&gt;&lt;div&gt;&lt;span&gt;11 10 4&lt;/span&gt;&lt;/div&gt;&lt;div&gt;&lt;span&gt;11 4 12&lt;/span&gt;&lt;/div&gt;&lt;div&gt;&lt;span&gt;11 9 13&lt;/span&gt;&lt;/div&gt;&lt;div&gt;&lt;span&gt;11 11 14&lt;/span&gt;&lt;/div&gt;&lt;div&gt;&lt;span&gt;14 12 10&lt;/span&gt;&lt;/div&gt;&lt;div&gt;&lt;span&gt;14 9 15&lt;/span&gt;&lt;/div&gt;&lt;div&gt;&lt;span&gt;15 13 8&lt;/span&gt;&lt;/div&gt;&lt;div&gt;&lt;span&gt;16 9 15&lt;/span&gt;&lt;/div&gt;&lt;div&gt;&lt;span&gt;11 9 17&lt;/span&gt;&lt;/div&gt;&lt;div&gt;&lt;span&gt;11 14 18&lt;/span&gt;&lt;/div&gt;&lt;div&gt;&lt;span&gt;11 9 19&lt;/span&gt;&lt;/div&gt;&lt;div&gt;&lt;span&gt;11 15 20&lt;/span&gt;&lt;/div&gt;&lt;div&gt;&lt;span&gt;14 15 20&lt;/span&gt;&lt;/div&gt;&lt;div&gt;&lt;span&gt;20 9 21&lt;/span&gt;&lt;/div&gt;&lt;div&gt;&lt;span&gt;15 16 21&lt;/span&gt;&lt;/div&gt;&lt;div&gt;&lt;span&gt;16 17 14&lt;/span&gt;&lt;/div&gt;&lt;div&gt;&lt;span&gt;22 16 14&lt;/span&gt;&lt;/div&gt;&lt;span style=&quot;color: rgba(0 , 0 , 0 , 0) ; font-family: monospace ; font-size: 0px&quot;&gt;&lt;div&gt;&lt;span&gt;1%3CmxGraphModel%3E%3Croot%3E%3CmxCell%20id%3D%220%22%2F%3E%3CmxCell%20id%3D%221%22%20parent%3D%220%22%2F%3E%3CmxCell%20id%3D%222%22%20value%3D%2217%22%20style%3D%22ellipse%3BwhiteSpace%3Dwrap%3Bhtml%3D1%3Baspect%3Dfixed%3BfontSize%3D28%3B%22%20vertex%3D%221%22%20parent%3D%221%22%3E%3CmxGeometry%20x%3D%22999%22%20y%3D%226500%22%20width%3D%2280%22%20height%3D%2280%22%20as%3D%22geometry%22%2F%3E%3C%2FmxCell%3E%3C%2Froot%3E%3C%2FmxGraphModel%3E&lt;/span&gt;&lt;span&gt;%3CmxGraphModel%3E%3Croot%3E%3CmxCell%20id%3D%220%22%2F%3E%3CmxCell%20id%3D%221%22%20parent%3D%220%22%2F%3E%3CmxCell%20id%3D%222%22%20value%3D%2217%22%20style%3D%22ellipse%3BwhiteSpace%3Dwrap%3Bhtml%3D1%3Baspect%3Dfixed%3BfontSize%3D28%3B%22%20vertex%3D%221%22%20parent%3D%221%22%3E%3CmxGeometry%20x%3D%22999%22%20y%3D%226500%22%20width%3D%2280%22%20height%3D%2280%22%20as%3D%22geometry%22%2F%3E%3C%2FmxCell%3E%3C%2Froot%3E%3C%2FmxGraphModel%3E&lt;/span&gt;&lt;/div&gt;&lt;/span&gt;&lt;/font&gt;" style="rounded=1;whiteSpace=wrap;html=1;align=left;" vertex="1" parent="1">
          <mxGeometry x="-440" y="6780" width="220" height="720" as="geometry" />
        </mxCell>
        <mxCell id="N-fQ2-YuKUNo5y9kkU3b-52" value="17" style="ellipse;whiteSpace=wrap;html=1;aspect=fixed;fontSize=28;" vertex="1" parent="1">
          <mxGeometry x="999" y="6500" width="80" height="80" as="geometry" />
        </mxCell>
        <mxCell id="N-fQ2-YuKUNo5y9kkU3b-53" value="18" style="ellipse;whiteSpace=wrap;html=1;aspect=fixed;fontSize=28;" vertex="1" parent="1">
          <mxGeometry x="1079" y="6600" width="80" height="80" as="geometry" />
        </mxCell>
        <mxCell id="N-fQ2-YuKUNo5y9kkU3b-54" value="9" style="edgeStyle=none;rounded=0;orthogonalLoop=1;jettySize=auto;html=1;entryX=0.5;entryY=1;entryDx=0;entryDy=0;fontSize=24;" edge="1" parent="1" source="N-fQ2-YuKUNo5y9kkU3b-56" target="N-fQ2-YuKUNo5y9kkU3b-57">
          <mxGeometry relative="1" as="geometry" />
        </mxCell>
        <mxCell id="N-fQ2-YuKUNo5y9kkU3b-55" value="9" style="edgeStyle=none;rounded=0;orthogonalLoop=1;jettySize=auto;html=1;entryX=0.5;entryY=0;entryDx=0;entryDy=0;fontSize=24;" edge="1" parent="1" source="N-fQ2-YuKUNo5y9kkU3b-56" target="N-fQ2-YuKUNo5y9kkU3b-58">
          <mxGeometry relative="1" as="geometry" />
        </mxCell>
        <mxCell id="N-fQ2-YuKUNo5y9kkU3b-56" value="20" style="ellipse;whiteSpace=wrap;html=1;aspect=fixed;fontSize=28;" vertex="1" parent="1">
          <mxGeometry x="1130" y="6900" width="80" height="80" as="geometry" />
        </mxCell>
        <mxCell id="N-fQ2-YuKUNo5y9kkU3b-57" value="19" style="ellipse;whiteSpace=wrap;html=1;aspect=fixed;fontSize=28;" vertex="1" parent="1">
          <mxGeometry x="1115" y="6720" width="80" height="80" as="geometry" />
        </mxCell>
        <mxCell id="N-fQ2-YuKUNo5y9kkU3b-58" value="21" style="ellipse;whiteSpace=wrap;html=1;aspect=fixed;fontSize=28;" vertex="1" parent="1">
          <mxGeometry x="1060" y="7150" width="80" height="80" as="geometry" />
        </mxCell>
        <mxCell id="N-fQ2-YuKUNo5y9kkU3b-59" value="16" style="edgeStyle=none;rounded=0;orthogonalLoop=1;jettySize=auto;html=1;entryX=1;entryY=1;entryDx=0;entryDy=0;fontSize=24;" edge="1" parent="1" source="N-fQ2-YuKUNo5y9kkU3b-60" target="N-fQ2-YuKUNo5y9kkU3b-43">
          <mxGeometry relative="1" as="geometry" />
        </mxCell>
        <mxCell id="N-fQ2-YuKUNo5y9kkU3b-60" value="22" style="ellipse;whiteSpace=wrap;html=1;aspect=fixed;fontSize=28;" vertex="1" parent="1">
          <mxGeometry x="970" y="7030" width="80" height="80" as="geometry" />
        </mxCell>
        <mxCell id="N-fQ2-YuKUNo5y9kkU3b-61" style="edgeStyle=none;rounded=0;orthogonalLoop=1;jettySize=auto;html=1;exitX=1;exitY=0;exitDx=0;exitDy=0;entryX=0;entryY=0.5;entryDx=0;entryDy=0;fontSize=28;" edge="1" parent="1" source="N-fQ2-YuKUNo5y9kkU3b-62" target="N-fQ2-YuKUNo5y9kkU3b-63">
          <mxGeometry relative="1" as="geometry" />
        </mxCell>
        <mxCell id="N-fQ2-YuKUNo5y9kkU3b-62" value="1" style="ellipse;whiteSpace=wrap;html=1;aspect=fixed;fontSize=28;fillColor=#dae8fc;strokeColor=#6c8ebf;" vertex="1" parent="1">
          <mxGeometry x="-200" y="8240" width="80" height="80" as="geometry" />
        </mxCell>
        <mxCell id="N-fQ2-YuKUNo5y9kkU3b-63" value="2" style="ellipse;whiteSpace=wrap;html=1;aspect=fixed;fontSize=28;fillColor=#dae8fc;strokeColor=#6c8ebf;" vertex="1" parent="1">
          <mxGeometry x="70" y="8180" width="80" height="80" as="geometry" />
        </mxCell>
        <mxCell id="N-fQ2-YuKUNo5y9kkU3b-64" style="edgeStyle=none;rounded=0;orthogonalLoop=1;jettySize=auto;html=1;entryX=0.5;entryY=1;entryDx=0;entryDy=0;fontSize=28;" edge="1" parent="1" source="N-fQ2-YuKUNo5y9kkU3b-65" target="N-fQ2-YuKUNo5y9kkU3b-62">
          <mxGeometry relative="1" as="geometry" />
        </mxCell>
        <mxCell id="N-fQ2-YuKUNo5y9kkU3b-65" value="3" style="ellipse;whiteSpace=wrap;html=1;aspect=fixed;fontSize=28;fillColor=#dae8fc;strokeColor=#6c8ebf;" vertex="1" parent="1">
          <mxGeometry x="-320" y="8450" width="80" height="80" as="geometry" />
        </mxCell>
        <mxCell id="N-fQ2-YuKUNo5y9kkU3b-66" value="1" style="text;html=1;align=center;verticalAlign=middle;resizable=0;points=[];autosize=1;fontSize=28;" vertex="1" parent="1">
          <mxGeometry x="-95" y="8200" width="30" height="40" as="geometry" />
        </mxCell>
        <mxCell id="N-fQ2-YuKUNo5y9kkU3b-67" value="2" style="text;html=1;align=center;verticalAlign=middle;resizable=0;points=[];autosize=1;fontSize=28;" vertex="1" parent="1">
          <mxGeometry x="-205" y="8370" width="30" height="40" as="geometry" />
        </mxCell>
        <mxCell id="N-fQ2-YuKUNo5y9kkU3b-68" style="edgeStyle=none;rounded=0;orthogonalLoop=1;jettySize=auto;html=1;fontSize=28;" edge="1" parent="1" source="N-fQ2-YuKUNo5y9kkU3b-74" target="N-fQ2-YuKUNo5y9kkU3b-62">
          <mxGeometry relative="1" as="geometry">
            <Array as="points" />
          </mxGeometry>
        </mxCell>
        <mxCell id="N-fQ2-YuKUNo5y9kkU3b-69" style="edgeStyle=none;rounded=0;orthogonalLoop=1;jettySize=auto;html=1;entryX=1;entryY=0.5;entryDx=0;entryDy=0;fontSize=28;" edge="1" parent="1" source="N-fQ2-YuKUNo5y9kkU3b-74" target="N-fQ2-YuKUNo5y9kkU3b-65">
          <mxGeometry relative="1" as="geometry" />
        </mxCell>
        <mxCell id="N-fQ2-YuKUNo5y9kkU3b-70" value="4" style="edgeStyle=none;rounded=0;orthogonalLoop=1;jettySize=auto;html=1;entryX=0.5;entryY=1;entryDx=0;entryDy=0;fontSize=28;" edge="1" parent="1" source="N-fQ2-YuKUNo5y9kkU3b-74" target="N-fQ2-YuKUNo5y9kkU3b-63">
          <mxGeometry relative="1" as="geometry" />
        </mxCell>
        <mxCell id="N-fQ2-YuKUNo5y9kkU3b-71" value="5" style="edgeStyle=none;rounded=0;orthogonalLoop=1;jettySize=auto;html=1;entryX=1;entryY=0;entryDx=0;entryDy=0;fontSize=28;" edge="1" parent="1" source="N-fQ2-YuKUNo5y9kkU3b-74" target="N-fQ2-YuKUNo5y9kkU3b-80">
          <mxGeometry relative="1" as="geometry" />
        </mxCell>
        <mxCell id="N-fQ2-YuKUNo5y9kkU3b-72" value="8" style="edgeStyle=none;rounded=0;orthogonalLoop=1;jettySize=auto;html=1;entryX=0.688;entryY=0.1;entryDx=0;entryDy=0;entryPerimeter=0;fontSize=28;" edge="1" parent="1" source="N-fQ2-YuKUNo5y9kkU3b-74" target="N-fQ2-YuKUNo5y9kkU3b-82">
          <mxGeometry relative="1" as="geometry" />
        </mxCell>
        <mxCell id="N-fQ2-YuKUNo5y9kkU3b-73" value="9" style="edgeStyle=none;rounded=0;orthogonalLoop=1;jettySize=auto;html=1;entryX=0;entryY=0.5;entryDx=0;entryDy=0;fontSize=28;" edge="1" parent="1" source="N-fQ2-YuKUNo5y9kkU3b-74" target="N-fQ2-YuKUNo5y9kkU3b-84">
          <mxGeometry relative="1" as="geometry" />
        </mxCell>
        <mxCell id="N-fQ2-YuKUNo5y9kkU3b-74" value="4" style="ellipse;whiteSpace=wrap;html=1;aspect=fixed;fontSize=28;fillColor=#dae8fc;strokeColor=#6c8ebf;" vertex="1" parent="1">
          <mxGeometry x="-55" y="8440" width="80" height="80" as="geometry" />
        </mxCell>
        <mxCell id="N-fQ2-YuKUNo5y9kkU3b-75" value="2" style="text;html=1;align=center;verticalAlign=middle;resizable=0;points=[];autosize=1;fontSize=28;" vertex="1" parent="1">
          <mxGeometry x="-75" y="8350" width="30" height="40" as="geometry" />
        </mxCell>
        <mxCell id="N-fQ2-YuKUNo5y9kkU3b-76" value="3" style="text;html=1;align=center;verticalAlign=middle;resizable=0;points=[];autosize=1;fontSize=28;" vertex="1" parent="1">
          <mxGeometry x="-115" y="8440" width="30" height="40" as="geometry" />
        </mxCell>
        <mxCell id="N-fQ2-YuKUNo5y9kkU3b-77" value="6" style="edgeStyle=none;rounded=0;orthogonalLoop=1;jettySize=auto;html=1;entryX=0.718;entryY=0.037;entryDx=0;entryDy=0;entryPerimeter=0;fontSize=28;" edge="1" parent="1" source="N-fQ2-YuKUNo5y9kkU3b-80" target="N-fQ2-YuKUNo5y9kkU3b-81">
          <mxGeometry relative="1" as="geometry" />
        </mxCell>
        <mxCell id="N-fQ2-YuKUNo5y9kkU3b-78" value="7" style="edgeStyle=none;rounded=0;orthogonalLoop=1;jettySize=auto;html=1;exitX=1;exitY=1;exitDx=0;exitDy=0;entryX=0.5;entryY=0;entryDx=0;entryDy=0;fontSize=28;" edge="1" parent="1" source="N-fQ2-YuKUNo5y9kkU3b-80" target="N-fQ2-YuKUNo5y9kkU3b-82">
          <mxGeometry relative="1" as="geometry" />
        </mxCell>
        <mxCell id="N-fQ2-YuKUNo5y9kkU3b-79" value="9" style="edgeStyle=none;rounded=0;orthogonalLoop=1;jettySize=auto;html=1;fontSize=28;" edge="1" parent="1" source="N-fQ2-YuKUNo5y9kkU3b-80" target="N-fQ2-YuKUNo5y9kkU3b-83">
          <mxGeometry relative="1" as="geometry" />
        </mxCell>
        <mxCell id="N-fQ2-YuKUNo5y9kkU3b-80" value="5" style="ellipse;whiteSpace=wrap;html=1;aspect=fixed;fontSize=28;fillColor=#dae8fc;strokeColor=#6c8ebf;" vertex="1" parent="1">
          <mxGeometry x="-165" y="8630" width="80" height="80" as="geometry" />
        </mxCell>
        <mxCell id="N-fQ2-YuKUNo5y9kkU3b-81" value="6" style="ellipse;whiteSpace=wrap;html=1;aspect=fixed;fontSize=28;fillColor=#dae8fc;strokeColor=#6c8ebf;" vertex="1" parent="1">
          <mxGeometry x="-270" y="8770" width="80" height="80" as="geometry" />
        </mxCell>
        <mxCell id="N-fQ2-YuKUNo5y9kkU3b-82" value="7" style="ellipse;whiteSpace=wrap;html=1;aspect=fixed;fontSize=28;fillColor=#dae8fc;strokeColor=#6c8ebf;" vertex="1" parent="1">
          <mxGeometry x="-55" y="8782" width="80" height="80" as="geometry" />
        </mxCell>
        <mxCell id="N-fQ2-YuKUNo5y9kkU3b-83" value="8" style="ellipse;whiteSpace=wrap;html=1;aspect=fixed;fontSize=28;fillColor=#dae8fc;strokeColor=#6c8ebf;" vertex="1" parent="1">
          <mxGeometry x="120" y="8720" width="80" height="80" as="geometry" />
        </mxCell>
        <mxCell id="N-fQ2-YuKUNo5y9kkU3b-84" value="10" style="ellipse;whiteSpace=wrap;html=1;aspect=fixed;fontSize=28;" vertex="1" parent="1">
          <mxGeometry x="180" y="8570" width="80" height="80" as="geometry" />
        </mxCell>
        <mxCell id="N-fQ2-YuKUNo5y9kkU3b-85" value="4" style="edgeStyle=none;rounded=0;orthogonalLoop=1;jettySize=auto;html=1;entryX=1.007;entryY=0.738;entryDx=0;entryDy=0;entryPerimeter=0;fontSize=28;" edge="1" parent="1" source="N-fQ2-YuKUNo5y9kkU3b-97" target="N-fQ2-YuKUNo5y9kkU3b-63">
          <mxGeometry relative="1" as="geometry" />
        </mxCell>
        <mxCell id="N-fQ2-YuKUNo5y9kkU3b-86" style="edgeStyle=none;rounded=0;orthogonalLoop=1;jettySize=auto;html=1;entryX=1;entryY=0.5;entryDx=0;entryDy=0;fontSize=28;" edge="1" parent="1" source="N-fQ2-YuKUNo5y9kkU3b-97" target="N-fQ2-YuKUNo5y9kkU3b-74">
          <mxGeometry relative="1" as="geometry" />
        </mxCell>
        <mxCell id="N-fQ2-YuKUNo5y9kkU3b-87" value="10" style="edgeLabel;html=1;align=center;verticalAlign=middle;resizable=0;points=[];fontSize=28;" vertex="1" connectable="0" parent="N-fQ2-YuKUNo5y9kkU3b-86">
          <mxGeometry x="0.0174" relative="1" as="geometry">
            <mxPoint as="offset" />
          </mxGeometry>
        </mxCell>
        <mxCell id="N-fQ2-YuKUNo5y9kkU3b-88" value="4" style="edgeStyle=none;rounded=0;orthogonalLoop=1;jettySize=auto;html=1;entryX=0.5;entryY=1;entryDx=0;entryDy=0;fontSize=28;" edge="1" parent="1" source="N-fQ2-YuKUNo5y9kkU3b-97" target="N-fQ2-YuKUNo5y9kkU3b-98">
          <mxGeometry relative="1" as="geometry">
            <Array as="points" />
          </mxGeometry>
        </mxCell>
        <mxCell id="N-fQ2-YuKUNo5y9kkU3b-89" style="edgeStyle=none;rounded=0;orthogonalLoop=1;jettySize=auto;html=1;entryX=1;entryY=0;entryDx=0;entryDy=0;fontSize=28;" edge="1" parent="1" source="N-fQ2-YuKUNo5y9kkU3b-97" target="N-fQ2-YuKUNo5y9kkU3b-99">
          <mxGeometry relative="1" as="geometry" />
        </mxCell>
        <mxCell id="N-fQ2-YuKUNo5y9kkU3b-90" value="9" style="edgeLabel;html=1;align=center;verticalAlign=middle;resizable=0;points=[];fontSize=28;" vertex="1" connectable="0" parent="N-fQ2-YuKUNo5y9kkU3b-89">
          <mxGeometry x="-0.1301" y="-2" relative="1" as="geometry">
            <mxPoint y="-1" as="offset" />
          </mxGeometry>
        </mxCell>
        <mxCell id="N-fQ2-YuKUNo5y9kkU3b-91" value="11" style="edgeStyle=none;rounded=0;orthogonalLoop=1;jettySize=auto;html=1;entryX=0.377;entryY=0.017;entryDx=0;entryDy=0;entryPerimeter=0;fontSize=28;" edge="1" parent="1" source="N-fQ2-YuKUNo5y9kkU3b-97" target="N-fQ2-YuKUNo5y9kkU3b-103">
          <mxGeometry relative="1" as="geometry" />
        </mxCell>
        <mxCell id="N-fQ2-YuKUNo5y9kkU3b-92" value="&lt;font style=&quot;font-size: 24px&quot;&gt;9&lt;/font&gt;" style="rounded=0;orthogonalLoop=1;jettySize=auto;html=1;entryX=0;entryY=1;entryDx=0;entryDy=0;fontSize=19;" edge="1" parent="1" source="N-fQ2-YuKUNo5y9kkU3b-97" target="N-fQ2-YuKUNo5y9kkU3b-110">
          <mxGeometry relative="1" as="geometry" />
        </mxCell>
        <mxCell id="N-fQ2-YuKUNo5y9kkU3b-93" value="&lt;font style=&quot;font-size: 24px&quot;&gt;14&lt;/font&gt;" style="edgeStyle=none;rounded=0;orthogonalLoop=1;jettySize=auto;html=1;entryX=0;entryY=0.5;entryDx=0;entryDy=0;fontSize=19;" edge="1" parent="1" source="N-fQ2-YuKUNo5y9kkU3b-97" target="N-fQ2-YuKUNo5y9kkU3b-111">
          <mxGeometry relative="1" as="geometry" />
        </mxCell>
        <mxCell id="N-fQ2-YuKUNo5y9kkU3b-94" style="edgeStyle=none;rounded=0;orthogonalLoop=1;jettySize=auto;html=1;exitX=1;exitY=1;exitDx=0;exitDy=0;entryX=0;entryY=0.5;entryDx=0;entryDy=0;fontSize=24;" edge="1" parent="1" source="N-fQ2-YuKUNo5y9kkU3b-97" target="N-fQ2-YuKUNo5y9kkU3b-114">
          <mxGeometry relative="1" as="geometry" />
        </mxCell>
        <mxCell id="N-fQ2-YuKUNo5y9kkU3b-95" value="15" style="edgeLabel;html=1;align=center;verticalAlign=middle;resizable=0;points=[];fontSize=24;" vertex="1" connectable="0" parent="N-fQ2-YuKUNo5y9kkU3b-94">
          <mxGeometry x="-0.0098" y="3" relative="1" as="geometry">
            <mxPoint as="offset" />
          </mxGeometry>
        </mxCell>
        <mxCell id="N-fQ2-YuKUNo5y9kkU3b-96" value="9" style="edgeStyle=none;rounded=0;orthogonalLoop=1;jettySize=auto;html=1;entryX=0;entryY=0.5;entryDx=0;entryDy=0;fontSize=24;" edge="1" parent="1" source="N-fQ2-YuKUNo5y9kkU3b-97" target="N-fQ2-YuKUNo5y9kkU3b-115">
          <mxGeometry relative="1" as="geometry">
            <Array as="points" />
          </mxGeometry>
        </mxCell>
        <mxCell id="N-fQ2-YuKUNo5y9kkU3b-97" value="11" style="ellipse;whiteSpace=wrap;html=1;aspect=fixed;fontSize=28;fillColor=#dae8fc;strokeColor=#6c8ebf;" vertex="1" parent="1">
          <mxGeometry x="474" y="8340" width="80" height="80" as="geometry" />
        </mxCell>
        <mxCell id="N-fQ2-YuKUNo5y9kkU3b-98" value="12" style="ellipse;whiteSpace=wrap;html=1;aspect=fixed;fontSize=28;" vertex="1" parent="1">
          <mxGeometry x="474" y="8150" width="80" height="80" as="geometry" />
        </mxCell>
        <mxCell id="N-fQ2-YuKUNo5y9kkU3b-99" value="13" style="ellipse;whiteSpace=wrap;html=1;aspect=fixed;fontSize=28;" vertex="1" parent="1">
          <mxGeometry x="370" y="8520" width="80" height="80" as="geometry" />
        </mxCell>
        <mxCell id="N-fQ2-YuKUNo5y9kkU3b-100" value="12" style="edgeStyle=none;rounded=0;orthogonalLoop=1;jettySize=auto;html=1;entryX=1;entryY=1;entryDx=0;entryDy=0;fontSize=28;" edge="1" parent="1" source="N-fQ2-YuKUNo5y9kkU3b-103" target="N-fQ2-YuKUNo5y9kkU3b-84">
          <mxGeometry relative="1" as="geometry" />
        </mxCell>
        <mxCell id="N-fQ2-YuKUNo5y9kkU3b-101" value="9" style="edgeStyle=none;rounded=0;orthogonalLoop=1;jettySize=auto;html=1;fontSize=28;" edge="1" parent="1" source="N-fQ2-YuKUNo5y9kkU3b-103" target="N-fQ2-YuKUNo5y9kkU3b-106">
          <mxGeometry relative="1" as="geometry" />
        </mxCell>
        <mxCell id="N-fQ2-YuKUNo5y9kkU3b-102" value="15" style="edgeStyle=none;rounded=0;orthogonalLoop=1;jettySize=auto;html=1;entryX=0;entryY=1;entryDx=0;entryDy=0;fontSize=24;" edge="1" parent="1" source="N-fQ2-YuKUNo5y9kkU3b-103" target="N-fQ2-YuKUNo5y9kkU3b-114">
          <mxGeometry relative="1" as="geometry" />
        </mxCell>
        <mxCell id="N-fQ2-YuKUNo5y9kkU3b-103" value="14" style="ellipse;whiteSpace=wrap;html=1;aspect=fixed;fontSize=28;fillColor=#dae8fc;strokeColor=#6c8ebf;" vertex="1" parent="1">
          <mxGeometry x="545" y="8610" width="80" height="80" as="geometry" />
        </mxCell>
        <mxCell id="N-fQ2-YuKUNo5y9kkU3b-104" value="13" style="edgeStyle=none;rounded=0;orthogonalLoop=1;jettySize=auto;html=1;entryX=1;entryY=0.5;entryDx=0;entryDy=0;fontSize=28;" edge="1" parent="1" source="N-fQ2-YuKUNo5y9kkU3b-106" target="N-fQ2-YuKUNo5y9kkU3b-83">
          <mxGeometry relative="1" as="geometry" />
        </mxCell>
        <mxCell id="N-fQ2-YuKUNo5y9kkU3b-105" value="16" style="edgeStyle=none;rounded=0;orthogonalLoop=1;jettySize=auto;html=1;entryX=-0.002;entryY=0.375;entryDx=0;entryDy=0;entryPerimeter=0;fontSize=24;" edge="1" parent="1" source="N-fQ2-YuKUNo5y9kkU3b-106" target="N-fQ2-YuKUNo5y9kkU3b-116">
          <mxGeometry relative="1" as="geometry" />
        </mxCell>
        <mxCell id="N-fQ2-YuKUNo5y9kkU3b-106" value="15" style="ellipse;whiteSpace=wrap;html=1;aspect=fixed;fontSize=28;" vertex="1" parent="1">
          <mxGeometry x="400" y="8720" width="80" height="80" as="geometry" />
        </mxCell>
        <mxCell id="N-fQ2-YuKUNo5y9kkU3b-107" value="9" style="edgeStyle=none;rounded=0;orthogonalLoop=1;jettySize=auto;html=1;entryX=0.689;entryY=1.027;entryDx=0;entryDy=0;entryPerimeter=0;fontSize=28;" edge="1" parent="1" source="N-fQ2-YuKUNo5y9kkU3b-109" target="N-fQ2-YuKUNo5y9kkU3b-106">
          <mxGeometry relative="1" as="geometry" />
        </mxCell>
        <mxCell id="N-fQ2-YuKUNo5y9kkU3b-108" value="17" style="edgeStyle=none;rounded=0;orthogonalLoop=1;jettySize=auto;html=1;entryX=0.5;entryY=1;entryDx=0;entryDy=0;fontSize=24;" edge="1" parent="1" source="N-fQ2-YuKUNo5y9kkU3b-109" target="N-fQ2-YuKUNo5y9kkU3b-103">
          <mxGeometry relative="1" as="geometry" />
        </mxCell>
        <mxCell id="N-fQ2-YuKUNo5y9kkU3b-109" value="16" style="ellipse;whiteSpace=wrap;html=1;aspect=fixed;fontSize=28;fillColor=#dae8fc;strokeColor=#6c8ebf;" vertex="1" parent="1">
          <mxGeometry x="477" y="8870" width="80" height="80" as="geometry" />
        </mxCell>
        <mxCell id="N-fQ2-YuKUNo5y9kkU3b-110" value="17" style="ellipse;whiteSpace=wrap;html=1;aspect=fixed;fontSize=28;" vertex="1" parent="1">
          <mxGeometry x="694" y="8180" width="80" height="80" as="geometry" />
        </mxCell>
        <mxCell id="N-fQ2-YuKUNo5y9kkU3b-111" value="18" style="ellipse;whiteSpace=wrap;html=1;aspect=fixed;fontSize=28;fillColor=#dae8fc;strokeColor=#6c8ebf;" vertex="1" parent="1">
          <mxGeometry x="774" y="8280" width="80" height="80" as="geometry" />
        </mxCell>
        <mxCell id="N-fQ2-YuKUNo5y9kkU3b-112" value="9" style="edgeStyle=none;rounded=0;orthogonalLoop=1;jettySize=auto;html=1;entryX=0.5;entryY=1;entryDx=0;entryDy=0;fontSize=24;" edge="1" parent="1" source="N-fQ2-YuKUNo5y9kkU3b-114" target="N-fQ2-YuKUNo5y9kkU3b-115">
          <mxGeometry relative="1" as="geometry" />
        </mxCell>
        <mxCell id="N-fQ2-YuKUNo5y9kkU3b-113" value="9" style="edgeStyle=none;rounded=0;orthogonalLoop=1;jettySize=auto;html=1;entryX=0.5;entryY=0;entryDx=0;entryDy=0;fontSize=24;" edge="1" parent="1" source="N-fQ2-YuKUNo5y9kkU3b-114" target="N-fQ2-YuKUNo5y9kkU3b-116">
          <mxGeometry relative="1" as="geometry" />
        </mxCell>
        <mxCell id="N-fQ2-YuKUNo5y9kkU3b-114" value="20" style="ellipse;whiteSpace=wrap;html=1;aspect=fixed;fontSize=28;" vertex="1" parent="1">
          <mxGeometry x="825" y="8580" width="80" height="80" as="geometry" />
        </mxCell>
        <mxCell id="N-fQ2-YuKUNo5y9kkU3b-115" value="19" style="ellipse;whiteSpace=wrap;html=1;aspect=fixed;fontSize=28;" vertex="1" parent="1">
          <mxGeometry x="810" y="8400" width="80" height="80" as="geometry" />
        </mxCell>
        <mxCell id="N-fQ2-YuKUNo5y9kkU3b-116" value="21" style="ellipse;whiteSpace=wrap;html=1;aspect=fixed;fontSize=28;" vertex="1" parent="1">
          <mxGeometry x="755" y="8830" width="80" height="80" as="geometry" />
        </mxCell>
        <mxCell id="N-fQ2-YuKUNo5y9kkU3b-117" value="16" style="edgeStyle=none;rounded=0;orthogonalLoop=1;jettySize=auto;html=1;entryX=1;entryY=1;entryDx=0;entryDy=0;fontSize=24;" edge="1" parent="1" source="N-fQ2-YuKUNo5y9kkU3b-118" target="N-fQ2-YuKUNo5y9kkU3b-103">
          <mxGeometry relative="1" as="geometry" />
        </mxCell>
        <mxCell id="N-fQ2-YuKUNo5y9kkU3b-118" value="22" style="ellipse;whiteSpace=wrap;html=1;aspect=fixed;fontSize=28;" vertex="1" parent="1">
          <mxGeometry x="665" y="8710" width="80" height="80" as="geometry" />
        </mxCell>
        <mxCell id="N-fQ2-YuKUNo5y9kkU3b-119" style="edgeStyle=none;rounded=0;orthogonalLoop=1;jettySize=auto;html=1;exitX=1;exitY=0;exitDx=0;exitDy=0;entryX=0;entryY=0.5;entryDx=0;entryDy=0;fontSize=28;" edge="1" parent="1" source="N-fQ2-YuKUNo5y9kkU3b-120" target="N-fQ2-YuKUNo5y9kkU3b-121">
          <mxGeometry relative="1" as="geometry" />
        </mxCell>
        <mxCell id="N-fQ2-YuKUNo5y9kkU3b-120" value="1" style="ellipse;whiteSpace=wrap;html=1;aspect=fixed;fontSize=28;" vertex="1" parent="1">
          <mxGeometry x="-247.5" y="9200" width="80" height="80" as="geometry" />
        </mxCell>
        <mxCell id="N-fQ2-YuKUNo5y9kkU3b-121" value="2" style="ellipse;whiteSpace=wrap;html=1;aspect=fixed;fontSize=28;fillColor=#d5e8d4;strokeColor=#82b366;" vertex="1" parent="1">
          <mxGeometry x="22.5" y="9140" width="80" height="80" as="geometry" />
        </mxCell>
        <mxCell id="N-fQ2-YuKUNo5y9kkU3b-122" style="edgeStyle=none;rounded=0;orthogonalLoop=1;jettySize=auto;html=1;entryX=0.5;entryY=1;entryDx=0;entryDy=0;fontSize=28;" edge="1" parent="1" source="N-fQ2-YuKUNo5y9kkU3b-123" target="N-fQ2-YuKUNo5y9kkU3b-120">
          <mxGeometry relative="1" as="geometry" />
        </mxCell>
        <mxCell id="N-fQ2-YuKUNo5y9kkU3b-123" value="3" style="ellipse;whiteSpace=wrap;html=1;aspect=fixed;fontSize=28;" vertex="1" parent="1">
          <mxGeometry x="-367.5" y="9410" width="80" height="80" as="geometry" />
        </mxCell>
        <mxCell id="N-fQ2-YuKUNo5y9kkU3b-124" value="1" style="text;html=1;align=center;verticalAlign=middle;resizable=0;points=[];autosize=1;fontSize=28;" vertex="1" parent="1">
          <mxGeometry x="-142.5" y="9160" width="30" height="40" as="geometry" />
        </mxCell>
        <mxCell id="N-fQ2-YuKUNo5y9kkU3b-125" value="2" style="text;html=1;align=center;verticalAlign=middle;resizable=0;points=[];autosize=1;fontSize=28;" vertex="1" parent="1">
          <mxGeometry x="-252.5" y="9330" width="30" height="40" as="geometry" />
        </mxCell>
        <mxCell id="N-fQ2-YuKUNo5y9kkU3b-126" style="edgeStyle=none;rounded=0;orthogonalLoop=1;jettySize=auto;html=1;fontSize=28;" edge="1" parent="1" source="N-fQ2-YuKUNo5y9kkU3b-132" target="N-fQ2-YuKUNo5y9kkU3b-120">
          <mxGeometry relative="1" as="geometry">
            <Array as="points" />
          </mxGeometry>
        </mxCell>
        <mxCell id="N-fQ2-YuKUNo5y9kkU3b-127" style="edgeStyle=none;rounded=0;orthogonalLoop=1;jettySize=auto;html=1;entryX=1;entryY=0.5;entryDx=0;entryDy=0;fontSize=28;" edge="1" parent="1" source="N-fQ2-YuKUNo5y9kkU3b-132" target="N-fQ2-YuKUNo5y9kkU3b-123">
          <mxGeometry relative="1" as="geometry" />
        </mxCell>
        <mxCell id="N-fQ2-YuKUNo5y9kkU3b-128" value="4" style="edgeStyle=none;rounded=0;orthogonalLoop=1;jettySize=auto;html=1;entryX=0.5;entryY=1;entryDx=0;entryDy=0;fontSize=28;" edge="1" parent="1" source="N-fQ2-YuKUNo5y9kkU3b-132" target="N-fQ2-YuKUNo5y9kkU3b-121">
          <mxGeometry relative="1" as="geometry" />
        </mxCell>
        <mxCell id="N-fQ2-YuKUNo5y9kkU3b-129" value="5" style="edgeStyle=none;rounded=0;orthogonalLoop=1;jettySize=auto;html=1;entryX=1;entryY=0;entryDx=0;entryDy=0;fontSize=28;" edge="1" parent="1" source="N-fQ2-YuKUNo5y9kkU3b-132" target="N-fQ2-YuKUNo5y9kkU3b-138">
          <mxGeometry relative="1" as="geometry" />
        </mxCell>
        <mxCell id="N-fQ2-YuKUNo5y9kkU3b-130" value="8" style="edgeStyle=none;rounded=0;orthogonalLoop=1;jettySize=auto;html=1;entryX=0.688;entryY=0.1;entryDx=0;entryDy=0;entryPerimeter=0;fontSize=28;" edge="1" parent="1" source="N-fQ2-YuKUNo5y9kkU3b-132" target="N-fQ2-YuKUNo5y9kkU3b-140">
          <mxGeometry relative="1" as="geometry" />
        </mxCell>
        <mxCell id="N-fQ2-YuKUNo5y9kkU3b-131" value="9" style="edgeStyle=none;rounded=0;orthogonalLoop=1;jettySize=auto;html=1;entryX=0;entryY=0.5;entryDx=0;entryDy=0;fontSize=28;" edge="1" parent="1" source="N-fQ2-YuKUNo5y9kkU3b-132" target="N-fQ2-YuKUNo5y9kkU3b-142">
          <mxGeometry relative="1" as="geometry" />
        </mxCell>
        <mxCell id="N-fQ2-YuKUNo5y9kkU3b-132" value="4" style="ellipse;whiteSpace=wrap;html=1;aspect=fixed;fontSize=28;fillColor=#d5e8d4;strokeColor=#82b366;" vertex="1" parent="1">
          <mxGeometry x="-102.5" y="9400" width="80" height="80" as="geometry" />
        </mxCell>
        <mxCell id="N-fQ2-YuKUNo5y9kkU3b-133" value="2" style="text;html=1;align=center;verticalAlign=middle;resizable=0;points=[];autosize=1;fontSize=28;" vertex="1" parent="1">
          <mxGeometry x="-122.5" y="9310" width="30" height="40" as="geometry" />
        </mxCell>
        <mxCell id="N-fQ2-YuKUNo5y9kkU3b-134" value="3" style="text;html=1;align=center;verticalAlign=middle;resizable=0;points=[];autosize=1;fontSize=28;" vertex="1" parent="1">
          <mxGeometry x="-162.5" y="9400" width="30" height="40" as="geometry" />
        </mxCell>
        <mxCell id="N-fQ2-YuKUNo5y9kkU3b-135" value="6" style="edgeStyle=none;rounded=0;orthogonalLoop=1;jettySize=auto;html=1;entryX=0.718;entryY=0.037;entryDx=0;entryDy=0;entryPerimeter=0;fontSize=28;" edge="1" parent="1" source="N-fQ2-YuKUNo5y9kkU3b-138" target="N-fQ2-YuKUNo5y9kkU3b-139">
          <mxGeometry relative="1" as="geometry" />
        </mxCell>
        <mxCell id="N-fQ2-YuKUNo5y9kkU3b-136" value="7" style="edgeStyle=none;rounded=0;orthogonalLoop=1;jettySize=auto;html=1;exitX=1;exitY=1;exitDx=0;exitDy=0;entryX=0.5;entryY=0;entryDx=0;entryDy=0;fontSize=28;" edge="1" parent="1" source="N-fQ2-YuKUNo5y9kkU3b-138" target="N-fQ2-YuKUNo5y9kkU3b-140">
          <mxGeometry relative="1" as="geometry" />
        </mxCell>
        <mxCell id="N-fQ2-YuKUNo5y9kkU3b-137" value="9" style="edgeStyle=none;rounded=0;orthogonalLoop=1;jettySize=auto;html=1;fontSize=28;" edge="1" parent="1" source="N-fQ2-YuKUNo5y9kkU3b-138" target="N-fQ2-YuKUNo5y9kkU3b-141">
          <mxGeometry relative="1" as="geometry" />
        </mxCell>
        <mxCell id="N-fQ2-YuKUNo5y9kkU3b-138" value="5" style="ellipse;whiteSpace=wrap;html=1;aspect=fixed;fontSize=28;" vertex="1" parent="1">
          <mxGeometry x="-212.5" y="9590" width="80" height="80" as="geometry" />
        </mxCell>
        <mxCell id="N-fQ2-YuKUNo5y9kkU3b-139" value="6" style="ellipse;whiteSpace=wrap;html=1;aspect=fixed;fontSize=28;" vertex="1" parent="1">
          <mxGeometry x="-317.5" y="9730" width="80" height="80" as="geometry" />
        </mxCell>
        <mxCell id="N-fQ2-YuKUNo5y9kkU3b-140" value="7" style="ellipse;whiteSpace=wrap;html=1;aspect=fixed;fontSize=28;" vertex="1" parent="1">
          <mxGeometry x="-102.5" y="9742" width="80" height="80" as="geometry" />
        </mxCell>
        <mxCell id="N-fQ2-YuKUNo5y9kkU3b-141" value="8" style="ellipse;whiteSpace=wrap;html=1;aspect=fixed;fontSize=28;" vertex="1" parent="1">
          <mxGeometry x="72.5" y="9680" width="80" height="80" as="geometry" />
        </mxCell>
        <mxCell id="N-fQ2-YuKUNo5y9kkU3b-142" value="10" style="ellipse;whiteSpace=wrap;html=1;aspect=fixed;fontSize=28;fillColor=#d5e8d4;strokeColor=#82b366;" vertex="1" parent="1">
          <mxGeometry x="132.5" y="9530" width="80" height="80" as="geometry" />
        </mxCell>
        <mxCell id="N-fQ2-YuKUNo5y9kkU3b-143" value="4" style="edgeStyle=none;rounded=0;orthogonalLoop=1;jettySize=auto;html=1;entryX=1.007;entryY=0.738;entryDx=0;entryDy=0;entryPerimeter=0;fontSize=28;" edge="1" parent="1" source="N-fQ2-YuKUNo5y9kkU3b-155" target="N-fQ2-YuKUNo5y9kkU3b-121">
          <mxGeometry relative="1" as="geometry" />
        </mxCell>
        <mxCell id="N-fQ2-YuKUNo5y9kkU3b-144" style="edgeStyle=none;rounded=0;orthogonalLoop=1;jettySize=auto;html=1;entryX=1;entryY=0.5;entryDx=0;entryDy=0;fontSize=28;" edge="1" parent="1" source="N-fQ2-YuKUNo5y9kkU3b-155" target="N-fQ2-YuKUNo5y9kkU3b-132">
          <mxGeometry relative="1" as="geometry" />
        </mxCell>
        <mxCell id="N-fQ2-YuKUNo5y9kkU3b-145" value="10" style="edgeLabel;html=1;align=center;verticalAlign=middle;resizable=0;points=[];fontSize=28;" vertex="1" connectable="0" parent="N-fQ2-YuKUNo5y9kkU3b-144">
          <mxGeometry x="0.0174" relative="1" as="geometry">
            <mxPoint as="offset" />
          </mxGeometry>
        </mxCell>
        <mxCell id="N-fQ2-YuKUNo5y9kkU3b-146" value="4" style="edgeStyle=none;rounded=0;orthogonalLoop=1;jettySize=auto;html=1;entryX=0.5;entryY=1;entryDx=0;entryDy=0;fontSize=28;" edge="1" parent="1" source="N-fQ2-YuKUNo5y9kkU3b-155" target="N-fQ2-YuKUNo5y9kkU3b-156">
          <mxGeometry relative="1" as="geometry">
            <Array as="points" />
          </mxGeometry>
        </mxCell>
        <mxCell id="N-fQ2-YuKUNo5y9kkU3b-147" style="edgeStyle=none;rounded=0;orthogonalLoop=1;jettySize=auto;html=1;entryX=1;entryY=0;entryDx=0;entryDy=0;fontSize=28;" edge="1" parent="1" source="N-fQ2-YuKUNo5y9kkU3b-155" target="N-fQ2-YuKUNo5y9kkU3b-157">
          <mxGeometry relative="1" as="geometry" />
        </mxCell>
        <mxCell id="N-fQ2-YuKUNo5y9kkU3b-148" value="9" style="edgeLabel;html=1;align=center;verticalAlign=middle;resizable=0;points=[];fontSize=28;" vertex="1" connectable="0" parent="N-fQ2-YuKUNo5y9kkU3b-147">
          <mxGeometry x="-0.1301" y="-2" relative="1" as="geometry">
            <mxPoint y="-1" as="offset" />
          </mxGeometry>
        </mxCell>
        <mxCell id="N-fQ2-YuKUNo5y9kkU3b-149" value="11" style="edgeStyle=none;rounded=0;orthogonalLoop=1;jettySize=auto;html=1;entryX=0.377;entryY=0.017;entryDx=0;entryDy=0;entryPerimeter=0;fontSize=28;" edge="1" parent="1" source="N-fQ2-YuKUNo5y9kkU3b-155" target="N-fQ2-YuKUNo5y9kkU3b-161">
          <mxGeometry relative="1" as="geometry" />
        </mxCell>
        <mxCell id="N-fQ2-YuKUNo5y9kkU3b-150" value="&lt;font style=&quot;font-size: 24px&quot;&gt;9&lt;/font&gt;" style="rounded=0;orthogonalLoop=1;jettySize=auto;html=1;entryX=0;entryY=1;entryDx=0;entryDy=0;fontSize=19;" edge="1" parent="1" source="N-fQ2-YuKUNo5y9kkU3b-155" target="N-fQ2-YuKUNo5y9kkU3b-168">
          <mxGeometry relative="1" as="geometry" />
        </mxCell>
        <mxCell id="N-fQ2-YuKUNo5y9kkU3b-151" value="&lt;font style=&quot;font-size: 24px&quot;&gt;14&lt;/font&gt;" style="edgeStyle=none;rounded=0;orthogonalLoop=1;jettySize=auto;html=1;entryX=0;entryY=0.5;entryDx=0;entryDy=0;fontSize=19;" edge="1" parent="1" source="N-fQ2-YuKUNo5y9kkU3b-155" target="N-fQ2-YuKUNo5y9kkU3b-169">
          <mxGeometry relative="1" as="geometry" />
        </mxCell>
        <mxCell id="N-fQ2-YuKUNo5y9kkU3b-152" style="edgeStyle=none;rounded=0;orthogonalLoop=1;jettySize=auto;html=1;exitX=1;exitY=1;exitDx=0;exitDy=0;entryX=0;entryY=0.5;entryDx=0;entryDy=0;fontSize=24;" edge="1" parent="1" source="N-fQ2-YuKUNo5y9kkU3b-155" target="N-fQ2-YuKUNo5y9kkU3b-172">
          <mxGeometry relative="1" as="geometry" />
        </mxCell>
        <mxCell id="N-fQ2-YuKUNo5y9kkU3b-153" value="15" style="edgeLabel;html=1;align=center;verticalAlign=middle;resizable=0;points=[];fontSize=24;" vertex="1" connectable="0" parent="N-fQ2-YuKUNo5y9kkU3b-152">
          <mxGeometry x="-0.0098" y="3" relative="1" as="geometry">
            <mxPoint as="offset" />
          </mxGeometry>
        </mxCell>
        <mxCell id="N-fQ2-YuKUNo5y9kkU3b-154" value="9" style="edgeStyle=none;rounded=0;orthogonalLoop=1;jettySize=auto;html=1;entryX=0;entryY=0.5;entryDx=0;entryDy=0;fontSize=24;" edge="1" parent="1" source="N-fQ2-YuKUNo5y9kkU3b-155" target="N-fQ2-YuKUNo5y9kkU3b-173">
          <mxGeometry relative="1" as="geometry">
            <Array as="points" />
          </mxGeometry>
        </mxCell>
        <mxCell id="N-fQ2-YuKUNo5y9kkU3b-155" value="11" style="ellipse;whiteSpace=wrap;html=1;aspect=fixed;fontSize=28;fillColor=#d5e8d4;strokeColor=#82b366;" vertex="1" parent="1">
          <mxGeometry x="426.5" y="9300" width="80" height="80" as="geometry" />
        </mxCell>
        <mxCell id="N-fQ2-YuKUNo5y9kkU3b-156" value="12" style="ellipse;whiteSpace=wrap;html=1;aspect=fixed;fontSize=28;fillColor=#d5e8d4;strokeColor=#82b366;" vertex="1" parent="1">
          <mxGeometry x="426.5" y="9110" width="80" height="80" as="geometry" />
        </mxCell>
        <mxCell id="N-fQ2-YuKUNo5y9kkU3b-157" value="13" style="ellipse;whiteSpace=wrap;html=1;aspect=fixed;fontSize=28;" vertex="1" parent="1">
          <mxGeometry x="322.5" y="9480" width="80" height="80" as="geometry" />
        </mxCell>
        <mxCell id="N-fQ2-YuKUNo5y9kkU3b-158" value="12" style="edgeStyle=none;rounded=0;orthogonalLoop=1;jettySize=auto;html=1;entryX=1;entryY=1;entryDx=0;entryDy=0;fontSize=28;" edge="1" parent="1" source="N-fQ2-YuKUNo5y9kkU3b-161" target="N-fQ2-YuKUNo5y9kkU3b-142">
          <mxGeometry relative="1" as="geometry" />
        </mxCell>
        <mxCell id="N-fQ2-YuKUNo5y9kkU3b-159" value="9" style="edgeStyle=none;rounded=0;orthogonalLoop=1;jettySize=auto;html=1;fontSize=28;" edge="1" parent="1" source="N-fQ2-YuKUNo5y9kkU3b-161" target="N-fQ2-YuKUNo5y9kkU3b-164">
          <mxGeometry relative="1" as="geometry" />
        </mxCell>
        <mxCell id="N-fQ2-YuKUNo5y9kkU3b-160" value="15" style="edgeStyle=none;rounded=0;orthogonalLoop=1;jettySize=auto;html=1;entryX=0;entryY=1;entryDx=0;entryDy=0;fontSize=24;" edge="1" parent="1" source="N-fQ2-YuKUNo5y9kkU3b-161" target="N-fQ2-YuKUNo5y9kkU3b-172">
          <mxGeometry relative="1" as="geometry" />
        </mxCell>
        <mxCell id="N-fQ2-YuKUNo5y9kkU3b-161" value="14" style="ellipse;whiteSpace=wrap;html=1;aspect=fixed;fontSize=28;fillColor=#d5e8d4;strokeColor=#82b366;" vertex="1" parent="1">
          <mxGeometry x="497.5" y="9570" width="80" height="80" as="geometry" />
        </mxCell>
        <mxCell id="N-fQ2-YuKUNo5y9kkU3b-162" value="13" style="edgeStyle=none;rounded=0;orthogonalLoop=1;jettySize=auto;html=1;entryX=1;entryY=0.5;entryDx=0;entryDy=0;fontSize=28;" edge="1" parent="1" source="N-fQ2-YuKUNo5y9kkU3b-164" target="N-fQ2-YuKUNo5y9kkU3b-141">
          <mxGeometry relative="1" as="geometry" />
        </mxCell>
        <mxCell id="N-fQ2-YuKUNo5y9kkU3b-163" value="16" style="edgeStyle=none;rounded=0;orthogonalLoop=1;jettySize=auto;html=1;entryX=-0.002;entryY=0.375;entryDx=0;entryDy=0;entryPerimeter=0;fontSize=24;" edge="1" parent="1" source="N-fQ2-YuKUNo5y9kkU3b-164" target="N-fQ2-YuKUNo5y9kkU3b-174">
          <mxGeometry relative="1" as="geometry" />
        </mxCell>
        <mxCell id="N-fQ2-YuKUNo5y9kkU3b-164" value="15" style="ellipse;whiteSpace=wrap;html=1;aspect=fixed;fontSize=28;fillColor=#d5e8d4;strokeColor=#82b366;" vertex="1" parent="1">
          <mxGeometry x="352.5" y="9680" width="80" height="80" as="geometry" />
        </mxCell>
        <mxCell id="N-fQ2-YuKUNo5y9kkU3b-165" value="9" style="edgeStyle=none;rounded=0;orthogonalLoop=1;jettySize=auto;html=1;entryX=0.689;entryY=1.027;entryDx=0;entryDy=0;entryPerimeter=0;fontSize=28;" edge="1" parent="1" source="N-fQ2-YuKUNo5y9kkU3b-167" target="N-fQ2-YuKUNo5y9kkU3b-164">
          <mxGeometry relative="1" as="geometry" />
        </mxCell>
        <mxCell id="N-fQ2-YuKUNo5y9kkU3b-166" value="17" style="edgeStyle=none;rounded=0;orthogonalLoop=1;jettySize=auto;html=1;entryX=0.5;entryY=1;entryDx=0;entryDy=0;fontSize=24;" edge="1" parent="1" source="N-fQ2-YuKUNo5y9kkU3b-167" target="N-fQ2-YuKUNo5y9kkU3b-161">
          <mxGeometry relative="1" as="geometry" />
        </mxCell>
        <mxCell id="N-fQ2-YuKUNo5y9kkU3b-167" value="16" style="ellipse;whiteSpace=wrap;html=1;aspect=fixed;fontSize=28;fillColor=#d5e8d4;strokeColor=#82b366;" vertex="1" parent="1">
          <mxGeometry x="429.5" y="9830" width="80" height="80" as="geometry" />
        </mxCell>
        <mxCell id="N-fQ2-YuKUNo5y9kkU3b-168" value="17" style="ellipse;whiteSpace=wrap;html=1;aspect=fixed;fontSize=28;" vertex="1" parent="1">
          <mxGeometry x="646.5" y="9140" width="80" height="80" as="geometry" />
        </mxCell>
        <mxCell id="N-fQ2-YuKUNo5y9kkU3b-169" value="18" style="ellipse;whiteSpace=wrap;html=1;aspect=fixed;fontSize=28;" vertex="1" parent="1">
          <mxGeometry x="726.5" y="9240" width="80" height="80" as="geometry" />
        </mxCell>
        <mxCell id="N-fQ2-YuKUNo5y9kkU3b-170" value="9" style="edgeStyle=none;rounded=0;orthogonalLoop=1;jettySize=auto;html=1;entryX=0.5;entryY=1;entryDx=0;entryDy=0;fontSize=24;" edge="1" parent="1" source="N-fQ2-YuKUNo5y9kkU3b-172" target="N-fQ2-YuKUNo5y9kkU3b-173">
          <mxGeometry relative="1" as="geometry" />
        </mxCell>
        <mxCell id="N-fQ2-YuKUNo5y9kkU3b-171" value="9" style="edgeStyle=none;rounded=0;orthogonalLoop=1;jettySize=auto;html=1;entryX=0.5;entryY=0;entryDx=0;entryDy=0;fontSize=24;" edge="1" parent="1" source="N-fQ2-YuKUNo5y9kkU3b-172" target="N-fQ2-YuKUNo5y9kkU3b-174">
          <mxGeometry relative="1" as="geometry" />
        </mxCell>
        <mxCell id="N-fQ2-YuKUNo5y9kkU3b-172" value="20" style="ellipse;whiteSpace=wrap;html=1;aspect=fixed;fontSize=28;fillColor=#d5e8d4;strokeColor=#82b366;" vertex="1" parent="1">
          <mxGeometry x="777.5" y="9540" width="80" height="80" as="geometry" />
        </mxCell>
        <mxCell id="N-fQ2-YuKUNo5y9kkU3b-173" value="19" style="ellipse;whiteSpace=wrap;html=1;aspect=fixed;fontSize=28;fillColor=#d5e8d4;strokeColor=#82b366;" vertex="1" parent="1">
          <mxGeometry x="762.5" y="9360" width="80" height="80" as="geometry" />
        </mxCell>
        <mxCell id="N-fQ2-YuKUNo5y9kkU3b-174" value="21" style="ellipse;whiteSpace=wrap;html=1;aspect=fixed;fontSize=28;fillColor=#d5e8d4;strokeColor=#82b366;" vertex="1" parent="1">
          <mxGeometry x="707.5" y="9790" width="80" height="80" as="geometry" />
        </mxCell>
        <mxCell id="N-fQ2-YuKUNo5y9kkU3b-175" value="16" style="edgeStyle=none;rounded=0;orthogonalLoop=1;jettySize=auto;html=1;entryX=1;entryY=1;entryDx=0;entryDy=0;fontSize=24;" edge="1" parent="1" source="N-fQ2-YuKUNo5y9kkU3b-176" target="N-fQ2-YuKUNo5y9kkU3b-161">
          <mxGeometry relative="1" as="geometry" />
        </mxCell>
        <mxCell id="N-fQ2-YuKUNo5y9kkU3b-176" value="22" style="ellipse;whiteSpace=wrap;html=1;aspect=fixed;fontSize=28;fillColor=#d5e8d4;strokeColor=#82b366;" vertex="1" parent="1">
          <mxGeometry x="617.5" y="9670" width="80" height="80" as="geometry" />
        </mxCell>
        <mxCell id="N-fQ2-YuKUNo5y9kkU3b-177" style="edgeStyle=none;rounded=0;orthogonalLoop=1;jettySize=auto;html=1;exitX=1;exitY=0;exitDx=0;exitDy=0;entryX=0;entryY=0.5;entryDx=0;entryDy=0;fontSize=28;" edge="1" parent="1" source="N-fQ2-YuKUNo5y9kkU3b-178" target="N-fQ2-YuKUNo5y9kkU3b-179">
          <mxGeometry relative="1" as="geometry" />
        </mxCell>
        <mxCell id="N-fQ2-YuKUNo5y9kkU3b-178" value="1" style="ellipse;whiteSpace=wrap;html=1;aspect=fixed;fontSize=28;" vertex="1" parent="1">
          <mxGeometry x="-287.5" y="10150" width="80" height="80" as="geometry" />
        </mxCell>
        <mxCell id="N-fQ2-YuKUNo5y9kkU3b-179" value="2" style="ellipse;whiteSpace=wrap;html=1;aspect=fixed;fontSize=28;" vertex="1" parent="1">
          <mxGeometry x="-17.5" y="10090" width="80" height="80" as="geometry" />
        </mxCell>
        <mxCell id="N-fQ2-YuKUNo5y9kkU3b-180" style="edgeStyle=none;rounded=0;orthogonalLoop=1;jettySize=auto;html=1;entryX=0.5;entryY=1;entryDx=0;entryDy=0;fontSize=28;" edge="1" parent="1" source="N-fQ2-YuKUNo5y9kkU3b-181" target="N-fQ2-YuKUNo5y9kkU3b-178">
          <mxGeometry relative="1" as="geometry" />
        </mxCell>
        <mxCell id="N-fQ2-YuKUNo5y9kkU3b-181" value="3" style="ellipse;whiteSpace=wrap;html=1;aspect=fixed;fontSize=28;" vertex="1" parent="1">
          <mxGeometry x="-407.5" y="10360" width="80" height="80" as="geometry" />
        </mxCell>
        <mxCell id="N-fQ2-YuKUNo5y9kkU3b-182" value="1" style="text;html=1;align=center;verticalAlign=middle;resizable=0;points=[];autosize=1;fontSize=28;" vertex="1" parent="1">
          <mxGeometry x="-182.5" y="10110" width="30" height="40" as="geometry" />
        </mxCell>
        <mxCell id="N-fQ2-YuKUNo5y9kkU3b-183" value="2" style="text;html=1;align=center;verticalAlign=middle;resizable=0;points=[];autosize=1;fontSize=28;" vertex="1" parent="1">
          <mxGeometry x="-292.5" y="10280" width="30" height="40" as="geometry" />
        </mxCell>
        <mxCell id="N-fQ2-YuKUNo5y9kkU3b-184" style="edgeStyle=none;rounded=0;orthogonalLoop=1;jettySize=auto;html=1;fontSize=28;" edge="1" parent="1" source="N-fQ2-YuKUNo5y9kkU3b-190" target="N-fQ2-YuKUNo5y9kkU3b-178">
          <mxGeometry relative="1" as="geometry">
            <Array as="points" />
          </mxGeometry>
        </mxCell>
        <mxCell id="N-fQ2-YuKUNo5y9kkU3b-185" style="edgeStyle=none;rounded=0;orthogonalLoop=1;jettySize=auto;html=1;entryX=1;entryY=0.5;entryDx=0;entryDy=0;fontSize=28;" edge="1" parent="1" source="N-fQ2-YuKUNo5y9kkU3b-190" target="N-fQ2-YuKUNo5y9kkU3b-181">
          <mxGeometry relative="1" as="geometry" />
        </mxCell>
        <mxCell id="N-fQ2-YuKUNo5y9kkU3b-186" value="4" style="edgeStyle=none;rounded=0;orthogonalLoop=1;jettySize=auto;html=1;entryX=0.5;entryY=1;entryDx=0;entryDy=0;fontSize=28;" edge="1" parent="1" source="N-fQ2-YuKUNo5y9kkU3b-190" target="N-fQ2-YuKUNo5y9kkU3b-179">
          <mxGeometry relative="1" as="geometry" />
        </mxCell>
        <mxCell id="N-fQ2-YuKUNo5y9kkU3b-187" value="5" style="edgeStyle=none;rounded=0;orthogonalLoop=1;jettySize=auto;html=1;entryX=1;entryY=0;entryDx=0;entryDy=0;fontSize=28;" edge="1" parent="1" source="N-fQ2-YuKUNo5y9kkU3b-190" target="N-fQ2-YuKUNo5y9kkU3b-196">
          <mxGeometry relative="1" as="geometry" />
        </mxCell>
        <mxCell id="N-fQ2-YuKUNo5y9kkU3b-188" value="8" style="edgeStyle=none;rounded=0;orthogonalLoop=1;jettySize=auto;html=1;entryX=0.688;entryY=0.1;entryDx=0;entryDy=0;entryPerimeter=0;fontSize=28;" edge="1" parent="1" source="N-fQ2-YuKUNo5y9kkU3b-190" target="N-fQ2-YuKUNo5y9kkU3b-198">
          <mxGeometry relative="1" as="geometry" />
        </mxCell>
        <mxCell id="N-fQ2-YuKUNo5y9kkU3b-189" value="9" style="edgeStyle=none;rounded=0;orthogonalLoop=1;jettySize=auto;html=1;entryX=0;entryY=0.5;entryDx=0;entryDy=0;fontSize=28;" edge="1" parent="1" source="N-fQ2-YuKUNo5y9kkU3b-190" target="N-fQ2-YuKUNo5y9kkU3b-200">
          <mxGeometry relative="1" as="geometry" />
        </mxCell>
        <mxCell id="N-fQ2-YuKUNo5y9kkU3b-190" value="4" style="ellipse;whiteSpace=wrap;html=1;aspect=fixed;fontSize=28;" vertex="1" parent="1">
          <mxGeometry x="-142.5" y="10350" width="80" height="80" as="geometry" />
        </mxCell>
        <mxCell id="N-fQ2-YuKUNo5y9kkU3b-191" value="2" style="text;html=1;align=center;verticalAlign=middle;resizable=0;points=[];autosize=1;fontSize=28;" vertex="1" parent="1">
          <mxGeometry x="-162.5" y="10260" width="30" height="40" as="geometry" />
        </mxCell>
        <mxCell id="N-fQ2-YuKUNo5y9kkU3b-192" value="3" style="text;html=1;align=center;verticalAlign=middle;resizable=0;points=[];autosize=1;fontSize=28;" vertex="1" parent="1">
          <mxGeometry x="-202.5" y="10350" width="30" height="40" as="geometry" />
        </mxCell>
        <mxCell id="N-fQ2-YuKUNo5y9kkU3b-193" value="6" style="edgeStyle=none;rounded=0;orthogonalLoop=1;jettySize=auto;html=1;entryX=0.718;entryY=0.037;entryDx=0;entryDy=0;entryPerimeter=0;fontSize=28;" edge="1" parent="1" source="N-fQ2-YuKUNo5y9kkU3b-196" target="N-fQ2-YuKUNo5y9kkU3b-197">
          <mxGeometry relative="1" as="geometry" />
        </mxCell>
        <mxCell id="N-fQ2-YuKUNo5y9kkU3b-194" value="7" style="edgeStyle=none;rounded=0;orthogonalLoop=1;jettySize=auto;html=1;exitX=1;exitY=1;exitDx=0;exitDy=0;entryX=0.5;entryY=0;entryDx=0;entryDy=0;fontSize=28;" edge="1" parent="1" source="N-fQ2-YuKUNo5y9kkU3b-196" target="N-fQ2-YuKUNo5y9kkU3b-198">
          <mxGeometry relative="1" as="geometry" />
        </mxCell>
        <mxCell id="N-fQ2-YuKUNo5y9kkU3b-195" value="9" style="edgeStyle=none;rounded=0;orthogonalLoop=1;jettySize=auto;html=1;fontSize=28;" edge="1" parent="1" source="N-fQ2-YuKUNo5y9kkU3b-196" target="N-fQ2-YuKUNo5y9kkU3b-199">
          <mxGeometry relative="1" as="geometry" />
        </mxCell>
        <mxCell id="N-fQ2-YuKUNo5y9kkU3b-196" value="5" style="ellipse;whiteSpace=wrap;html=1;aspect=fixed;fontSize=28;" vertex="1" parent="1">
          <mxGeometry x="-252.5" y="10540" width="80" height="80" as="geometry" />
        </mxCell>
        <mxCell id="N-fQ2-YuKUNo5y9kkU3b-197" value="6" style="ellipse;whiteSpace=wrap;html=1;aspect=fixed;fontSize=28;" vertex="1" parent="1">
          <mxGeometry x="-357.5" y="10680" width="80" height="80" as="geometry" />
        </mxCell>
        <mxCell id="N-fQ2-YuKUNo5y9kkU3b-198" value="7" style="ellipse;whiteSpace=wrap;html=1;aspect=fixed;fontSize=28;" vertex="1" parent="1">
          <mxGeometry x="-142.5" y="10692" width="80" height="80" as="geometry" />
        </mxCell>
        <mxCell id="N-fQ2-YuKUNo5y9kkU3b-199" value="8" style="ellipse;whiteSpace=wrap;html=1;aspect=fixed;fontSize=28;" vertex="1" parent="1">
          <mxGeometry x="32.5" y="10630" width="80" height="80" as="geometry" />
        </mxCell>
        <mxCell id="N-fQ2-YuKUNo5y9kkU3b-200" value="10" style="ellipse;whiteSpace=wrap;html=1;aspect=fixed;fontSize=28;" vertex="1" parent="1">
          <mxGeometry x="92.5" y="10480" width="80" height="80" as="geometry" />
        </mxCell>
        <mxCell id="N-fQ2-YuKUNo5y9kkU3b-201" value="4" style="edgeStyle=none;rounded=0;orthogonalLoop=1;jettySize=auto;html=1;entryX=1.007;entryY=0.738;entryDx=0;entryDy=0;entryPerimeter=0;fontSize=28;" edge="1" parent="1" source="N-fQ2-YuKUNo5y9kkU3b-213" target="N-fQ2-YuKUNo5y9kkU3b-179">
          <mxGeometry relative="1" as="geometry" />
        </mxCell>
        <mxCell id="N-fQ2-YuKUNo5y9kkU3b-202" style="edgeStyle=none;rounded=0;orthogonalLoop=1;jettySize=auto;html=1;entryX=1;entryY=0.5;entryDx=0;entryDy=0;fontSize=28;" edge="1" parent="1" source="N-fQ2-YuKUNo5y9kkU3b-213" target="N-fQ2-YuKUNo5y9kkU3b-190">
          <mxGeometry relative="1" as="geometry" />
        </mxCell>
        <mxCell id="N-fQ2-YuKUNo5y9kkU3b-203" value="10" style="edgeLabel;html=1;align=center;verticalAlign=middle;resizable=0;points=[];fontSize=28;" vertex="1" connectable="0" parent="N-fQ2-YuKUNo5y9kkU3b-202">
          <mxGeometry x="0.0174" relative="1" as="geometry">
            <mxPoint as="offset" />
          </mxGeometry>
        </mxCell>
        <mxCell id="N-fQ2-YuKUNo5y9kkU3b-204" value="4" style="edgeStyle=none;rounded=0;orthogonalLoop=1;jettySize=auto;html=1;entryX=0.5;entryY=1;entryDx=0;entryDy=0;fontSize=28;" edge="1" parent="1" source="N-fQ2-YuKUNo5y9kkU3b-213" target="N-fQ2-YuKUNo5y9kkU3b-214">
          <mxGeometry relative="1" as="geometry">
            <Array as="points" />
          </mxGeometry>
        </mxCell>
        <mxCell id="N-fQ2-YuKUNo5y9kkU3b-205" style="edgeStyle=none;rounded=0;orthogonalLoop=1;jettySize=auto;html=1;entryX=1;entryY=0;entryDx=0;entryDy=0;fontSize=28;" edge="1" parent="1" source="N-fQ2-YuKUNo5y9kkU3b-213" target="N-fQ2-YuKUNo5y9kkU3b-215">
          <mxGeometry relative="1" as="geometry" />
        </mxCell>
        <mxCell id="N-fQ2-YuKUNo5y9kkU3b-206" value="9" style="edgeLabel;html=1;align=center;verticalAlign=middle;resizable=0;points=[];fontSize=28;" vertex="1" connectable="0" parent="N-fQ2-YuKUNo5y9kkU3b-205">
          <mxGeometry x="-0.1301" y="-2" relative="1" as="geometry">
            <mxPoint y="-1" as="offset" />
          </mxGeometry>
        </mxCell>
        <mxCell id="N-fQ2-YuKUNo5y9kkU3b-207" value="11" style="edgeStyle=none;rounded=0;orthogonalLoop=1;jettySize=auto;html=1;entryX=0.377;entryY=0.017;entryDx=0;entryDy=0;entryPerimeter=0;fontSize=28;" edge="1" parent="1" source="N-fQ2-YuKUNo5y9kkU3b-213" target="N-fQ2-YuKUNo5y9kkU3b-219">
          <mxGeometry relative="1" as="geometry" />
        </mxCell>
        <mxCell id="N-fQ2-YuKUNo5y9kkU3b-208" value="&lt;font style=&quot;font-size: 24px&quot;&gt;9&lt;/font&gt;" style="rounded=0;orthogonalLoop=1;jettySize=auto;html=1;entryX=0;entryY=1;entryDx=0;entryDy=0;fontSize=19;" edge="1" parent="1" source="N-fQ2-YuKUNo5y9kkU3b-213" target="N-fQ2-YuKUNo5y9kkU3b-226">
          <mxGeometry relative="1" as="geometry" />
        </mxCell>
        <mxCell id="N-fQ2-YuKUNo5y9kkU3b-209" value="&lt;font style=&quot;font-size: 24px&quot;&gt;14&lt;/font&gt;" style="edgeStyle=none;rounded=0;orthogonalLoop=1;jettySize=auto;html=1;entryX=0;entryY=0.5;entryDx=0;entryDy=0;fontSize=19;" edge="1" parent="1" source="N-fQ2-YuKUNo5y9kkU3b-213" target="N-fQ2-YuKUNo5y9kkU3b-227">
          <mxGeometry relative="1" as="geometry" />
        </mxCell>
        <mxCell id="N-fQ2-YuKUNo5y9kkU3b-210" style="edgeStyle=none;rounded=0;orthogonalLoop=1;jettySize=auto;html=1;exitX=1;exitY=1;exitDx=0;exitDy=0;entryX=0;entryY=0.5;entryDx=0;entryDy=0;fontSize=24;" edge="1" parent="1" source="N-fQ2-YuKUNo5y9kkU3b-213" target="N-fQ2-YuKUNo5y9kkU3b-230">
          <mxGeometry relative="1" as="geometry" />
        </mxCell>
        <mxCell id="N-fQ2-YuKUNo5y9kkU3b-211" value="15" style="edgeLabel;html=1;align=center;verticalAlign=middle;resizable=0;points=[];fontSize=24;" vertex="1" connectable="0" parent="N-fQ2-YuKUNo5y9kkU3b-210">
          <mxGeometry x="-0.0098" y="3" relative="1" as="geometry">
            <mxPoint as="offset" />
          </mxGeometry>
        </mxCell>
        <mxCell id="N-fQ2-YuKUNo5y9kkU3b-212" value="9" style="edgeStyle=none;rounded=0;orthogonalLoop=1;jettySize=auto;html=1;entryX=0;entryY=0.5;entryDx=0;entryDy=0;fontSize=24;" edge="1" parent="1" source="N-fQ2-YuKUNo5y9kkU3b-213" target="N-fQ2-YuKUNo5y9kkU3b-231">
          <mxGeometry relative="1" as="geometry">
            <Array as="points" />
          </mxGeometry>
        </mxCell>
        <mxCell id="N-fQ2-YuKUNo5y9kkU3b-213" value="11" style="ellipse;whiteSpace=wrap;html=1;aspect=fixed;fontSize=28;fillColor=#f8cecc;strokeColor=#b85450;" vertex="1" parent="1">
          <mxGeometry x="386.5" y="10250" width="80" height="80" as="geometry" />
        </mxCell>
        <mxCell id="N-fQ2-YuKUNo5y9kkU3b-214" value="12" style="ellipse;whiteSpace=wrap;html=1;aspect=fixed;fontSize=28;fillColor=#f8cecc;strokeColor=#b85450;" vertex="1" parent="1">
          <mxGeometry x="386.5" y="10060" width="80" height="80" as="geometry" />
        </mxCell>
        <mxCell id="N-fQ2-YuKUNo5y9kkU3b-215" value="13" style="ellipse;whiteSpace=wrap;html=1;aspect=fixed;fontSize=28;" vertex="1" parent="1">
          <mxGeometry x="282.5" y="10430" width="80" height="80" as="geometry" />
        </mxCell>
        <mxCell id="N-fQ2-YuKUNo5y9kkU3b-216" value="12" style="edgeStyle=none;rounded=0;orthogonalLoop=1;jettySize=auto;html=1;entryX=1;entryY=1;entryDx=0;entryDy=0;fontSize=28;" edge="1" parent="1" source="N-fQ2-YuKUNo5y9kkU3b-219" target="N-fQ2-YuKUNo5y9kkU3b-200">
          <mxGeometry relative="1" as="geometry" />
        </mxCell>
        <mxCell id="N-fQ2-YuKUNo5y9kkU3b-217" value="9" style="edgeStyle=none;rounded=0;orthogonalLoop=1;jettySize=auto;html=1;fontSize=28;" edge="1" parent="1" source="N-fQ2-YuKUNo5y9kkU3b-219" target="N-fQ2-YuKUNo5y9kkU3b-222">
          <mxGeometry relative="1" as="geometry" />
        </mxCell>
        <mxCell id="N-fQ2-YuKUNo5y9kkU3b-218" value="15" style="edgeStyle=none;rounded=0;orthogonalLoop=1;jettySize=auto;html=1;entryX=0;entryY=1;entryDx=0;entryDy=0;fontSize=24;" edge="1" parent="1" source="N-fQ2-YuKUNo5y9kkU3b-219" target="N-fQ2-YuKUNo5y9kkU3b-230">
          <mxGeometry relative="1" as="geometry" />
        </mxCell>
        <mxCell id="N-fQ2-YuKUNo5y9kkU3b-219" value="14" style="ellipse;whiteSpace=wrap;html=1;aspect=fixed;fontSize=28;" vertex="1" parent="1">
          <mxGeometry x="457.5" y="10520" width="80" height="80" as="geometry" />
        </mxCell>
        <mxCell id="N-fQ2-YuKUNo5y9kkU3b-220" value="13" style="edgeStyle=none;rounded=0;orthogonalLoop=1;jettySize=auto;html=1;entryX=1;entryY=0.5;entryDx=0;entryDy=0;fontSize=28;" edge="1" parent="1" source="N-fQ2-YuKUNo5y9kkU3b-222" target="N-fQ2-YuKUNo5y9kkU3b-199">
          <mxGeometry relative="1" as="geometry" />
        </mxCell>
        <mxCell id="N-fQ2-YuKUNo5y9kkU3b-221" value="16" style="edgeStyle=none;rounded=0;orthogonalLoop=1;jettySize=auto;html=1;entryX=-0.002;entryY=0.375;entryDx=0;entryDy=0;entryPerimeter=0;fontSize=24;" edge="1" parent="1" source="N-fQ2-YuKUNo5y9kkU3b-222" target="N-fQ2-YuKUNo5y9kkU3b-232">
          <mxGeometry relative="1" as="geometry" />
        </mxCell>
        <mxCell id="N-fQ2-YuKUNo5y9kkU3b-222" value="15" style="ellipse;whiteSpace=wrap;html=1;aspect=fixed;fontSize=28;" vertex="1" parent="1">
          <mxGeometry x="312.5" y="10630" width="80" height="80" as="geometry" />
        </mxCell>
        <mxCell id="N-fQ2-YuKUNo5y9kkU3b-223" value="9" style="edgeStyle=none;rounded=0;orthogonalLoop=1;jettySize=auto;html=1;entryX=0.689;entryY=1.027;entryDx=0;entryDy=0;entryPerimeter=0;fontSize=28;" edge="1" parent="1" source="N-fQ2-YuKUNo5y9kkU3b-225" target="N-fQ2-YuKUNo5y9kkU3b-222">
          <mxGeometry relative="1" as="geometry" />
        </mxCell>
        <mxCell id="N-fQ2-YuKUNo5y9kkU3b-224" value="17" style="edgeStyle=none;rounded=0;orthogonalLoop=1;jettySize=auto;html=1;entryX=0.5;entryY=1;entryDx=0;entryDy=0;fontSize=24;" edge="1" parent="1" source="N-fQ2-YuKUNo5y9kkU3b-225" target="N-fQ2-YuKUNo5y9kkU3b-219">
          <mxGeometry relative="1" as="geometry" />
        </mxCell>
        <mxCell id="N-fQ2-YuKUNo5y9kkU3b-225" value="16" style="ellipse;whiteSpace=wrap;html=1;aspect=fixed;fontSize=28;" vertex="1" parent="1">
          <mxGeometry x="389.5" y="10780" width="80" height="80" as="geometry" />
        </mxCell>
        <mxCell id="N-fQ2-YuKUNo5y9kkU3b-226" value="17" style="ellipse;whiteSpace=wrap;html=1;aspect=fixed;fontSize=28;fillColor=#f8cecc;strokeColor=#b85450;" vertex="1" parent="1">
          <mxGeometry x="606.5" y="10090" width="80" height="80" as="geometry" />
        </mxCell>
        <mxCell id="N-fQ2-YuKUNo5y9kkU3b-227" value="18" style="ellipse;whiteSpace=wrap;html=1;aspect=fixed;fontSize=28;" vertex="1" parent="1">
          <mxGeometry x="686.5" y="10190" width="80" height="80" as="geometry" />
        </mxCell>
        <mxCell id="N-fQ2-YuKUNo5y9kkU3b-228" value="9" style="edgeStyle=none;rounded=0;orthogonalLoop=1;jettySize=auto;html=1;entryX=0.5;entryY=1;entryDx=0;entryDy=0;fontSize=24;" edge="1" parent="1" source="N-fQ2-YuKUNo5y9kkU3b-230" target="N-fQ2-YuKUNo5y9kkU3b-231">
          <mxGeometry relative="1" as="geometry" />
        </mxCell>
        <mxCell id="N-fQ2-YuKUNo5y9kkU3b-229" value="9" style="edgeStyle=none;rounded=0;orthogonalLoop=1;jettySize=auto;html=1;entryX=0.5;entryY=0;entryDx=0;entryDy=0;fontSize=24;" edge="1" parent="1" source="N-fQ2-YuKUNo5y9kkU3b-230" target="N-fQ2-YuKUNo5y9kkU3b-232">
          <mxGeometry relative="1" as="geometry" />
        </mxCell>
        <mxCell id="N-fQ2-YuKUNo5y9kkU3b-230" value="20" style="ellipse;whiteSpace=wrap;html=1;aspect=fixed;fontSize=28;fillColor=#f8cecc;strokeColor=#b85450;" vertex="1" parent="1">
          <mxGeometry x="737.5" y="10490" width="80" height="80" as="geometry" />
        </mxCell>
        <mxCell id="N-fQ2-YuKUNo5y9kkU3b-231" value="19" style="ellipse;whiteSpace=wrap;html=1;aspect=fixed;fontSize=28;fillColor=#f8cecc;strokeColor=#b85450;" vertex="1" parent="1">
          <mxGeometry x="722.5" y="10310" width="80" height="80" as="geometry" />
        </mxCell>
        <mxCell id="N-fQ2-YuKUNo5y9kkU3b-232" value="21" style="ellipse;whiteSpace=wrap;html=1;aspect=fixed;fontSize=28;fillColor=#f8cecc;strokeColor=#b85450;" vertex="1" parent="1">
          <mxGeometry x="667.5" y="10740" width="80" height="80" as="geometry" />
        </mxCell>
        <mxCell id="N-fQ2-YuKUNo5y9kkU3b-233" value="16" style="edgeStyle=none;rounded=0;orthogonalLoop=1;jettySize=auto;html=1;entryX=1;entryY=1;entryDx=0;entryDy=0;fontSize=24;" edge="1" parent="1" source="N-fQ2-YuKUNo5y9kkU3b-234" target="N-fQ2-YuKUNo5y9kkU3b-219">
          <mxGeometry relative="1" as="geometry" />
        </mxCell>
        <mxCell id="N-fQ2-YuKUNo5y9kkU3b-234" value="22" style="ellipse;whiteSpace=wrap;html=1;aspect=fixed;fontSize=28;" vertex="1" parent="1">
          <mxGeometry x="577.5" y="10620" width="80" height="80" as="geometry" />
        </mxCell>
        <mxCell id="N-fQ2-YuKUNo5y9kkU3b-235" value="" style="shape=image;verticalLabelPosition=bottom;labelBackgroundColor=default;verticalAlign=top;aspect=fixed;imageAspect=0;image=data:image/jpeg,/9j/4AAQSkZJRgABAQAASABIAAD/4QCMRXhpZgAATU0AKgAAAAgABQESAAMAAAABAAEAAAEaAAUAAAABAAAASgEbAAUAAAABAAAAUgEoAAMAAAABAAIAAIdpAAQAAAABAAAAWgAAAAAAAABIAAAAAQAAAEgAAAABAAOgAQADAAAAAQABAACgAgAEAAAAAQAAAw6gAwAEAAAAAQAAAeIAAAAA/+0AOFBob3Rvc2hvcCAzLjAAOEJJTQQEAAAAAAAAOEJJTQQlAAAAAAAQ1B2M2Y8AsgTpgAmY7PhCfv/AABEIAeIDDgMBIgACEQEDEQH/xAAfAAABBQEBAQEBAQAAAAAAAAAAAQIDBAUGBwgJCgv/xAC1EAACAQMDAgQDBQUEBAAAAX0BAgMABBEFEiExQQYTUWEHInEUMoGRoQgjQrHBFVLR8CQzYnKCCQoWFxgZGiUmJygpKjQ1Njc4OTpDREVGR0hJSlNUVVZXWFlaY2RlZmdoaWpzdHV2d3h5eoOEhYaHiImKkpOUlZaXmJmaoqOkpaanqKmqsrO0tba3uLm6wsPExcbHyMnK0tPU1dbX2Nna4eLj5OXm5+jp6vHy8/T19vf4+fr/xAAfAQADAQEBAQEBAQEBAAAAAAAAAQIDBAUGBwgJCgv/xAC1EQACAQIEBAMEBwUEBAABAncAAQIDEQQFITEGEkFRB2FxEyIygQgUQpGhscEJIzNS8BVictEKFiQ04SXxFxgZGiYnKCkqNTY3ODk6Q0RFRkdISUpTVFVWV1hZWmNkZWZnaGlqc3R1dnd4eXqCg4SFhoeIiYqSk5SVlpeYmZqio6Slpqeoqaqys7S1tre4ubrCw8TFxsfIycrS09TV1tfY2dri4+Tl5ufo6ery8/T19vf4+fr/2wBDAAYEBQYFBAYGBQYHBwYIChAKCgkJChQODwwQFxQYGBcUFhYaHSUfGhsjHBYWICwgIyYnKSopGR8tMC0oMCUoKSj/2wBDAQcHBwoIChMKChMoGhYaKCgoKCgoKCgoKCgoKCgoKCgoKCgoKCgoKCgoKCgoKCgoKCgoKCgoKCgoKCgoKCgoKCj/3QAEADH/2gAMAwEAAhEDEQA/APqmiiigAooooAKKKKACiiigAooooAKKKKACiiigAooooAKKKKACiiigAooooAKKKKACiiigAoqG5uoLZGa4mjjVRklmxgetc/feOfD9nE7vqETbVzhTnPBIH44qJ1YQ+J2N6WGrVv4cG/RHTUV5vc/FawEayWenXtxGwI3qnAb+7VNvHnie9TOmeGpxkgr5g6rx/iK5nj6HR39E2ejHIsa9ZRUV5tL9T1SkJA6kD615Ray/Eq7SUmKC3ZWIAkAG7Jxx7DrUx8H+M9ShSPUvEEcSbi5EYO4HPrSWMlL4KcvyKeUU6b/e4iC9G3+SPR7nUrK1V2uLqGNU5Ys44rK1nxjoejiM3l9GPMBKhPm4xntXMR/Cy1nmkk1PUrqfzFG5EbaCwH3j+PNbelfD/QNPhMYtTOCMMZzuzT58TLaKXq7k+xyylZyqSn5JW/F/5GHP8WNOMrixsLy6hU48xE6nvj8xVGbxt4p1dAuh6BMiS4VZHBXyz3zmvSrLTLGxQJaWkEKjoEQD0/wH5VcHHSl7CvL46n3Ir69gaTvSw9/8Um/wVjylrD4i6lbzLNcW9ruPHz849sdOn61NL4E8UzBC3ih1ZlCy4zg46Yr1Cij6jB/FJv5sP7crR/hwhFeUV+tzzBfhZLKyfbPEN9Iqtuwpwe+fz4q1F8KNIUpvvL6QAgkNJkNxg/nXotFNYDDr7JEs9x7/AOXlvRJfkjg4/hV4ZU5a3mb5i2DIcc1PH8MvDCgBrN5Mf35Ca7WirWDoL7C+4xeb4571pfezmv8AhBfDRkd20i3Zm5OQf89quW3hfQ7by/I0u1QxklcJ0J//AFVs0VoqFNbRX3GEsbiZK0qkn82Z/wDYml/N/wAS+1+br+6HNI2iaW3XT7XGc48odf8AJrRoqvZx7GXt6v8AM/vM/wDsTS/NMn9n2vmEY3eUKcdI04vvNjbb8Y3eWM9MdavUU+SPYPb1P5n95nPoelu+59OtGb1MS1XbwvobKFOl2u0HIHljrWzRSdOD3SGsTWjtN/ezJj8OaNG7tHptsrP94hMZqjL4H8NyKwOkWw3HJIGDXSVxnxRuL2z8Mrc2OqnSY4bmN7u7UAskGSG2gg5Y5GBjk0nRpveK+4uOMxEXeNRr5sbcfDLwxNMkn2Ix7TnajkA855/lWO3wuks5fO0PXry1lT/Vq3Kr7fkT+deR2nivUv7Q1XV73WPEivA4tIQslvHOYicqGhYZLE8jC/jXtHh5vEWkeE9fv9YvLi5ZYWurA3gTzUUQ7tsgUAZDZ4rGWCoS15bemn5HXTzrHQ09o2uz1X43Mz+wfHum2+y01OO8bzd/zMBlSOQc1PYeLPFOk3M0XiTRJZk/5ZyWy5Gfr3rnYLvVtYk0TW5viF4btbuGEyLCI1AHmINyOvmc4/Qiuw+G2v3+tal4isdU1HT9VTT5YUiurNAI3DoWPQnoeOtQsG4a05tfivxNXm6qprEUYSv1S5X96/yL+gfELQtVRVkuVtLnO0wzHaQa69WDqGUgg9CK5PxB4A0LWPNkNqlvdSD/AF0QwQfX865Br7xP4AMC6kzahowl2+ci7mVOevoaXt6tD+Orruv1Rf1HC47/AHKXLP8All1/wvr6PU9corM8O6za69pcd9ZEmJ+zDBFaddsZKS5o7HjVKcqUnCas0FFFFMgKKKKACiiigAooooAKKKKACiiigAooooAKKKKACiiigAooooAKKKKACiiigAooooAKKKKACiiigAooooAKKKKACiiigAooooA//9D6pooooAKKKKACiiigAooooAKKKKACiiigAooooAKKKKACiiigAopCwX7xA+tZOp+JNI0xHa8v4IwjBWG7JBNTKcYq8nY0p0p1Xywi2/I16K881L4p6THI8OlxTX8oBC+Wp2lugGfc4rHh1rx54iux9gsxptnINyySL90An16niuWWOpX5Ye8/LU9SnkeKceetanHvJ2/Df8D1mSRIkZ5HVVUZJJxisHVvGGh6WxW6v4g4XftU54rjovAniTVPMfXvEUiCbG+GAcYyeP1re0v4caDZLB58T3rwnKtOc88f4Uva4ip8ELev+SK+q5fQ/jVnN9or9WZc/wASV1KGOPwxYzXV4zfMroQqj3PqaoJa/EHX5HkuJk0qIDaqDAz1ySPwH516dZ2NpZKVtLaGEE5PloFzVij6rOp/Fm/RaL/MSzOhQusLRS85e8/8vwPMV+Gd5qGX8Qa/cXEnI/dDGQeSD7Vv6d8OvDVi5dLBZGIwfMO4flXX0VcMHRi78t356/mY1c5xtVcrqNLstF+Fipa6dZWkSx21rBEijACoBirdFFdKSWx50pSk7ydwooopkhRRRQAUUUUAFFFFABRRRQBwPjHxlq2ma/BpOi6Dc39wpS4mIePD22cOUBcHIOBkjGawL74sX728l1pOgJ9kh099Qla9uljPlq5T5du4HJHHNVPiBpV5qfxCmi00a9dXsVjuP2W9ggSGGXKMg3oSQSmetcdY6faajp1zbf2hcWcK6CfIGoSxny2hujtiJUKCuY/rzQB67r3i/ULXStLk06wWbWJoY76fTMM0ht8gSCMjguCw4PoeKs6nrfiy3muGsfDVtPZplo5ZL8Rsy4zkrt4PtWFoWpnWvH3hTU3i8lrvw9JKY/7pLoSPpXo+o/8AHhdf9cm/kaAM3wbrR8ReGNO1YwfZzdxCTyt27bz0z3rbrjvg/wD8kz8Pf9ew/ma7GgAooooAKKKKACuX8f6Zc6j4fuDa6pdacLeOSZ/s6oTLhSQpLA4GQDxXUUx1V0KuAysMEEZBFAHyjp1pp2oaRFf6h4g8PPqtxGs7XN0t493E+MgeYH4I6ccV6Fb3N1ZfBCTULjVdR1C+1y1S1t4J5PMCzSEoAhI3YOcnJPSvZYbK0igWGO2gSJV2qqxgKB6AelNSys44IYEt4FihIMUYQBUI6FR2x7UAYml+DNBtdMs7ebRNMklihSNna1QliFAJJxWxp+k6fpgddNsbW0WQguIIljDEdM4HNX8iigAqK7t47u1lt51DRSqUYHuCMVLRQ1fQabTujyv4QzDTda1vw+RJ/o0rFC2egY/l/wDWr1SvL4XeD44zRf6uN7XcMD/WZCnn8c/lXqFcWB0puH8raPYzz368a/8APGMvm0FFFFdp4wUUUUARyZ8ttrbTg4bGce9fOms+KJ9a1mKxuvG90+kRBbuO+t9HIK3CPwnA5GOfQ9K9/wBe1GDSdFvtQu3CQW0Lyux7ADNYPwpspbD4eaFBcoUmNuJXVuqlyWx/49QBxvwo8X6hrmpRx6z4glnuJDKqWDaZ5WVUna5kxgHAzj3pnjS4lT4hakmq3niy20sWsBtf7ISVkL/NvztUj+7XsdfMvha80syeFJLe71M6/Lq5S63yTeU0e6Tjn5DwF6UAelfC6e4k8Ua2sFz4huNHFtAYW1hZA3m5fft3gdtteoV81eB7rSTceA5LG81N9bmvgt75skxjZdr5A3fKe3SvpWgAooooAydaVpZtOgEs0SS3BVzFIUJAikOMjnqB+VO/sWH/AJ+dR/8AA2X/AOKp2q/8f+kf9fLf+iZK0qAMv+xYf+fnUf8AwNl/+Ko/sWH/AJ+dR/8AA2X/AOKrUryv4weLtY8NX9kukzrHB9meWYFVJJ3qq4LA/wC1QB6B/YsP/PzqP/gbL/8AFUf2LD/z86j/AOBsv/xVeRaR4+8VXfhqxvbaBNQurnUWiCkrGqosSsImbaBlyxwfbGetdh8NvE+pa/eanBqVxpkzW7gA2kjEj5I84BQfLktznOSR0ANAHW/2LD/z86j/AOBsv/xVH9iw/wDPzqP/AIGy/wDxValFAHPW+lo+qXkJu9R8uNIyo+2ScE7s9/YVd/sWH/n51H/wNl/+Kp9r/wAhvUP+ucP/ALPU+ozNbWF1Ogy0cTOB6kAmgCr/AGLD/wA/Oo/+Bsv/AMVR/YsP/PzqP/gbL/8AFV4r4c+IvjG6n09JBYz/AGm+NuHwskZ3yKqpmPBUhfMcE/eVM980vib4m67aaxeww3MS20NzLGrWo3KRuhVPneIg4LPnHfIzwMgHtP8AYsP/AD86j/4Gy/8AxVH9iw/8/Oo/+Bsv/wAVXk2v/EDxJZS2ENm+mtIsFn9oNzcJbmSVwrNhXAIBBOecAY5B4q1qni3xRJoegXWnzRp5lu5v51aMoGWZIydxQqD8xPHGMnkLkgHp/wDYsP8Az86j/wCBsv8A8VSHRYcH/StR/wDA2X/4qsbwFq+p6rLrP9plSLa4WGPYuFBCAsA38XJ611x6GgDn9J0tLjSrOaS71BpJIUdj9rkGSQCe9XP7Fh/5+dR/8DZf/iql8P8A/IC07/r3j/8AQRV+gDL/ALFh/wCfnUf/AANl/wDiqP7Fh/5+dR/8DZf/AIqrl5M0FnPKi7njjZgvqQM4rxfwZ8RPE+q+J9OtL+K1+zyOomiRAGUTAsM4Yn93tK9Oc/Ng0Aeuf2LD/wA/Oo/+Bsv/AMVR/YsP/PzqP/gbL/8AFV5f/wAJx4leG6vla0to45J7hLG6tyZTGkxthBlT97fsYnrlwM4r2CHf5Sebt37Ru29M98e1AGf/AGLD/wA/Oo/+Bsv/AMVVTUNOW1tTPDc33mI6Y3XUjA/OByCcGt+s/Xf+QZJ/vx/+hrQBoUUUUAf/0fqmiiigAooooAKKKKACiiigAooooAK4jx7rviDR9Qs10XTzd2skbGQqm4hug/mK7eis6sHOPLF28zowteFCopzgprszyu18a+MfLHneGHkwRvYArjnoBT/+E38VnY6eGpGV2K7BnII5P6Yr1Giub6tV/wCfr/A9F5lhm7/VY/fL/M8r/wCE68U/vfM8OXCF8GHCZwvfP4VK3jnxM1iZY/DNwJFkVTkHBz6V6fRR9Wq/8/X9yB5lhX/zDR++X+Z5Q/jDxrcMYbbw88TsSQ7r90YPGKmab4j3wMP2W1te4k3gdD/LHFdr4k15NDGmGSB5vt17FZKFYDaXz83uBitp2CKWY4VRk0fVJP4qkvwQ3m1KP8PDwXqm/wA2eVp4G8WajJ52qa/5JdyzxRkkenGPatrSPhjo9lNNNeST38knXzzxjv8Ay61CfilpDaFrurwRSS2mmCEqdwUz+aBtwD93k45rptN8T6JqUsMNnq1hNcyjKwx3Cs3TJGAeaqOBoxd2rvz1M6ueYya5Yy5V2ikvy1LWmaFpelxeXYWFvAn+yg/nWlRRXVGKirRVjzJ1J1HzTd35hRRRTICiiigAooooAKKKKACiiigAooooAKKKKACiiigAooooA4/XPAmma34hfVr2e/SZrdbfZb3LwjCsTnKEE9e9UtF+GWhafLD56HUbeG3NusN6iyrzK0m45HJBYjNd6a5zWPFmm6ZI0TSNNMvBSIZwfc9KqMXJ2ihpXJm8PW58UWesrIyPa2j2aQKAE2swOfwxirPiDTZdV0qazhv7mwaTA8+227wO4G4Ecjiudh8f2bSATWtxGv8AeBDY/Cup07ULbUbcTWcyyJ3weQfQjtTnTnD4kDTRD4d0i30HQ7LSrIyG2tIhEhkOWIHcn1rTooqBBRRRQAUUUUAJUM8qQRPJKwVEBJJOAAO9TVw3xb1F7Pw4IIiVa6kCE/7OMn+lKUuVXNsNQderGkurOT8WfES8up3t9Gf7PbKSPNx88nuPQfrXFyapqEknmSX100nXcZWz/OqdFcEpyk7s/QsPgKOHjywiv1Oz8MePtS0yZI7+Rry0PDBzl1HqD3+hr2qwu4b60iubZw8MqhlYdxXzFXrPwZ1GSayvbCRsrAweP2DZyPzH61tQqNvlZ4eeZbTjS9vSVmt/M9NoorD8aa4nh7w7d3zMolVMRKe7ngfqa6JzUIuUtkfL0aUq1SNOCu27I4KxuE1T453EkJWSO2gKE7vukAA/rmvWa89+E2hPBZza7eqn23UiZcAEbFbnHNehVy4GMlTc5bybf3nqZ3UhKvGlT1VOKj81v+IUUUV2HjhRRRQBFLGk0bRyorxsMMrDII9CKeoAGAMAcAUtU7u62HZH97ufSsK+Ihh4c83oVGLk7IuGoBbQBUUQxbUbco2DCn1HoazWldjlnY/jSxzyIeGJHoa8qOd03Kzi7GvsH3NFbaBUjRYYwkZygCjCn1HpU9RQSiZNw4PcelS17MJxqRUou6Zi1bRi0UUVYjN1X/j/ANI/6+W/9EyVpVka4JTc6SIHjST7UcNIhYD9zJ2BH86n8rVf+fux/wDAV/8A45QBoVzev+ENH1+7S41OKSSRQq/LIVyoEgA46D963TGePStTytV/5+7H/wABX/8AjlHlar/z92P/AICv/wDHKAOf0zwDoml2TWunLcW8Ju/tihZiSkgUgbSecDJ9/etPQ/Dlvo13c3FveahM9wd8q3FwZFZsKN2D3woFXfK1X/n7sf8AwFf/AOOUeVqv/P3Y/wDgK/8A8coA0KKz/K1X/n7sf/AV/wD45R5Wq/8AP3Y/+Ar/APxygBLX/kN6h/1zh/8AZ6uTR+bC6bmXcpXcvUZ7isS2j1P+177F1ZbvLiyfszYP3v8AppWh5Wq/8/dj/wCAr/8AxygDmbT4ceH7SGGK3W+RIXE0YF3J8koACyjnhgFwOwBIxg0Xfw70S71O51Cdr5ry4Ys8vnnPIcYHHAw+MD+6ueldN5Wq/wDP3Y/+Ar//AByjytV/5+7H/wABX/8AjlAGFJ4E0G5WFb+3kvY4LdbaCO4kLLCoQJlQMAPgfe+8OxFQ638P9G1uyt7XU2urmGBHjQyuruAxyfmKls9BnOeB35ro/K1X/n7sf/AV/wD45R5Wq/8AP3Y/+Ar/APxygCl4Y8N2Hhm1mt9LVo4pX3spCgZxjOFA7AflW6ehrP8AK1X/AJ+7H/wFf/45SGPVcH/S7H/wFf8A+OUAO8P/APIC07/r3j/9BFX6wNDj1I6NYbLqyC+QmAbZiQNo/wCmlX/K1X/n7sf/AAFf/wCOUAWLy1hu7WW2uokmglUo8bjKsp6gj0rmrP4f+F7LVJL6HRbISsY2UeSu2Jk6FBjg9yfYVu+Vqv8Az92P/gK//wAco8rVf+fux/8AAV//AI5QBz1z8P8ASLm4WaSXUBIk0k6FLpk2M83nNjHT5wp/4CvpXVwRCKFIwzsFULuc5Y47k9zVXytV/wCfux/8BX/+OUeVqv8Az92P/gK//wAcoA0Kz9d/5Bkn+/H/AOhrR5Wq/wDP3Y/+Ar//AByqOrR6gLEma5tWj3x7gkDKSN69DvOPyoA3qKKKAP/S+qaKKKACiiigAooooAKKKKACq2pX9rpto9zfTpBAgyXc4FYfi/xjpvhqJVuJPNu3O1II+WyQcEgdq4zSvDmteN7iHUvFNw0OnpJuis4xgMByCf1rlq4m0vZ0lzS/L1PVwuW80PrGJlyU+/V+UV1/I6jRfiDo+s6+mlWXnPI+/ZLt+RtvPB9xmuwrH0nw1pOlCH7HZxo8OSkmPmGRg81sVpRVVR/etN+Ry4yWGlNfVU1G3Xe/cKKKK2OQKKKzfEFvfXej3UGkXaWV/Im2K4ePeIz6478ZoA8x+Ld1qGva/YaT4YxNeaDnWLrbyAyD93F/vNk8V3C6xZ+JPAVxqVjfLaW1zZSE3Dc/ZjtO4sPVTnI9qm8G+FrPwtp0kFq8txczv5t1dzndLcSHqzH+Q7VnWHg86R4rm1HRrz7PpV9ua/0x03RSSEcOn90k9exoA8CgsvCyXWrrpNrcXqQNbxac0akRXs5jCiNlbk5f950xhT7V1HgTRbSy8UaFc2sEIC6u1hHMiAeYILNldgR2Mm4/hXpd94KvJbjxLNZXttaTalLC1rOId72oVNjlc9GKlgCOmai0XwPe2GvaO73lomhaIsgsLSGJhIzOm0vK5PLYLHgdTQB6FRRRQAUUUUAFFFFABRRRQAUUUUAFFFFABRRRQAUUUUAFFISAMkgD3rPvNb0uzXN3qNpD7PMoP86ANGjNc5/wl+lyMVsjd3rDta2sj/rjFcJ8S9a1Oyey1jSrfUtMk3+S7SlQswxkApk5IweooA7Xx5rDabpiw27Fbi4JUMOqqOp/pXlXXrV/U9S1vUorOXxDbJbzeTujCgqWUn7xXsaoV6uFio00+5tBaBWjoOqzaRqCTxMdmcSJ2dazqK6JJSVmUe8W8yTwRyxHdG6hlPqDU1Yngxi3hmwLHJ8v+prbrw5K0mjBhRRRSEFFFFADcVx/xSsGvfCc5jXL27rMAB2HB/QmuxpksayRsjgFWGCD0pSXMrGuHquhUjUXR3Pl2iu58Z+A7vTp5LnS42uLJju8tBl4/bHce9cOyMj7HVlb+6Rg158oOLsz9Fw+MpYmCnB3Er1H4K2sgOo3ZBETbI1PqRkn+Yrj/DfhLU9cnURQPDbZ+aaVSFA9vU/SvctC0q30bTIbK0UiOMdT1Y9yfc1tQpu/Mzxs9x9NUnh4O8nv5GnXkl/K/j3xzax2ksb6VpjbnRgcMQ2CT+QrsviRq8+k+GJ2sm23kxWKI+mSAT+uPxpPhz4cPh3QI4p/La8k+eV175OQP1qK6deqqPRav9EeTgXHBYaWMfxv3Y/d7z+V7I6iKNIo1jjUKijAAGABTqKK7jxNwooooAKq6hcNaWksyQST7BuMceNzDvjPU+1Z2peIbOzuvskIlvL8/wDLtarvcf73ZR9SKrCDxBqYJubiHSLc9I7cCWbHu5+UfgD9aAE0nxpoWrKRZ38Qmx/qZT5b59MGrBOTk964Dwj8OI5dWutV1dXa2852tYJeWcZOHf8Aniu/I2nGMY4r57PL3j21Oih1CiiivnzoLFi5WYL2bitSsuyQtOD2XmtSvq8n5vYa7XdjlrfELRRRXrGJm6r/AMf+kf8AXy3/AKJkrSrN1X/j/wBI/wCvlv8A0TJWlQAVzXibxfp3h25WG/LB2hecAMoLKqsTtBIyfl/UV0tcV428M3utzSzWMqI7wLa7WmeMGNvMEoYLwchkxkHBHagDQs/F+n3GmzX5WT7LG5UtblbvbhdxLGAuF49TU3hTxLY+JdPgu7BLkLLGJD5lvIig913lQrEHI4J6ViaR4Qvo9IlsNRvUVGnWcm3GRIAqhInDD7ibQv8AthQW6sDpeDPD1xoNjbrcXskkpt4o54QF8rzFRV3LgA5wuM9wBkZoA6iiiigDOtf+Q3qH/XOH/wBnrRrOtf8AkN6h/wBc4f8A2etGgCteXdvY2r3F7cQ28EYy8szhFX6k8Cs7/hJdGF3NbtqdmskMMc77plCiNyQrZzjnH6j1GTxNpLaxphtkMQkWRJVMofAKnIIKMrKfRgcj36VzkHgab/RlutQt7gKlmJt1oBvNvcPKMYbGCHK8gn5Qck5oA6lNc00+VvvbaIzSeXCJJVXzTnA2c/NntjrU8OpWM93LaQXlvJdRf6yFJVLp06qDkdR+dc7d+ERO9+/nxhrmKWJCYc+Xvl3569sD06VV0HRNQtvFcU8sAjsbaO8SN2jQO3mzI4+YOS33SclV7ZyaAO5oPQ0UHoaAKHh//kBad/17x/8AoIq/VDw//wAgLTv+veP/ANBFX6ACiiigAooooAKz9d/5Bkn+/H/6GtaFZ+u/8gyT/fj/APQ1oA0KKKKAP//T+qaKKKACiiigAooooAK878c+NLlLptE8MRG41B0y9wnKwgjOQR3qp408U6jq+sr4a8K/fcEXF0vOwAkED8jXUeBPCdt4X0wRJmS4kw0jtyQcDIHtnNcE6ssRJ06WiW7/AEX+Z7tHC0svprE4tc0nrGH6y8vLqY/g7wBDYXcmq61K1/fzBHUzjJiOMn8c/wAq74AKAAAAOwpaK6qVGFGPLBHmYvGVsXP2lZ3f4L0QUUUVqcoUUUUAFFFFACdqzb7W9KsX8u+1Kyt3/uyzKp/ImvGPjN8SLyDUJtB8PztAIflubmM4bd/cU9sdz1zXiDszsWdizHkljkmumnh3JXbO2jg3Nc0nY+3rG+tL6PzLO5hnT+9E4YfpVo18S6JrOoaHfJeaTdy2s6/xI2AR6EdCPY19Q/C3xvH4y0VjMqRalb4W4jXoc9HX2P6Gpq0HDXoRXwrpLmWqO6ooorA5QooooAKKimmihTdNIka+rsAP1rKuPE+iQNtfVLVn/uRvvb8lyaANqsXxdrtr4Z8PX2rXzqsVvGWVScb3/hUe5OBVZvFUMhIsNO1W8PYx2rKp/wCBPgVzvxDjudf8D62uo+H2jSC0lntvNkWRxKFIXCLnnk96AI28U+MYpdI02bQNLTUtQjZkle9bysqoZsqFJHXpk1V8X+O9d0HxLbaStppLyTR2xXe82WaVzGwBC4ABBPOOPeue8Q6doKeL9Kf+zPEskEBnF68SXTAMVG3YQemc/d4pfHukanBqdnqmlaZdHSLaOwjieW6clts+874hl3xuxzyME0Adj4d8Xa9fXegtqem6bDYawsjQvBcO0ibULjcCoHb1qHVfEXjGx1PTbMweGXN/O8MTC4l+XajPluPRfzrB8KaBc2V54WvNUs7x7C8S4hW1aeWQWPmBvLDKSQAY8qeBgntVnW/BvhSTxnoGl2Ogx7o53kvFW3kEYj8liuX+797bwD1oA7qHWbyy0+2/te0+038hbKaVG80YweOTjHBHWnDV9YnH+ieH5lHY3Vwkf6DcavaHoemaDavbaRZxWkDv5jJGMAtgDP6CtOgDmyniu4PM2k2K/wCyjzt+pUU8aHqMw/03xDfN7W8ccI/kT+tdDRQBzg8H6U7ZuxdXp6/6TcySD8icVpWei6bZD/RNPtIT6pEoP54rRooAQAAYAAHtWdqOlWuoXVpPeRiU2rF4lblQx43Y7kdvrWlVTUo2ks5VW6e0O0nzk25T3+YEUAcp8SdL8+yjv49oe3+V8nGUP+B/nXm9I+kapqPjPR/t17d6jpVzdfuLic4EqIcsQucAHHHr1r1PW/BlhfyPNbs1tMxydoypP0/wrtw+JUFyyNIytozy2p7C1kvr2G1hx5krbRk4/Gu2h+Hp3jz78FP9iPB/U1R+JnhSztPA8sunxET2kizGQnLsOh5/HP4VtUxcEvd1Y3NdD0bT7VLOzgto/uRIEHvirNeYfDGxu9OmS11rUNRS9ZBLDaSS5heMgHK9ckdxxivT68xu+pkFFFFABRRRQAUUUUAQzSxwwvLMwWNFLMx6ADqa8Km8Raq/xAGuDTbprEL8sRgPNtnBbp6859a94dFkQq6hlPUEZBrCaCX/AITqOfy38gaa0e/Hy7vNU4z64oGm0bNtLHcW8c1uwaKRQ6MOhBHFT0xEWNQqKFUdABgU+gR5T42eTxF8SNK0ESsLGJd8yoe/U5/IV6qihEVV6KMCvLfhYqXnijxLqcx824acgPg4Ubj8o/DH5itCf4naeuuQ6dBpWtTEo0lwRYyBoV/hOzbkhjkZ9q4sEuZSrP7T/BaI9rOX7KVPCR2pxXzb1b/rseh0Vztn4r0+5067vZBc2VvbYDtfwtbAk9MF8d+K5ux+LHh68i0TZdW8c+oSvHLFLcIptdgO4ueh5AA/vZGK7TxTtNX1ez0mNWu5Dvc4jhQbpJD6Ko5NZX2bVtcJOoO+l6ew4toX/fyD/bcfd+i8+9atrpVnBqE2oJH5l3P1mdtzBeyqT0X2FaVAFLTNNs9MthBY26QRDso5J9SepPuau0UUAUtT1G00yyku7+ZILeMZZ3OPw9z7Vwnhbxh/wlfie+t7OARWcUG+Pd9+Q7gCT6deldL4zSwGl+be2MV9OD5dtBIu7fK3CgD+voDWV4a8DQ6Bq9jqFm+Jfs7Q3SfwuxGdy+nIxj0rHEYeGIhyTWhUZOLujcZSpwwIPvSpG78KpNbJAPUClxXjrI482stPQ19v5EFtAIUx1Y9TU9FFe1TpxpRUIKyRi227sWiiitBGPrsphuNJdYpJSLo/JGAWP7mT1Iqb+05P+gZqH/fCf/FUar/x/wCkf9fLf+iZK0qAM3+05P8AoGah/wB8J/8AFUf2nJ/0DNQ/74T/AOKqaa/tYZhFLMglLImzOSC+QuR2zg/lVe61rTrXyPPvYV89S8XzZ3qCASMdhuHPuKAHf2nJ/wBAzUP++E/+Ko/tOT/oGah/3wn/AMVTDr+lLAs0l/bxxNJ5StI2wFsZwM98VJNq1jE12r3Ue60iWaYA5KId2Dx67W/KgBP7Tk/6Bmof98J/8VR/acn/AEDNQ/74T/4qli1iwlu0tUu4muJM7EB5bAzx68c8Vo0Ac7balINYvm/s2+OY4uNqZH3v9qtD+05P+gZqH/fCf/FUtr/yG9Q/65w/+z1o0AZv9pyf9AzUP++E/wDiqP7Tk/6Bmof98J/8VWlUfmKZDGGBcAErnkA5wf0P5UAUf7Tk/wCgZqH/AHwn/wAVR/acn/QM1D/vhP8A4qrkU0UwYxSK4RijbWBww6g+4qagDN/tOT/oGah/3wn/AMVSHVJMH/iWah/3wn/xVadB6GgDntD1KRNGsF/s2/bECDIVMH5R/tVf/tOT/oGah/3wn/xVP8P/APIC07/r3j/9BFX6AM3+05P+gZqH/fCf/FUf2nJ/0DNQ/wC+E/8Aiq0qKAM3+05P+gZqH/fCf/FUf2nJ/wBAzUP++E/+KrSooAzf7Tk/6Bmof98J/wDFVS1a/eWxKHT72Pc8Y3Oq4Hzr1w1b9Z+u/wDIMk/34/8A0NaANCiiigD/1PqmiiigAooooAK81+Inie6ur/8A4Rfw8JWvZVzPNDyY17ge/Y+ma1Pid4sbw9pqW1ipk1G7DJHtPMYx96j4deC4vD0LXt0zTanPkvK5yQDjj35B/OuGvOVafsKf/bz7Lt6s9zA0aeDo/XsQr3+CPdrq/JfiaPgvwjY+GLJVgXzLxkAlnbkse+PbNdLRRXXTpxpxUYKyPJr16mIqOrVd5MKKKKsxCiiigAooooAKqajcrZafdXTkBYYmkJPTgE1bqrqFqt5YXNtIcJNG0Z+hGKaGj4ku7iS7u57mZi0sztIzHqSTk1FVzV9PuNJ1S6sLtCk1tIY2B9j1/rVOvVj5H0MbW0Cu8+CWrHSvHluzs4t5oZI5QqliQFLDgcnlRXB16X8AdHlv/HMd6EP2ewjaR27bmBVR+pP4VFW3I7mVe3s5X7HvreJjIP8AQdG1a6PY+R5Sn8XIoW+8RXB/c6Pa2qno1zd5P5Ip/nXRUV5h4Rzj2fiS5/1urWVoPS2td5H4u39KVPDcknN/rerXJ7qJhCv5IAf1roqKAMCPwjoSvvk0+Od/71wzSk/99E1rWtnbWqBLW2hhUdBGgUfpVmigAooooAKKKKACiiigAooooAKKKKACiiigAPA5rk5WbxVdtBGzjQYXxK44+2OP4B/0zB6nueOlPvp5fEV5Lp1jI8emQttvLpDjzD3hQ/8AoR7dK6O2gitoI4LeNY4Y1CoijAUDsKAGPaQu9uzRLm3OYsDGzgrx+BqzRRQAVDcwR3MEkM6B4pFKsp6EVNRQBmazpVvq1osUxaOSM74Zo+HicdGU/wCc1R0fVZ47oaVrWE1FRmKVRhLpR/Evo3qvb6V0NZ+s6Zb6taeRcbgVO+OVDh4nHRlPYigDQorndJ1O4tr1dI1sqLwg/Z7gDCXSjuPRx3X8RxXRUAFFFFABRRRQB438S/HGs6dfarpun6ppFv5Ucc8DjJlI81UdM7sBhnkEdDV/T/GOq6r4e8R3DX9khspGit5dKh86XCMA0vlsxzHnI9cAkdqo+Ovh7eeJYdSvLjTNOilSYGztLRVDzEyLummkwMkpuwvQZ7mtO38M6z4WsNXsfDmn6fcRyW5Sxu1CxXMW5gNkhx84UEsGzn5ccmgDhdW8ceLpdZuILPWVGxvMb7NAph8sKudmYmbJLZBbpXtfga9l1HwfpF9czyXEt1bJOZJVVWO4bsEKAOM44HavHI/hx4hn+zpqVkJBNdhjKJEZ4lMuXaRickbFUBRnJY5r2bwbaXmn+GNOstSjgjuraIQsIPuELwCB2yADjtmgDhPg1FKLnX9q+SDcMVQ8qpzj+lcZr3hHU18a6mZvM1q8NpDcXly8UW1GYvwod12IAuAAT05rs/hPJDYXviZpbwG3hl8x3b7q55yT68YP0ru9KeDWYLm5m01I7e6Xyg0ygtcRc4LLjhTk4B7H3riy/Sgvn+Z7PEDvjpvyX5I898H3CWfwfgkudYtdHjS6mDXFzEkyYEr/ACBSSCfTBPTiuV0w6/Y6rPresXsOm6HqzBYr+bSYzt2fLGZY/wDlkGBJB/PFe8ppdhHaRWqWNsttCQ0UIiUIhHQgYwDVqaKO4ieKZEeNxhlYZBHoRXaeMQ6c4ksLZxcJcBo1PnR42ycfeGOMHrVuoYIY4IUihjWONFCqiDAUDoAOwqagApjMFUsxAUDJJ6AU+uW1GRvEd9JpdqxGlwNi+nU48wj/AJYqf/Qj6cd6AF0kNr2rDWJAwsIN0dgh/j7NN+PRfbJ711FRxRpFGscShEUBVUDAAHapKACiiigAooooAKKKKAM3Vf8Aj/0j/r5b/wBEyVpVka1IIJtMmZZGjjuSXKIz4BikGSACepH51L/bNn63H/gNL/8AE0AcZ4ihnuPEF07adqxMV1bbJrIuqyQqoYk/MAWDO44HpWl4WtbmTUdPuZbSa0gtLCa3RJQwYh5xtBySdwWFSef4xXQ/2zZ+tx/4DS//ABNH9s2frcf+A0v/AMTQBz3xG0m/1aysotOgadlkbeBMIwFKEc5+8P8AZ7+tYVv4cNrdan9m09DIk2nwrcRWIgMgS8Z2OAozhPLLMvynbkdMDvv7Zs/W4/8AAaX/AOJo/tmz9bj/AMBpf/iaAOF8KaBr2la3pY1mZrlVVPmSV5VQpDKjsSQACzSJ7nHtXplZv9s2frcf+A0v/wATR/bNn63H/gNL/wDE0ALa/wDIb1D/AK5w/wDs9aNYFvqduurXsrC4EbpEFb7NJyRuz/D7irv9s2frcf8AgNL/APE0AUvGMF9Porppv2rzxLGxFs4VyoYEjlkyPUB1JGcHPB4+LQNeluo5pbe/t5rmCwinki1A5RIrmQyqx8zOTG6njd/GNxPLd7/bNn63H/gNL/8AE0f2zZ+tx/4DS/8AxNAHLXejay0l2YZb1RFHKbQJeFQ0nm5Td83zfKP4s981X8MXt3N43Ns01zJ5Md59rY3ZkjZvOTyv3eT5eF3AAhe+Nw5rsf7Zs/W4/wDAaX/4mj+2bP1uP/AaX/4mgDSoPQ1m/wBs2frcf+A0v/xNB1mzwebj/wABpf8A4mgB/h//AJAWnf8AXvH/AOgir9YOjanbQ6RZRSi5WRIUVlNtJwQoyPu1c/tmz9bj/wABpf8A4mgDSorN/tmz9bj/AMBpf/iaP7Zs/W4/8Bpf/iaANKis3+2bP1uP/AaX/wCJo/tmz9bj/wABpf8A4mgDSrP13/kGSf78f/oa03+2bP1uP/AaX/4mqup6lb3NmYoRcNIzpgfZ5B/GPVaANyiiigD/1fqmiiigArI8Va9a+HNGmv7xuFGETu7Y4ArVkdY0Z5GCooySegFeOXDXPxD+IKRxsH8PabIGDxtwcqDnPfJHHpXLiq7pxUYfFLRf5/I9PK8FHEzdSs7U4K8n+i83sa3wz0C71S5bxR4jeSS7mZzDDIPlVWAGcfQY+len02JFijVI1CoowAOwp1aUKKow5V833Zhj8bLGVnUlotkuiXRIKKKK2OMKKKKACiiigAooooAK5vxb4rtPDcBaaG4uZiuVihjJ/wC+m6KK6Suc8USyXssGhWrbZbwFrhx1itx94/Vvuj6n0oA8dbQ5fixd6pqAMGn39skYhCr8kgO7hz1J4HP6Vw2qfDrxXp05jl0W6m9Ht181T+K/1r6c0Hw1aaHq2oXWnqsUF2seYVGAjLnJHsciuhxW0K8oKx00sVOmrbo+VPDXwn8T6xOn2m0OnWxPzS3PysB3wnUn8q7XwP4kXwRqd54eXTWu4EuXUywL+/cg4yR/Fx24xXu2MVxsng5YG1HULFlTWZbtruCfH3fSM/7JGQfrSqVZT3Jq4idXR7HU2F2l7apPGkyK4+7LGUYfUGrVZ2h6mmradHcxqY3yUlib70bjhlPuDWjWRgFFFFABRRRQAUUUUAFFFFABRRRQAUUUUAFFFFABXNaveT6rfPo2lSNGq/8AH7dr/wAsVP8AAp/vn9BzUmt6lcTXg0jR2AvWUNNPjK2sZ/iP+0ew/HpWlpOnW+lWKW1qpWNeSScs7HqzHuSe9AE2n2Vvp9nFa2caxQRLtVR2qzRRQAUUUUAFFFFABRRRQBxnjLxTdaJqNlZwaMb6S6SR7eQzKi70UsV57gDPXntWZ4N8e6hraRw3ukC0kTTo724u/PVokDoWUlRyAcE4zkCs/wCI3hZ/FWuSQwWOoQG3VZJdTa5kSNQFOFgjDYZz0LY4yetY/wAMfDMvhSTSr+707UbyK8tEnW6jnkJt28n5opoc4IHIU444GM4oAk1X4pa/bNDHBpumPM8CvHsmaVLpiXw0bL0UhCfmwR0Neg/D3XbzxDob3l8LZZRO8W2BXULtwCCG75z04rwu80zU7iO/1K90e4s0bMsLW9qVEDFZHRAgU7mYzouSMZDHtXtPwv02fR9DutPurWWCSK7dxI/ScOA4cfngjsQaAO0ooooAKwWup/8AhNktPNP2Y6e0pj7b/MAz+RrdzzjvXOt/yUOP/sFN/wCjloA6Oo5JEijaSRgiKCzMTgAepp+R61y10T4m1J7KMn+xrV8XLg8XMg/5ZD/ZH8Xr09aAOA+Emmx6vfau0rs+lw3ZlSDPyyv2L9yAOQOmTz0r2mvLvg3Gqah4m2JhftZVTjsM8V6jXFl/8CPz/M9nP3fHzfp/6SgooortPGCiisXW49SuzHaac4toZP8AX3W4b0X0Qf3j6npQBT1O/n1S9fSNGkKbOLy8XpAD/AvrIf061tabY2+m2cVrZxhIYxhR/UnuT60mmWFvptlHbWcYjhToOpJ7knuT61doAKKKKACiiigAooooAKKKjmlSGJpJDhFGSaAJKK5G/wBYnncrCxii7AdT9TVDzpc58x8+u41PMVyne0VyumazLC6pdMZIjxuPVa6hWDKGUgg8gimncTVh1FFFMQUUUUAFFFFABRRRQAUUUUAFFFFABRRRQAUUUUAFFFFABRRRQAUUUUAf/9b6poorN8Raxa6DpE+o3zEQxY4HViTgAfiaUpKKcpbIunTlUkoQV29EcZ8VNekLW3hjS5FW+1EhJX/55Rkj9SM8ehrqvB2gQeHNCtrCEIZEX95IBgu2Scn864v4VaZdapJL4l1lhLLOz+SrqCUO7n34xivT64sLF1ZPES67eS/4J7GZzjhYLL6T0i7yfeX/AANgoooruPECiiigAooooAKKKKACiiigCtqF5Dp9jPd3LbIYULsfYVk+F7OYRz6pqC7NQvyJHU9Yox9yP8B19yar6iP7d19NOAzp9gVnuj2kl6pH+H3j+FdPQAUUUUAFFFFAHL6l/wASHWRqi5GnXjLFeqOkb9El+n8Lfge1dR16VBdQRXVtLb3CCSGVSjqehB4IrD8NzyWVxLoV87PNbLvtpX6zwdAfqv3T+B70AdHRRRQAUUUUAFFFFABRRRQAUUUUAFV7y6gsrSW5u5Uht4lLvJI2FUDuTVivnn455ttXvrm50K6NvdWslssv2lfnlABWZUD52qAQ2RjpQB7/AHNzDbW73FxNHFAg3NI7BVUepJrJ1fXLCCGaBNZ021vtnyG4mX5cjhiuRnjmvK/hrZT6hZ+JJ7XSG0+K9WSKCa9lW4ht0QKPJkiLlskhi2RxXnt8tnLdPNHbRNpHmIpFuWkAkWOHbtLDeUBfjtyKAPprwxa2FvpinTrmO8WVi8t0rhzNJ/ExYd8/l0rZrlPheso8BaObhESd4d0m1VXJJPPy8Zrq6ACiiigAooooAKKKKACiiigAooooAK5+LVbix1T7DrIRUnY/ZLpRhJP+mbf3X/Q9vSugqpqNhb6jaS215EssMgwyn+Y9D70AW65D4oLcJ4Nv7uzmvY7m0Tzo1tJjE0jdNpIBOOelWLK9uNEu4tN1iUy20p22l8/8R7RyHs3oe/1qv8S9H1HWvDkkGmSsWBBe1EUTi4GRgHzBgY6/hQB89S6vqreKrN21nUBKLR8MZbnK5Zcj7m78hjiu10HxW/hnR28R6zJfzX02nTJFBcStKzSC42oF3AEAgBjn3rhrbw1f3/jX+zbKxhuLyC2kM0MSWbeWQ4B3ADaDnjnn0ru/Cnhq98O6Tqtt4k8tHGl3k8MUixkW+6QhSCvGTu/DOBQBijV9btNMn0zSZZby3g0OS71JpJCF8+f987++1SFA969m+HUmrjRrWDUdIs9Ps0tozA1vdeaZCRkkjaMevfrXA33g6RvhdeazdavqMV22j5MNrKEhaNIvkRhjJGOvPeu+8BeHTpdjZXZ1jV7wS2iDyLq4DxJkKflGBjHQe1AHP/Dlf7P8feJdNVPLjDbwM5Lc9c/jXqNeU3oTTPjYkz71W7hXaIzwxwFy3616tXFgdIyh2bPaztc9SnX/AJ4RfztZ/kYPi850SWP7FqV6sjKpj0+Ty5gM5yG3LgcdjXjXhm/trrXtVtW07xlcypcM1rDHqL5jjTarBv3uCQ+c9etev6/cXWqQ3GmeHNVtrTUVI8+YxmUwoeDgdN/oDXPt4H1DR57GTwneWsJgsZbKRr1XdmLvvMuVPLbsnn1rtPFMT4ra3LFJa3NvrkGkz6ai3y209nK8pk2k7GdTswwO0g5+tS/CPWGu9QuZ7nX7HUJ9WH2t4obOWNkfao2h2O3aoBGK6G98Japq7WVjresCbQ7aOIS28cZEl66gZMzk/dLDO0de9WdC8N33h7VzHpF9H/wjchZzYTIS1uxyf3LjopP8J6dqAOwooooAKKKKACimswVSzEADkk9qx7nxPo1u/ltqEMkv/POHMrfkuTQBtUVzf/CQXty3/Er0K/mB/wCWlxtt0/8AHvm/SnGHxNdD57nT9PQ9oo2ncfi2B+hoAd4k8UWfh2a3/tSOeO1nO1blE3IrejY5FU9S1/T9Vsohpd7Bcox3MI2yQB6jqKx/HXhK8v8AQhbpf3+o30syKnmuFiTnliqgAADNTWHg608M6Igth5t1n/SLgjl/p6AelJ7DW4yiiiszQK6zw7MZdPCscmNiv4VyddX4chMWnhmGDIxb8KqO5MtjN8UeLrHw5qek2V3t337tudpAiwRKMtIxPbJA9yaz7L4l+HLnXNS0+XU7GCO0WNo7lrpPLnDAk7T6qRgiuTutEvpvjFqf9p3UN019o05tIzEGS3QOAgwcgnPzH3qqk9tqngbwV9m0+wi1bVL+G1uJEtow37pj5x+738s5+tWQdx4y8f2HheWwSW3mvBeQvcRtBJGq7FAJOXYA8EYA61zZ+NukiLzDpWobfI+0/wCut87PXHmdf9nr7VV+PUEOnQaRfRmTzJrgWgQzbYo0CM2VXIAPA7ivIdM8qzu4IvNE4vL9FfEqAgSOFONsrHge1AH11Z3C3dnBcICEmjWQA9QCM1YqpptlHYWMNpE8siQrsVpXLsR7k9at0AFFFFABRRRQAUUUUAFFFFABRRRQAUUUUAFFFFABRRRQB//X+qa8u+IOoPr/AIt07wvYxeaYZUuLnJ+UAYOD+H/oVd/4j1aLQ9Eu9RnG5IE3BR1Y9AB9TiuJ+FOjXc09z4o1f/j9vgVRcfdXd/8AWA+lcWKbqSjQj11fp/wT2srjHD0546p9nSPnJ/5LX7j0WGJIY1jiRUReAqjAFPoortPFbvqwooooAKKKKACiiigAooooAKyvEWpHTNMaWJBLdSsIbeL/AJ6SNwo+nc+wNatcxpX/ABPNdk1Vsmysy1vZDs7dJJf/AGUewPrQBpeHtNGlaakDOZZ2JknlPWSRuWY/j+mK1aKKACiiigAooooAQkAEk4A715bcfE3Qjrem/arNyr3FwltdRhpG8tPkDhUUnDsGUD/ZzXo+q2MWp6ZdWU7SLDcRtE5ibawBGDg9q8AsvDttZfDzw5caXb3EmoX2sJGfLufLk2o8qqiOfuADn6k0Ae0DxZZSaV/aFra6ncxeb5Plx2UgkzjOdjAHHv0rnNI+Kem3r2dvJpuqQ315PJDBB5BPmbZCpIY4HAGT6YI7VgeP9J1KH4eC8ubW1jewEjONUf7dOoZ1A2SEhR+IOMCuD8CaZott4q0ewSK01BLy6YSm5NvM4Gxm+UoxK8gegoA+oaKQDAwKWgAooooAKKKKACiiigArjNa8JaLctqiXdxKNR1uN7ZZ5pd8iIRykQPCqOuAPrXRa1qkGk2Znn3OzEJFEnLyueiqPU1S0LTJ1uH1TVyr6pMuAoOVtk/55p/U9zQBQ1fwTp9/Nfz28t1p9xfWzW1y9q+1ZQQBuZehYDIB68msRfhPo8KqLW6u4SZQ8p+Vt8YkDiMZHyjKoMjnCAV6RRQBl6DpFrolh9jsPMFuJHkVHbds3MWKj0UEnA7VqUUUAFFFFABRRRQAUUUUAFFFFABRRRQAUUUUAVb6zt7+0ktruNZYJBtZG6Guftbu48P3Een6rK01hI2y0vX6qe0cp9fRu/wBa6is7X5LZdJuft0SzW5XDRsMh89qzqTjTi5zdktWOMXJqK3Y+X7BpxkuHWC3Mhy7hQpY+571w3iGWx1XxbYXM04bS4oCk6bSfMYOGVSP7uQCfpWK0sjRxpLNLKsY2p5j7iq9hn2pnGa+GxfF1T2jWHiuXu73f5H0FHJo8t6rd/I9VsbmxvbYx2rRSQhdhjA4A6Y2+lWJ57ezgLzyRQQqOrsFUCvKLS4ltJRLC5WRTkEV2ui6dpGqxnUZbCGa6diZDLmTDd8Bs4HsK9vJc9jmN6c1aa+5ryPPx2AeG96LvE4n4ha7p7eJ/D+raX5l7NA5h3xriNieg3kYJ+Y9M13KWGqaysb6vefZLQjP2SyYgt7PL1P0XFYvxo09pvBy3FttRrGZZR2AHT+eK6XwRqsOs+GLC7g4BjCsv90jgivVpPkxM4d7P9GdOKj7XLqFZfZcov77r8zR07T7XT7dbeyt44IRztQY59T6n3q5WdqOs6bpoJvr+2gPo8gB/LrWcPFENwD/Zen6lf+jRwFEP/AnwK7TxTA+MNxf6ZocOt2V5b28OlM9xJHMXAmYoURRt68t0PGcVw3w3uNQl1jwvDZ3lvFIlj86tBcILy3HJJ3DaSGYkMMcn0ruvEuga54nks7qU2tklk3mwWFz++jeXPEku3GdozhemeSap+GPh3feFNUS+0bWY55JcJeRXluNnl7ixEO05iHJwvIoA4fxVr14LvVby88RQaTcXOpWuzSriIvLBDHIuxz8wC5GXK45Heur8Q+K9Ri+G+sX2lapb6/cF/s4uLK38lbUFcs7ZY9Bz9SK2vEPhvxTrUXkSatoqQrcR3CYsH3fu5A6gnzOfugGrWpaF4g1XwxrOl6lf6W73kHlwtBbPEqMepbLNkdOlAHntzBqek2moX1v4gvIrjw0qWVrbm3iPmpMsewEkc5JAyQTwT3qD45trFjf6S7alMrS2flJ5UrRmWRCGdmUYVc5A69PSux1H4f67fam94dfsF3yW8jRf2axVvIJMYb97z156ZwOlM8d+BNd8V3WlyT6npoWxiZdwt2UyO4XccZYAfLwPegDivgh9v1XxHdR31w13bpaMLqCeZmXEjAjAOQcFCBzwD3r3yzsrWyj2WdtDAn92JAo/SvOPh74B1fwnr8989/YT21zEsUyCNg4CkkFTwOp7ivUKACiiigApksayxskgDKwwQafRQByOo6TNbOWiUyxdiByPrWbtOcYOfTFegU3auc7Rn1xU8pXMcppukTXDq86mOEcnPBNdWihFCqAFAwAO1OoppWE3c4zxJ4W1HUfFEesaZq/9mSpYGzEiQrK6kyB8gN8uMAjn1rmrP4V6rZ3dpcW3jG5jltHmkgIsIcI0v+sOMYyf07V6xRTEec+LfA2t+Il0uK48QweVYMkys9kwkllCFWZmSRcA5JwuMVj3nwq1a5WIN4gtVMUscyn7PcN8yMGGQ1wQRkelevUUAUtLS8isYk1GeK4vAD5ksURiVjnspJxxjuau0UUAFFFFABRRRQAUUUUAFFFFABRRRQAUUUUAFFFFABRRRQB//9D1H4pXcuv+JtM8L2CyP5cizXIU4B4JC59cAn8a9RsbWKys4baBQkUSBFUdgK82+EdlNfanrevX0izvLctHG+c9Cc49sEAV6hXDg0581eW8vyWx7ecTVHkwMNqa185PVv8AQKKKK7jxAooooAKKKKACiiigAoopjsERmOcKMnAyaAMLxTdSyCDR7Byl7f5UuvWGIfff8uB7kVsWVrDZWkNrbIEhiQIijsBWP4btJ5JbrV9RjaO7vMBInGDBCPup7Hufc+1dBQAUUUUAFFFFABRRRQAVUFjaKkUYtoQkT+ZGojGEbn5gOx5PPvVuigCG4giuYminiSWJvvI6hlP1BrIs57SbWbmzmsYYLy0IliJVTvQjAdTjjuD6fjW7WF4msJpoodQ05QdTsiZIRnHmr/FGfZh+uKAN2iqOk38WqafBd2x/dyrnB6qe6n3ByDV6gAorwbwvrWsa7a3l1f8AxJh0iVL2eFbWSGDKorkKfmwelafxM8UeI9CTSdM8P3/22+sbJtT1K48tf30CEDkYIG75jx6UAezUVS0bUIdV0qz1C1OYLqFZkPswzV2gAqjql/b6XZSXd2+yJB25LHsAO5PQCpr27gsbWW5u5VigiXc7seAKwdMtZ9Zv49X1SJooI+bK0f8AgH/PRx/fPYdh70ASaNp9xdXq6xrCbbogi2tici2Q/wDs57n8K6KiigAooooAKKKKACiiigAooooAKKKKACiiqt5f2lmm68uoIF9ZHC/zoAtUVzsvi3TmO3T1u9Rf0s4GkH/fWNv60p1HX7of6Ho8VqD0a9uBn/vlM/zoA6GmSSJGpaRlVR1LHArn10vXLr/j/wBcMKnrHYwKn/jzbj/KgeE9IUma/WW9ZfmMl7O0oHvgnaPyoAlvfFOjW7lDfJLL/wA87cGZvyUGuX1vxLFr1nJHYW14kEEoEk00exS3PyjnOa04EbXg0GlRix0BSVeWFRG936hMfdT1bqe1bWpaRA+hPY2cSQxov7pEGACORXBmdGVfCVKcN2nY3wtRU60ZS2TPM8UU5laN2V1KspwQexppr8dlFxdmfap3AdDWto2tXOiabez2+nXGoYKkxwnG3r8x9voKyO5rvPA1i1vZSXEgIaYjAPoK+g4ZpTnjoSjsrt+h52ayjHDtPrY5ebWvEHifS54201U0+dCpFsiXJPtkuAD+Fcz8O5bdY7zSdVtdfuJbWQn7LbM2xF/2lUg5r1rUPDttLcm9sJJNP1A9Z7fgP/vr0YfX8681119W8JeOrfV9RaIWl1tW5mt1O2QDjJTqD045r9ExX7ucK66aP0f+R5+Vv6xRq4J7yV4/4o/5q52djf6Jpv8Ax7eHr+2Yfxf2c2788E1onxjpYH7yPUY/96xm/otbOm6haalbLcWNxHPEf4kbIq3XaeIc4vjPQz965mT/AH7aVf5rT/8AhMdAP/MVt0/3yV/mK3yAeoppRD1VT+FADLeeK5hjmgkWSKRdyMpyGHqKmr54+KfibVLXxvrVrY6gy20WltDvt7Rv3JJDeWXDfK3A+fHGQMd62/CuoDTvGmVuVhtRpFzNII9Yk1NNyvFhmXGQRk8Drk0Ae1FgASSMDqadXzRqWrTSanc6E3i+1Flq7m/uCNMuAEdWU7FQndtfBJxxwfWvadMsLHxNpNpqFxdS3FwE8s3Fq01qrEE5wmcj8c0AddRXOjw00X/HrrWsQ46AziQD8GBpG03xDBzba5DOB/DdWg5/FCP5UAdHRXPC98R2wxcaVZ3gHe0udh/75cf1pE8WWUT7NUgvNMf1u4SqH/gYyv60AdFRUFrcwXcIltpo5oz0eNgwP4ik+1Qm8a13jzxGJdnfaSRn8xQBMfWqV5qljZnF1dQRH/bcCuA+InjGa1uW0zSpPLdR++mXqpP8K+h9TXl8jvJIXkZnc8lmOSa9nB5ROvBTm7JnzGZcS08LUdKlHma3fQ+kbPUbO8H+i3UM3/XNw38qt18y288ltMstvI8UqnIZDgivYfh14sbWomsr9h9uiXIbp5i+v1FRjcqnho+0i7ovK+IaeNqeyqR5ZPbszu6KrrcwNcvbrMhuEUM0QYblU9CR1xVZNZ0t7gW6alZtcFtgiE6lt3pjOc15J9IaNFV7y6gsrWW5u5Uht4lLySSNhVUdSTTLO+tL22huLS4imgmUPG6MCGB6EUAW6KKKACiiigAooooAKKKKACiiigAooooAKKKKACiiigAooooA/9H374WwLB4E0kKqjfFvOBjJPeurrk/hSzt4B0nfjiMgY9NxrrKww38GHovyO3Mr/XKt/wCaX5hRRRW5xBRRRQAUUUUAFUdX1CHStLur663mG3jaRwi7mIA6AdzV6igD54sviH4kuH07V4LhYtPe8kS4+2q/ko82fLiAUbmEaICf9p67nV/FusxeFre+hlt5JJJXY3dhYvNAka8EMJHQq2e+e1Qp4S1eTwT4S0sie0urPUfOuJIJE3wpukO4E5B+8PXrV34heBf7W8FS2sYuNX1eD/j1mu5RvBLqT6L0B5IoA878FfEXxbqk9jb20s1/aNcOLmdLAGVAJCcJmT5srx0+UeuK+ix0rxTw14F13TvGOh39xp0MdrbzO0rpLbkqDGwHCRITyR3P0r2ugAooooAKKKKACiiigAooooAKKKKAOXkx4e18SAhdK1KQB/SG4PQ+wfp9frXUVT1Gyg1Cwns7tN8MylWH9R796zPDN7P++0rUnDahZYBf/ntEfuSD69D7g0AcR8MPAtgdAvG8SeHrY3z6hcuDdW6lyhkJU89sdKpaP4DuvE+ueI9Z1m41bRlupjZW1vA4iLWiKFG4EHg+leuzzxQLmaREH+02Kihv7SZtsVzEzegYVm6sE+VtXA4z4PWeqaP4buND1e3njGl3clvazSLgTwZyjD164ruZ5o4InlmdUiRSzMxwAB1Jp7MFUsxAUDJJ7VyqhvFd0GII8PwPxn/l9cd/+uYP/fR9q0AdZxSeJbyO/vEZNJhbdaW7jHnsOkrj0/uj8a6qkAAAAGAOgFLQAUUUUAFFFFABWBrXiK303WNM0qOOS6v7+TCwxEZjjAy0reij9ScVtTSxwxmSaRUQdWcgAfjXkfjqHSJfEsMvh7Vrm01y+aN726tbvbHDaKRukkY5CjAwoyOTnFAHfaT4osrv+2FvMWFxpUrpdRSuMog5WX/dZeQfqO1c7YfE+x1OO2j0exm1TUJ5J1W1tJUJVY2xuZmKgBhhh9ayPCeli/1rxVqWiahLqV1aKllpuoXVwZACYsyDcOGUMwOOcEVxHhjwzBPFf2s15dX9tpNhqFwySMQsE5lZEKsMHLCItjp370Aev6z43h0DTdOm8Q2y2F3eTrF9m87zCiFwC5ZRg4ByR+FULX4kCe909f7GnWzv7z7Hb3JuYsud5QuI879uR6VzOq6c8PgrwVZabqMOnQ3txZSSKPnuZJmZCZELE9Op4NchoN0LHxvpaSaxObaLUHaWeSTMdn++kDRudvymXCY5HU+1AHqfiT4nWOi3+oW8dldXqWZijeeFGaMys4Vo9yqQCoOeep4610VvrLa/Zzf2BJJbzRsoaS9spUABz0Vgu6vI/F1tplt4m1nRm1O0sbWOWO4Md9qFyvnPIBIXCoccN/Ku4+EEiX0Oq3QvpLt7e5NqJEvJp4XXYj7lEhyDliPwoA6VfD91cD/iZ63qFxnqkJECf+OjP61Ys/C+jWcnmxafA03eWUeY5/4E2TW1RQAigKAFAAHYUtFFACEgAknAFcmd/iy5ZEdh4fibDMpwbxh2H/TMd/7x9qm1mWXWdRbRLN2S2QBtQnQ8hT0iB/vMOvoPrXQ28EdvBHDAixxRqFRFGAoHQCgB8aLGipGoVFGAoGAB6UksixRO8hwigsT6AVJWB40kY6I1lE22fUJFtI8f7Zwx/Bdx/CgDG07Q/wC29Ct7+aV0vLndPuPIKsxKgj2XArIfQbpNXXTgYzM0JnDZwu0MFP45Ir0mCFLeCOKIbUjUIo9ABgVhX42eN9Ib/nra3CfkUP8AWvFxeQYPFz9pONm97O1zto5hXox5Yu68yhp/g6MIxvpi5ZSNqcAZ75rnvCd5r9rqFzo8uopJe2kjIkN4uUnQcjY4+YHGDg54/GvUq4nxhpcA1W0vpC8UVwVt5Z4+Gglz+6lH0JKn2bmu7B4ChgoclGNvzfzMa2IqV5XqO5qDxL9kfy9dsLjTT/z2I82A/wDA16f8CArE+LFrDq3gh7yzK3Els6zQyxMGxzg4IroNE1OWaeTS9XUJqcK5OBhLhOnmJ7eo7Gqes+E7KS0u30wy6fPIjFvs7YSQ46NGflP5VvXp+1pyh3ReBxDw2JhWXRoq+HdFttU0LT9SUtZ6lLCpa5sm2E8dx0b8Qavi417Sh/pdumr2w/5a22I5gPdDw34EfSuE+E2v3tlpFzBPY3F1bQTkO0HzPBn1jPOP93P0r1HS9UstUhMmn3Mc6rwwU/Mp9COoP1qMLU9pRjLyNc0w/wBXxdSl2f56lfTNf07UJfIhuAl0OsEwMco/4C3Na9UNU0qw1SMJqFpFOF+6WX5l+h6j8Ky/7E1CyO7RtXmWMf8ALvejzo/oG+8PzNdBwGT4r8Fvq02qtYPbWwvdNltDlDzK8gYu2OvT61Q0zwVrema+dVg1DSHnSwmtoRHpwt1EjtGQzBD8w+Q9xXS/21f6fk67pyQWqAs97BMHhQAdWBwyj8DXMf8AC2tCa2WSGaGWU6l9i8uOTe3l7iPPwASV2gnp6UAWk+HiXMEtzq2qXNx4jldZV1WNRG1uy52rEvRUG4/LznJzXV+H4tUt9NWLXrq2ur1WIM1vGY1dexKknBx1xxXH+Jfinpml6fZ32mW8urWtwJW8yJxEFEZQH7+M8uBxWZYfGTTbnXFsDpt0iPIsCTGeE5k6tkbuFAx82Tnp1oA9Yorjtc8ZDR11P7VpV35trJElsAV23nmMFXY/TOc5U8jGal0nxjbT6Pqt/rFu2k/2XO0F1HNKshQhVIOVznO8Ae9AHWUjAMCGAIPUGvK9J+L0F/dpb/2BqPmT3bW1vHGyNIwH8Txkhk45ORgDvXqtAHOaj4e0qEy3sBfTJgNzT2jeX+ajhvxBrx2+8a6ha+OINRkla5jtl+z7mi8kzw5JJK+vOfwFe267q2nWMRt72TfJKMLbRZaWT2VRzXkev+ApmvrC/hsvsNteXiQm0MhkeNWP3mb1PPHOPWmtxPY5e6na7uZrl2LNM5kJPfJzUVa3inS30fXLq0IIQOWjPqh5FZNff0JKVOMo7WPx3FwlTrShPdNh2rc8E3L2virTZEJ+aYRn3DcH+dYfaup+G+mtf+KLZsHyrY+ax7DHT9azxkoxoTctrM1y2E54qmob3X5nSeIL6WH4gec3h4xaraWNxPZXUd8FF5GgA2SKF+7lsgHpivPYrvwxaeHtBu9OvdMuPE1tqa31xO9vNEszM7FohJsOAC4A/wB2vRfiPbeIovGOk6zoVvJ9ls7KRbmdIhM+1pEJSOPPzOQuPTBJ7VybaD4n/tEau3h66HhMah/aH/CPi4Tz/MxnzNuMY3fN5eetfBn68W/jTq1tcJb6Z4g1PULSNrZTJp1hb7le5I3DdM+FZB/d745rgNEk0fT/ABBouoeKNL061tbULJGmhSpM0s4PBmAcsOx2rxmvWvitBfa5ZeErzTdP1J/9JaZ4kto3miDRNjckmUB5x838684PhbxJDaXiy6NrAE+opOM2VptKeYhyxQb1PB4TA/WgD6P0jUYNW06G+tVlWGYZUTRtG45xyrAEdKv0UUAFFFFABRRRQAUUUUAFFFFABRRRQAUUUUAFFFFABRRRQB//0vob4co0fgjRldUDC2T7vTp/OujrmPhoAPBGlAIyHygCGOea6escP/Cj6I68w/3qr/if5hRRRWxyBRRRQAUUUUAFFFYXii+mit4bHTz/AMTG+YxREf8ALNf45D7KP1xQAzTrqfVdduZ4pGXTLPNugU8Ty/xt7heg9810FU9KsoNO0+CztV2xQoFX1Pufc9auUAFFFFABRRRQAUUUUAFFFFABRRRQAUUUUAFcp4wZbe7sby2k8vUISQDtyGiP3lb26Ee4roL+/tNPgMt9cxW8Q/ikYKK4LWb1dQv3niYtCwHlkgjK464PNeVm+LlhqHNDduwFaeeW4kLzSNI57sajHByOtFFfDOcpO73A0reebVTb6ZfXLLYu/wC9A+9KO0ZbspPX8q71Vit4QqhY4owAAOAoFeYb/L+fONvzZHbFYeveP7nUvE+mW6wSRabBcRsYXPlGdwRgsT0XOOD+NfX5Fi51oOnPXl2YHuNFc2v/AAlF42SdM02I+m64cf8AoIpW8NSXRzqms6ldDuiSCBD+CAH9a98DWv8AU7LT03315b26+skgXP51lL4ssZ8/2bBfagextrdip/4EcL+tW7Pw9pFk263063En99k3t/30cmtYAAYAwKAOdF94juji20m2skP8d5cbm/75TP8AOkfR9XvCPt+vTRoesdjCsQ/76O5v5V0lFAGBF4U0lSGntmvJQPv3cjTH/wAeJA/AVpHTrIRPGLO22SKEdfKXDKOgIxyB6VdooAgtbaC0hENrBFBEOiRIFUfgKZHZ20SyLHbwokmd4VAA2c5z69T+Zq1RQBTaxs2a3ZrWAtb/AOpJjGYu3y+n4UJp1kkciJaW6xytvkURKA59SMcmrlFAECW8KyySrEgkkxvcKMtgYGT3pYoY4WcxoiGRtzlQBuOMZPqcAflU1FABQeKKyfFBQeH7/wAzT5NSXyiDaRfem/2RQBaS/tH1GWxSeNruKNZXiB+ZVYkAn64P5U3V76Cw0+W4uLqG2QYUSzHCKzHC5/EivmG0tRp83iCTUbPTIr+O5kDW5jikSLaoIjUtMjbR0+6e55r1TXNMtrnwBpVqul6qumz2f2m6XSpo4YvmUMwfzD06kelAHd6HFY6Uy6Qt0kuotGbubcf3kuWw0hHoTx+lbteBfB+aW+vk1VYvFF1erKLeeR7mLyxCCTEHVjuKhGB46nJFe+0AFc38uqeMs/eg0iPHt58g/on/AKFWrrOoR6Zpk95KpYRLlUHV2PCqPckgfjVbw1YSafpUa3WDezMZ7lh3kY5P5dPoKANisDWht8TeHpPV54/zjz/7LW/WD4lOzUfD8v8Advtv/fUbr/WgDeqnqdlFqNhPaXAzFMhRvUZ7j3FXKKAOOsrU63pZtLyZodb0uTyhdJ99GA+WQeqsuCR0PNaejas88smnarGINUhGXQfdmX/npH6g+nUHiq+vg6RqkGuRD9xgW98B/wA8yflk/wCAk/kTWhrOkQatBGfMaG5iO+3uovvxN6g9we46GgDhvg0D9s8QvN8s73JO09doJH8wa7bVPD9jqMnnsj296Pu3Vs3lyj8R1+hyK81+EV21v4u16wupITctIxLYwXYHnb7dTivY64svf7hL1/M9rP1bGyfdRf4I5n7RrmjkC7iOrWY/5bwKFnUf7SdG/wCA4PtWtpGrWWqwGSwuFl28OvR0PoynkH61oVj6poNnqMguCHt75fuXVudkg/HuPY5Fdp4pJ4kuZLLw7ql1CFMsFrLKgYZG5UJGR35FfO1vc+XNHqFhdy3+voEvtMhWyeHzLmdibiIL/EoXHzdADXuF74m07w8i2PifUle4Zc+Z9mcK6E4G7AKg9jVnS/EmgahqE1rDdWiXtncPZLHIyLJuGMhBnOO3HpQB474jhi1Pw94JtvD6zald29pcbEiUBluUMLMJFPQBs5B9a5fR7LU08cWkE+nT7o7xb2V/Inz5JmPGzbjGOOmOOte3XXxF8GWGpXMUl1ElxAGfzFtz87nIZVOOX+UZHfitKDxl4fm0GXxJDJugjVY5G8vEi5IOw57jd0z60AeV+Nxp2l+IfE9pZu2l3MElvf2NwqAxicRndGNwPzvv42gkHBqx4SiTVPDvjO9n1G9tdbZDN5UoSO+ijjTK+YQoyGYA9OmOa7/WfiF4OstUltr++tmurSWNSdobYznbkH2x83oKu3/izwxb61LZXd1ZLdtZGdncp88f9zOck4wdvcGgD5mGpKiNcwXbJqf2eOf7elxGLl5G4YGQSZIxj5eSPSvqGLw5ctBBBLr+qvaxoFCh1Ej+7yY3E/lVfw54n8K+JoLeDTLixleaLeLRlXeqgdCvbHpXXUAZul6NYaWWaytUjkb70hyzt9WOSfzq+yq2Nyg4ORkdDT6KAOc8WeGLXxFahZSYriP/AFcqjlfY+oryHxB4T1TQoZbi7hV7WPrOjArjOBx1Fe//AKV5b8W7PWtYhMNpCItJtSrSPI+3zpCQBgdSBn+dd+FzGtho8sdV2Z4+YZJhsdLnmmpd119Tm9I8D61qJRjALaBgD5shHQ9wBya9b8MeHrXQLDyLf5nbl5GHLH/Pas74fJqlno66XrsGy5s/kjkDbllj7EH26flXW0sXmFbEq0tF2Q8vyXD4B80LuXd/oLRRRXCeuFFFFABRRRQAUUUUAFFFFABRRRQAUUUUAFFFFABRRRQAUUUUAFFFFAH/0/onwBFFD4N0iOCfz4xAuH9e+Pw6fhXQVynwsZH8BaQY124iKke4JB/lXV1jh3elFrsvyOzME44qqn/M/wAwooorY4wooooAKKKKAI5pUhieWVgiIpZmPQAdTXPeGIm1C6uNeuVZWuR5dojdY7cHg47Fj8x/Cm+IWOr6jDoMJbyiBPesvaIHiPPq5H5A10qqFUKoAUDAA7UAOooooAKKKKACiiigAooooAKKKoanqthpkYe/u4oAfuhm5b6DqfwoAv0hIAJJwBXODWdT1LI0bS3SI9Lq/wAxL9Qn3j+lIPDb3wDa/qE9/wBzAn7mAe21eT/wImgCe88T2EUxt7TzdQuxx5NmvmEf7x+6v4mofL8Q6k37ySHSLY/wx4mnP4n5V/DNblpa29nCsNpBHBEvRI1CgfgKsUAYdh4a060n+0NG91ed7i6Yyv8AgT0/DFYXi61aLUvPA/dzAc+44IruK5nVLhta1T+yrIKbe3YNeXBGQh7Rr/tnv6D61wZjhPrdBwW+69QORorZv/Dt3bEtCBNGOcrwQPcVT07TbrUYo5rWItBIMrIThSPWviZYDERlyODv6AQWkD3NzHCgyzsBXd3+jadqNsLe/soLmMKFHmICR+PUVhT2cvhuCHURtmijfF4NvKxHjcv+6eT6jNdbG6yIHjYMjAFWByCPWvrcowEsJTcp/FL8AGWlultbRwRhtkahV3MWIA6cnmp6KK9gAooooAKKKKACiiigAooooAKK4TxD4t1vTPFlnotn4djuxe7zbTtfLHvCKC5K7TjGfxrMv/FPjS18T2WhrpWgyXl5HJMm27lwkafxP8vGc4HvQB6dRXBeIfG6aH4h8M6bqV5p1rNd+Yb9DLnygIiVwTjALjAJHNcRqfxlv7fV7iSG20l9PscRSwLqAZ7lnxseNtnRedwxQB7pRWT4a1Uazo1vfj7NmUHcLecTICCRgOAM9PStagDjNR8I6X9i1K1e6NvLq108huDHE0m5xyiFlPYH3FWNT8F2OqWmm2N7c3z6ZZxLF9iWXbFPtxgyY5bp0zj2qdx/aXjNRnMGlQ7sdjNJ0/JAf++q6SgDmdR8JWN1q9pqdnJPpuoW4VDLZuE82NekbrjDL25HHaumqvfNssrhs4xGxz6cV8nsjyrpym7ktitpa3Ds90cztJHubdvnTjJ6KKAPp7UdPm1HWbJpto060/f7c8yTdFyPReT9celbVeB6ZbPqHhTwVElu0pvLq7kltxfSwJKyowBMgZiAAoPBI496xdEZb3T9QvLW2Eb2mqR7ZU1md3iiMyKuIzw6HkB++fagD6WrnvGR2W+lS9o9Rt2P4tj+ta93eW9oYvtUyRedIIo95xuYgkAe/B/Kuf1rUtH1uKPT4NZsluTcqyASKxLROrMuM9eg/GgDqqKr3lzDZWk1zdSrFbwqXkkY4CqOSTUdjfWt+sjWdxFOsbmNzG2drDqD6HkUATzwx3EEkMyB45FKsp6EHqKwPDE0llNNoV2xMtoN1s7HmW3J+U/Vfun6D1rpKwvE1hNNDDfaeoOp2LGSEZx5g/ijPsw/XFAHnvhzSftfxA8SWF6nlxlzPBJE214yGwHQ+td5p2q3NjeR6XrxUTPxbXgGI7geh/uv7d+1cJ4DvIr34paxdR/OJoQ0e7OYweSuPY8H3r1LU7C21GzktryJZYXHKn+YPY+9cWB/hteb/M9nPP48Jd4Q/JFyiuVjvLvw7Kltq8j3OmM22G+Iy0Xosv8AR/zrqQQwBBBB5BFdp4x5l8Ur5J9STQ77XotH0y5sHmlYwrI8jCRQFUHnPsPSuU+HtpaR/EoaTJd2N+2kpPdw3rIqy3cswQlTx95CXyOSNwr2i90iwvbgz3VnBLceUYRKyDeEPUBuo6npVGHwloUVnp9rDpdvHDp8ontgowY3H8QPXJ756980AfNniHTL688SX5kt2neC9JcxRNJiQZ3guttg8kH29+tdNFbXs3wVvEk060v4xdACSRggtnDBXfYY0Yc8Y5PPWvYrj4f+F7m7ubq50e2muLmQzSyPuJZj1PWifwloNnoAsE0syafBMbtbWJmOXznON3PPbp7UAeDeLLC703WNWjMk7ixa2EogEwjLKiOu0qNqKpY7QegxWx8TrCSfX9ThsZRIDbWdjP5yqWmYRTSktJtLBsKpJGM5weK9YPhfwf4oe51OTS7S8uLhh50siESqygDBzypAA44rSk8I6HJqp1GTTonvCzMXYk5LIEJxnGdox9M+tAHlnwYv9T/4Sp4NTvpJI7mAybGhEcTSeXCy7Djltu7IB4xnAzXulcxofgnQdFvYrzTrIx3ESlImeeSQRg8EKGYheOOK6egAooooAKwPG3Ph9l/v3Fuv5zJW/XP+MznT7JP79/br/wCRAf6UAdBRRRQAUUUUAFFFFABRRRQAUUUUAFFFFABRRRQAUUUUAFFFFABRRRQAUUUUAFFFFAH/1Poj4e7B4L0gRKVQQKASMbsfxfj1/Guhrmfhsjx+CtKWRizCILyc4xxx7cV01Y4f+FH0R14/TFVP8T/MjlJEbFSoIBwW6A+9efT+ONR0bQrseIdORNcWb7LYxWzbo9Qkb7hi745G7PSu61KwttUsJ7K/iWe1nUpJG3RlPY186u+lWGgXceiLCviXTdaMVsoZgYYGu1UIW/hDHj1xntWxyHrng3xTdvPc6H4rEUPiO0UylIVIS5iIyHiHfHQjsRWD4n+Kf7hofDOnatNq1vJHJNaTaZLl4SeR0+UkZwT6Vp2GktH4n02+8canb3etzsw021giKw2zKpLbD94nHUsefTpVH4q6ivhPXNL8T2EkcupFfsU2mg/vL6EnICAc7lPIOO5oA29H+JGkapqq6bbWesreFkV0k0+RfK3dC5x8o9zXUazqEWladPeTDKxjhR1djwFHuTgVxvwdaC90O81s3sF3qerXBub3yj/qWxhYcHkbFAHPvW2D/bviTg503Sn/AAlucfyQH8z7UAXPDOnTWdlJNfENqN2/n3LejHoo9lGAPpW1RRQAUUUUAFFFFAGPrWvW2jSRJc29/KZASPstnJOBj1KA4/Gq+n+KtNv10drR5pE1Qyi3YxleYwS24HBHQ9qwvHmhazq2tWE+nLFPp9vBIkkDajLaZkYrhiYwc4C9/U1ieFZre4Hw9ks7JbGDzL9RAsplCkK4OHPJyQTk+tAHT33xC0KyuJoJv7QYxXH2QvHYzOhlzjYGC4J9hVm08X2upWtw+kWeoXlxBMLeS3Nu0Lo5UMN2/G0YIOfevGdbsr+9aW9tLO8ls7rxORBNHqpiSQ+aVwsYGFOVPz16L8IIJ7a/8YRXUUsMy6jHuSW5Nyw/0ePrIfvf06dqAOlNpr+pEG8u49Mtz1hs/nlPsZGGB+A/Grum+H9N0+UzwW4e6P3riYmSU/8AAmya16KACiiigAoorF1/VWslitbJFn1S6ytvCTwPV29FHf8AKgCDXL+4kuV0fSWH2+UbpZsZFrH/AHz/ALR/hHr7CtLSdOt9LsY7W1XbGnJJ5Z2PVmPck85qHQtKXS7ZgXM13M3mXFw33pX9fp2A7CtWgDD8Y3TWvh+5EJAuLjFtD/vyHaP55/CtPT7WOxsbe1hGIoI1jUewGKxtV233ivSrHqlqr30o9/uJ+pY/hXRUAMkRZEZHUMjAgqRkEelc54ddtJ1CXQbhsxqplsH/AL0OeU+qHj6EV01Y3iTTZb2zSWyKpqNo/nWznpuHVT7MMg/WgDZorP0XUY9W06G7jBUtlXjPWNxwyn3ByK0KACiiigAooooAKKKKACiiigDw/wCJlzpEHxP0Wc6hqlzeQpMZrOwndnjcIvloFXOzeevqOtZt74T1zWPH9peavqEtj4j1DT57q3EEh2WJjdPKj4+8Bk7vXJr3mK1t4biWeOCNJ5ceZIqAM+OBk9TVGfRLafxJZ627SC7tYJLdFB+Uq5BOR6/KKAPL/FesWsPibwJL4j0+J9djWV76ytohcSjMLKnAHIL8j0/CvOb6e4S+1i3uYbtb9b14Uj8qfKtIzGFflYKCR0GK+m9S0uG+t7pAXtZ54vKN1bkJMq9sP1GK55vh3of9gf2ZF9siBuUvGu0uD9oeZekhkPJNAGh8PQ6+CtFjuMC6jtY0uF43LKFAcNj+LdnPvW9NIkMMksrBURSzE9gOTWb4Z0O08O6WLGxaeRPMeZ5J5N8kjuxZmZu5JNYev67aarp9zpFrNtv5roWEkROHQFvmbHpsBOaANLwZEzaS9/KCJ9Rla7bPUBvuD8FC10NQWxhEfl25QpF8m1TnbgdKzNY1yOxmFpaxtealIMx2sR+b/eY9FX3NAC+KJUOkT2Qultrq+Rra3YruO9lIBA746/hXFyfDafz7IC+gmtori2ZxNG2UggA8uKMA4GTu3MeTmuw0jSZYro6lq8i3GqOMAqPkgU/wRj+Z6mt2gDzHXPhteX+j6dpdvrIW2srmZ42niZ2EDrgRHDAtjJGcjIqHUPhtq19NYPNrOmgWQjjjWDTfJ/dK6t5eRIePl4yDivVKKAPG/jzdzLfeHre1ivZvKmNxcLHcGGMxgMMZ6bz82PQA+teT+CXsj4v0PzhaB0vkkuElS38tVc84IHPQYAPHavqPxJoia5b28UlxNbNBMJ45IguQwVlH3gR/Fnp2rmE+Gfh/T44Lq2a4tb+2kM8moBgZZeQW8zIKlTjpjjtigDkPFGn319qmt6J9h1JZHs5brzW1x2j8ti6qfLxg8j7npXa/C3StJtdGg1PS57h7jVLWG4nWa5aQk7cbtpPB4Iz7Y7VctvA3hua+TVpLRr26ciVJ7mZ5cDO5cAnAAJyBjipfCvgzTfDOp6heWDTs13hVjkfcsCbmby4/RdzMce9AHU0UUUAeLaRfw6R8ZdWDI8VpO+xzgBUc9CfYnP517TXk+lWkeofFjxHa38XnwNB5fsqt2OK7XQLuazum0PU3L3ES7radv+XiEd/95eh/A964sCvdl/if5ntZ406tL/BD8jK+IPim+8P3+i21jp9xci8nKSMI1ZCNjkJksMHIB+gNcp4f+IXiO9utAWa10v7NqNysBMcTqAM/NtYyEdNxXI+bacZrS+K+knU9c8PBbXVtREcjyPZW5ZISqo/zFxgK+4qBk9O1ct4a8F+IdJ8YG+n+3XawyWzz2y3Tqm1t2AjnAfyuBg9QTXaeKaWvfE/WdPkIt49GngHmFJk8xhKFdgBjIKEBSCDnkehq/cfEbVJNA8Saha2OWsrdGgSNQ/lsWlUu+SMr+7B9s965LxRoGta3q89+ulXvlu09xPClsI/Lg3MibTx5kpGXK9cY55FWLrQbr/hF/Fltaf2ztkSGOEw2ckbXLlpm8sqy52DzFyRxx1oAteIvi7q1pd3MVnaWMYS3hYJPN+8WQyAOGUAjOP4c8DnJ6Vs+Ivifd6RrlkwsrebSn0z7ZJsuo8yFiADEWIL4IYbQMnqK5nxboGp22oarb6bpuqtbQWUCWhhjmkVGEXzYYSqM7uuQ3P5VoeKdFvNc8R2EU2m3zMIbC2SdYmG3bmWZvM/hxuUZzknI7UAb/gnxnrGvGPTrpdGi1OSAStPFdhmwy70Ii2/MMMoOG9a7TStbaW5Gn6tCLLUh91M5ScD+KNu49uorx74VaLPpHinSHj0q4jPliKdWspY2jbyFWR3lZQpG9OACc7s17hqum2uqWxgvYg653Kw4ZG7Mp6gj1FAF+iuXh1C60KZLTXJDNZMQsGokd+yy+h/2uh9jXTg5GRyKAFooooAK53xhlv7FQfxanCfwGT/SuC134pXen61rtmliYVs5rWFHvY9scIkOHeQqxbByCuB0ra8IeOptYu9ajmFnqKafBFOj6UruXLlwUCvglhtH50Aei0V5Ja/ELxA8lrp0nh7U/wC0obkPelbPP+iZba6pu4ZsAYzxgnmvVoZPNiR9rJuUHa4wRnsR60AS0UUUAFFFFABRRRQAUUUUAFFFFABRRRQAUUUUAFFFFABRRRQAUUUUAFFFFAH/1foH4YMW8B6OxZ2zD1Yc9TxXUVzfw3JbwNoxJz/o6gc9hwP5V0lY4f8AhQ9F+R2Zh/vdX/E/zCuSn8A+H5dDvdKSzMFveT/aZpIXKymXfvD7+uQenpXWV5x8U/iCPDKDT9MCSarIu4luVhU9CR3J7CuqlTlVlyQ3OGc1BXZp6X4A0zTdUXUZNR1i8vI4nihkvL1pfJDjBKZ6H3q14Y8EaNoNw17Ak15qTjDX97KZpj9GPQfTFfM+o61qepztPf39zPIxyS8hx+A6CrmgeLNa0K4WSwv5go+9FIxeNvqpr0XlM7aS1OVYxX2PdfGXhjTYdTtdT0hJLHxFczqkT2kpiE56kyqOGUDJPGfeuz0bT4tL06CzhOVjXlj1djyWPuTk1xnw41yPxfcXGsXPlrdwKLdLZTnyVIyzc/3j+gAr0DIzjPNeZOEoScZLVHXGSkrodRRWPqfiHTdOfyprgSXJ6W8AMkp/4CuTUjNiop5YoIjJPIkcajJZ2AA/E1z5ufEGpYFlaRaXbHrNd/vJce0anA/E/hUkHhi0aZbjVZZ9UuByGum3Ip/2UHyj8qAGt4niui0eh2lxqkgOPMjGyEH3kbj8s03+zNa1Nf8AiaakLKE9bfT+Dj0Mp5/ICujRVRQqKFUcAAYAp1AGHP4Y0mfSTpstqzWZfzGXznDM3qWB3H86mt9C0u3XTlgs4o108Mtqq5AiDLtOB7j1rWooAyodC0yHTrWwjsYBZ2riSGPbxGwOQw98knNLoei6bodtJBpNnFaxyOZHCZyzdMknkngVqUUAFFc/4h8RQ6ReabYpE13qN/OIoraNgG2/xSH0VRyT+FM0zxNBcaprGn3y/Y7rTWLskjg+ZBjKzL/snnPoRigDo6K84074o2GpEw6XaPqF697LbQwW0ijciAkSFn2gAgE4rV1DxjJoul29zrmkXEdxPJIq29m6XBVVXcWZsqBwDmgDe1vU4tJsxK6tLPIwjggT70rnoo/x7Cq+gaXLbNLfai6y6pdYMrjlY17Rp/sj9TzXG2XxCtbq4N3qPhnU45IGAiuEWOUJBI21JCQ3y7iD0z06mtC5+ItnYa9d2GpWjWtraiYveNOjKPKVWI2g5BIdcD3xQB31Fcj4E8YReKI7mOa2+walbkNJZvKHYRsNyPkdiCPocitvxHf/ANmaHe3Y+/HGdg9XPCj8yKAM/wAM7bzUdY1XqJp/s0R/6ZxfLx9W3mujrN8P2I0vRbKzHJiiAY+rdWP4kk1pUAFFFFAHL3P/ABT+v/axgaZqTiOf0in6K/0boffFdRVTU7S3v7Ka0u1DQzKUYE9c+nvVbQY76DTo4NTZZLiEmMSqc+Yo+6x9CRjPvQBqUUmRuxkZ64pFZXXKkMPUHNADqKKKACiiigAooooAKKKKAMzW9Wt9HsnubtsIOAo6sfQV5Zq3jnVryQ/ZZBaQ54VAC34k1L8TNRa619rUMfJtlCgf7RGSf6fhXIV2UqStdnwWdZzWlWlRoy5Yx003b66nR6f4y1uzkDNdG4TukwBB/HrXIeNbp9R8R3GqWkE0IlVHcqDhHxg/MPp+tXK0fD1+2m6vbTj7gYLIp6Mh4INVUpJrTcwyvOq+HqqNWTlF93t5nYfDaLUNV8IWsVrewWNmpZZXtxuuJHzkkseFJz6E4rvtI0mz0mFks4trOcySMSzyH1ZjyTS2Gl2VlNLPZW0UDzYMnlDaH9yBxn3rQrhP0TcKKKKACiiigAqtqMfm2F1H/fiZfzBqzTXGUYeooAyvCUnm+GNJfOc2sf8A6CK16wPAjZ8I6cv/ADzQxf8AfLFf6Vv0AFFFFAHl3hvCfF/W9lwn7xSWiXknHHPp/wDXru9f0v8AtO1TypDBewN5ttOOsbj+YPQjuDXD+FYZ5fi14inEaJDHgMO+TwCPrg16PeXUFnbSXF3NHBBGMvJIwVVHqSelceC+CX+J/mexnbXtaf8Agh+Rn6Bqp1KGSO4i+z39s2y5gJzsb1Hqp6g1r1xmp6v4dmv7TU7XxHpVtdRkoZPtUZWaPujfNz6g9jWzJ4o0KOOCSTWdNVJ8+UxuUxJg4O05554rsPHNqopldonWJ/LkI+ViM4PrjvUEF9az31zZRTo91bBGliB+ZA2SpP1wfyqCTXNMjS4aS+gVbecW0pZsbJTjCn3+ZfzoAoWWtT2t2mn+II0t7lzthuU/1Nx9Cfut/sn8M10VYepajod5od7PfXFrNpcLNHcOx3IhU7SD6EGq+jvBpt/JpR1dLnbEs8UExzLFGTgZbPzLkcZ5+tAHSUUxHVxlGVhnGQc0+gCKeGK4heKeNZInG1kYZBHoRXMZn8KtiRpZ/D5PDnLPZex7mP36r9K6ymsoZSrAFSMEHvQA2KRJo1kjZXRgGVlOQR6ipK5JhJ4TmMkYaTw+7ZdBy1mxP3h/0z9R/D9K6mN1kjV42DIwyGByCPWgDwXxF4Mns9Y129ht9TvdRGoafNHfQxZlffIWkKA/IduFGDkDA6Vrabb3Q1TxNPrln4pvYZLSzRN8Sx3MjCSX5UMOFwCRnnjPPFe0Vk3t9LD4g0yyj2+VcRzPJkc/IFxj/vqgDx6LwBrNpdHxHPa386TsVm0aLUZPPitwBsKybvnkB3EqTj5sCvZPDrQvodi1tFdxQmIbEuwwlUej7uc/WtOigAooooAKKKKACiiigAooooAKKKKACiiigAooooAKKKKACiiigAooooAKKKKAP//W+hfhunl+BdEXCj/RlPy9Oef610lc58OlZfBGj7zljbqa6OscP/Cj6L8jrx/+9Vf8T/MZIwRGY9AMmvkDxHqUusa9f38zFnnmZh7DPA/AYr67u4RcWk8DcCVGQ/iMV8eapZTadqNzZXKFJoJGjYH1Br3cpS5pProePjL2RVooor2zhOy+E+uroXjCGW4m8qymR45yTxtwSCfoQK7/AMOeO7vWvHNy9tbLKJoTDZQyTCNUAIJLHnk47DPauA+EmmNqXjrT18sSQwbppcjI2gHr+JAr6DuPCOg3EyzNpVskysGWSJfLYEdDlcGvn80t7ZW7Ho4S/IQ/2NqeoZOt6o6xnrbWGYkx6F/vH8xWtpml2OlxeXYWsVuvcovLe5PU/jV1V2qBknAxknJp1eadQUUUUAFFFFABRRRQAUUUUAeTfFGz04a0h0m7u7LxTeBPNuba5eIQWqkb5ZSDhUCqcdMn1pfC2mWuo+J9dvdH1CfWH02CKPTry7u3nWO4ZJN4D55XlMjkcetepPDE5cvGjF12MSoO5fQ+3NEMMNvHtgijijHOEUKP0oA+evB/he3ufENzpF5PcajBZzX13eRS8xLKCY0cdwzEscf7Nb0dtBp/we0NLS/sNJN9Ck0005lMskm0HMew7i3AyOQR2r1HRL6PUri7lsrVFsVbYtwMD7Q2fmIGOVB79zmtUW8IEYEMeIvuDaPk+npQB8/+B7zxB4e1KW41K203R7S/WGGK4vrCSOKZULHPytiN2LM2GA5P4VT8e2LWni64lkMccjPdXQtr6WCdeQrAlAvyB2RFG4/lX0hLGkqFJUV0PVWGQaYYITI0hijLsMFtoyR6ZoA8b+DB02bxRfFY9OivLS1WCL7MigzAuzNJlQM/KY1PuK9H8SYvdU0bSzyrz/apR/sRcjP1YpXQJFGhyqKp9hiuf0gLe+KNWv8AqtsEsIj6Y+Z/1YD/AIDQB0dFFFABRRRQB5D8cNZvtP1TwzBpl5J5pu1na3htBM6hc/vOoz1wF78+lcV4eu9w0C5F3atfy6sivINYlNyymYghrY/Kox1GeBXuniHQF1W80y5iMcU9pdxTvIUyzom75M/Vs1xlj8N9Ut49PjfW7Z7e1v1vPJFgikgSl8eZ97PPegDkvH/iOXTfEp1ix8SSWs00g00xtpEqqsLPySx4dk5II5Neh/CaSODQf7Li1GS+SyCqjvp8lqQp9d/3iTkk+9S/8IUdU1Ge88YXy6sGWSG2tRH5UFuj8HauSS+ONxOR2rT8K6NqWime1utXbUdNQAWomj/fxD+6zg/OAMYJGaAOkooooAKKKKACiiigAoPSiigDwrxrbyW/ijUFlzl5N6k9wRkViV67498MtrEK3Vnj7ZEOh43r6fWvJ7mCa1laK5ieKVTgq4wRXfSmnE/M85wFTC4iTa92TbT9SKpbWF7i6hhiGXkcKo9STUagswVQWY9ABkmvRvAHhSWGddT1OMxsnMULdc/3iO3sKqc1BXZhl2BqYusoRWnV9kejRDbEo9ABT6KK84/UkrKwUUUUDCiiigAoorM1vV7XRbMXV+XS23BXlVSwjz0LY5xnjNAGf4DGzQ3iPWK7uU/8jMf610deeeFvFmlpd3On2cpvLq71KVoI4QSNjHdvJ6BQM/lXodABRRRQB5foEzyfGXWYyTGscWAoyNw65Pr1rtvF9ndX3hu/tbF4UnliKBpwxUDv90g5xnHPXFcX4ZbzvjF4gkz92IR457YH9K9B1O1a+0+4tUuZrVpUKCaHG9M9xkEZ+orjwXwy/wAT/M9jOtKtNf3IfkfM1pbX/wDwi+j2msKkFpdg3KSRjY940ktsQ7sckkGRgMY+70rV1h/tVpoDatJHLbm2KXQl2rJNCNQVSF6fNjb05IBr2BvAOjzRaXb3v2q8sdNtlt4LSdwYuBjeygDc2PXj0FQH4daS0EUTy3cnkWktnbvKys8Cu+4FGK5DL0B9PWuw8c888L6TZ2PiK31AaQk9je61Na2d4NSn85Uj3bfk+6ygo2Mk9a5XWLEXlrrd0IbqGxfW1ii/tQq7lygbBEjDy+F5J6hgO1e92vgvTrW+0iaGa7W10pNtpZ7x5KNtK+YRjJbDHkn3rNTwZpGoWVzaf2lqE0y6l9vnmSYJN520qASAMDae2OnWgDyTS9IiuPh14itkNq0kmq20SpGiqhkeRSQWic702uRt7AGucXzraWe4n0rSjGJFdHvgzxqm2fEMYZixQmMkZIO7619Bx/D/AE6O2mhjvtUUyXi3wlacO6yqmxTlgcgcMM55A+lV5vhjppFqLXUdRtfIgSDKGJy+3fhzvRsN+8fkY60AakWjT20EGoeH2jtbl4kMtoc/Z5sKOMfwnHAYfjmtLRtbh1CV7aWN7TUI/wDWWs3DD3Xsy+4q7pVjDpmm2tja7vItolhTccnaowMnueKr6zpFtq0aeeGSeI7obiM7ZIm9Vb+nQ0AalFcvFq15ojLB4hAlteialGuF9hKv8B9+n0rpY3WRFeNgyMMhgcgigAZQ6lWAKkYIIyCK5eEnwtfR27sW0O4fbA7H/j0kP8BP9wnp6Hj0rq6r3trDfWk1rdIJIJVKOp7g0AWKwL35vGmlj+5Zzt+bRio/D1zNZXkmh6jI0k8K77ad+s8PbPqy9D+B71JId3jqEf3NOc/nIv8AhQBv0UUUAFFFFABRRRQAUUUUAFFFFABRRRQAUUUUAFFFFABRRRQAUUUUAFFFFABRRRQB/9f6G+HSRx+C9LWASCMRceYcnGSa6OsDwDKJvB2kusflr9nQKuc4AAArfrKh/Cj6I6sdd4mpf+Z/mJXmHxT+HR8QOdT0gompBcPG3CzgdOezfzr1DrSV00qsqMueG5xzgpqzPj3VNE1TSpzDqOn3Nu/+3GcH6Hoat6D4U1rXZVTT9PndScGV1KRr9WPFfWxUEcgEUuK9F5tO2kdTl+pq+5x3w68GQeEdMZd4mvp8GaYDA9lX2H612PvRRXmTnKpJyk9WdcYqKshaKKKkYUUUUAFFFFABRRRQAUUUUAFctqU0niC/k0mxdk0+E4vrhDgsf+eKn1P8R7Djqan1y/uLm8/sbR22XbruuLgDItoz3/3z2H41q6ZY2+mWUVpaJshjGB6k9yT3J6k0AT28EdvDHDAixxRqFVFGAoHQCpqKKACiiqMmp2EUskUt7bJLGQHRpVBUkZGRnjigCTUbuOw0+5u5jiOCNpGPsBms7whZtZaBarN/x8TA3Ex/23O5v1OPwqTV7aHXtKa2iuk+zySJveNgwZQwJXIPfGPxq9FcQPLNFHLG0kDBZFVgShIBAI7ZBB/GgCzRRRQAUUUUAFFFFAGZrunDVNNktw5jmBEkMo6xyDlWH4/pTPDmpNqdhm4QRXsDGG5i/uSDr+B6j2Na1cxredE1aPW4V/0WXbBqCjsv8Mv/AAEnB9j7UAdJLIkSF5XVEHVmOAKz7zXdJsI1e91Oxt0Y7VaWdVBPoMmqvjCO1n8NXi3mmPq1uUBNpGiuZORjAJA4OD17V8/eHLTTf7A8ISHRFtCItQeSaeFCtwywsVcdc7enI6igD6N0zWdN1VpBpeoWl55eN/2eZZNuemcHjoaju/EGk2mrQ6Xc6hbRahMhkSB3AYqOp9q8x+GlorapqywOunS3Ph/TpZJ4I0QpIySEyYxtznnpXi2qzLbHULaaa51LV5bvZLeSx291F5bPtU+aclWK44yACaAPseKWOaMSQyJIh6MjAj86lrxL4RyXeieK4PC8U13FpsNlLMbO7NuXV964YeWSect1Ne20AFFFFACVTvdPtLxQLu3imA6eYgarlFMmUVJWkrozrLSLCyfda2kETf3kjAP51o44oo7UN3FCEYK0VYWq893bQMFnuIYmIyA7hT+tWK8K+McAm8T38yWsM8kVtYRGR4FlMSvLPuxlHxnA5CntSLPbIr60lcJFcwO5/hWQE0fbrX/n5g/7+Cvnf4U2kUWrailtBDJawaTcMk4hUskmdp/eeTGc43DGT3qqsFpa3XheI2Hhc26WSTXUzaa0iwiRAsf2pgepOSDxg8nigD6YikSVN0bq6+qnIp9eb/DvS7o+H7u3sL5NNWHU7pWSzhXyz8/8AbOF9K6b+wNSPXxNqX4Rwj/2SgDoayNevtLt7KWDVpYRDMhVo3PLA9eOtcr4vF9oeneaPEepvcOdsaFYQCe5PydBXnNzPLdTNLcyvLM5yzuck14Oa51HBP2cFeX4I9fL8qeLXPJ2j+Z0Pw8i0Pw5r+o3U95vUnyrNzG3EZ5JPHB6D8DXr1ndW95AJbWVJY26MhyK+e6vaZqFxYzqIbu5ggdh5wgfaWX/ABrzMJxJN1FGvFWfVX0O/E5FBQcqLd+z6nvwqCW5hjHzTRBugDOBk+lc/aeGNLu4Y5pZr29SRQwae7kYEH2zir1v4Z0S3kWSLSrMSKcq5iBYH6nmvsItSV0fMtW0Z4vP4r1DQ/HGvXk9lF/aWwJBaeZvUyNIihQRt3cMT+Feiz/EAv4b1PU7LRdQEthcC1khuwsRMnQ42ls4JGRXi9rbpPq+r2d5od1eahM0i26gETRTktsbHRcHkk8DFdZe2sp+EWraZq8F7Hr2mzG5v0aJXFxJK5+dGKMCpDHBUZGMVx4H4Jf4n+Z7WeK1amv7kPyLGn/GPWLm6trZvD0JmiYJeESOAxYfLsyvyjPXdn+tdb4n+IR0LX7qwOnyPHFYfaQ7r5aNJuAA81iE2YPX146mvCx4V+zzWjyJMy/aIUwLJ1xkhM5e2C8A9zg9etekeMNIaXxJ4gcX19ef2XoDiFBH5aQSY+VflADnGW9j0xiu08U1vBXxWm1/UGtrjTYVIsEugttdxvI77WLKq7sn7vA6jndVKD4uXZtdLZtDJuponvLkNIkam1GdrxkueTlcg+/XrWB4ME2japqF29neFY9FnmVZYbjJkG0Db5qjk5I+X1rktT8NQR2K3CQTRWiH7GT5bRxGdbRclsDPMm4E9DzQB9I6D4ji1NIFvIPsF5NuMcDzJJvAOCVZSVJ9s5FdFXkvw/8ADVlr/gqGGV7u2S2uZlja1Zo4Wy5fdGrDoN20EgH5a6C+j8V6BsNpdpq+nKMN50OZ0HvtI3D3HPsaAO6orkNM8U3dzbedJpZuYOjTadMJtp9Ch2uD7YzWvp3iLS9Rk8m2u0FwOsEoMcg/4C2DQBqyIsiMjqGRhgqRkEVzUuk3miuZ/Dv7y16vpsjYX6xMfuH26fSuoooAy9H1m11RGEJaOeLia3lG2SI+jL/XpWnkZx3rI1nRLfUZEuEd7W/i/wBVdQ8Ovsf7y+x4rzXxP47vNK8SaZaXL28r2MxNzNbNlJUYYwV/hYDJI55xQB2/ji4s7e0ime9t7TUrU/aLQyyBN5HVOeoYcH61l+EvEtt4n8a3Fxp6uLeHT1Ri4wd5fJH4dK1fFd3oV7pn2bVFS6jlUOiKMsMjhge31rhPArW/hTVNSkiSWa1uAqxbmAdACcg9j1FS5JbnRTwlaouaMdD2Sis3SdXtNTQtayZYfeVuGH4VpVSdzGUJQfLJWYtFFFBIUUUUAFFFFABRRRQAUUUUAFFFFABRRRQAUUUUAFFFFABRRRQAUUUUAf/Q9/8AhdMs3gPSWQY2xbW+oJBNdVXL/DFETwJowQkgwBjkY5PJ/WuorHDfwYX7L8jtzG31urb+aX5sKKKK2OIKKKKACiiigAopCQBknAqjPqtjb6ja2E11El5dK7QxE8uFxux9MigC/RVe6u7e1t3nuZ4oYYxl5JHCqv1J6VWtNX029jlktNQtLiOEbpGimVwg9SQeOhoA0aKo6PqljrFhFe6XdRXVpLnZLE2VbBwf1q8elADcgDOarTXtrAQs1zDGx7O4B/WvOvHfjKYXUmnaVJ5axnbLMp5J7qPT61527M7FnYsx6knJNaKF9z28Jks68FOcuW59HxSJIoMbKwPdTkVwFr43lu9W1XR7RUfVRdtDa7vuBAMF2PouCcdTxXn2lavf6VOJbC5eMjqucq31HSt/wH4L0nXRNqOpXVxPe+aWlhQ+WqsSTnI5IP1FTKLRz47LKmEXNe8e/wDmepaHpkWk2flIzSzSMZJ53+9K56sf8OwrUqvZW0dpbRwQKViQYUFi3H1PNWKk8wKKKKAILliLeUhmUhSQyruI46gd6+WtVK6hBHK8pjdb+d8321LmY7FVpJcspyT0UcKBivqyuLu/BVm0NzM13LFeC/k1KC7CgG3dhgjB4ZcDkHqKAPL/AARIlz8MdS0/TrqJb641iHyTI5VTIZEwpKliAfLIyfWtLU38STT+L21C20iytor6yub6ZLuRjEsaQv8AIPL+bKqOuOSa7i18F29x4Q0/ToNUuAI7pdQF9Aio8jbzJkDGBndx1xUGofDaO6tdTiPiLXd2oAfaC8kbCQhQo3DYM8ADgigDv1YMoYdCMinUyNdkarnOABT6ACiiigAooooAKinhjnhkhmQPG6lWVhwQeoqWigDioRqsFpeeHLG6ht7+FQ1jc3KGRXty2ORkZZRlfyNcRdeCNXtbGHwnp4u79Hj2vrF4qJDYwvkSJAo+bewJB/Cuw+JGuWGkrbTyGaPU7V/NtWETFX7Mhbphhwfwo+GPiObxENavrnEaeeojjJ4jTbwM0Ac38PLLXtLii0mbw/PEkFpcQ3d9cBGe5Csfs6I245ADH7wxzXDar4D18WXm6hpV8Ypg0ccMSpczgkcYjTbDCD03YYivoiTWLKNtpnXPsCas291BcrmGVX+hqnGSV2iFOLdkzy34aeDta8FXWm+RbW81lqNtH/aaMwEtrcKnLq38Sseo9eRXrVFFSWFFFFABRRRQAUUUUAFcZqvgi31LWbjUZb2482WaOdYiqmMNGm2Pcv8AEFYl8ep5rs6KAOG0jwBa6bDast/cNeRwXEE06qFFwszM5Dr0+VmJHpWHD4K07w5ph0ubxZqFrBcLsmDQW6RzfLg7iYjnj1Jr1WmSRpKhSRVdT1DDINAHPeBtCt/D2iGztL5r6BpnmExC5O45x8vHHsBXSVgTeFNNMxmslm06c/8ALSykMWfqo+U/iKhaDxFp+Wt7+01K3HJS7TyZAP8AfXj81oA4/wCK8jHV7WM/cEO4fUsc/wAhXD9qt+OvFa6v4ng2xCFII/s8mJBIpbcTkMOCOn61Ur89z/DzpYpzltLVH2eTV41MOoLeOjCiipbaCW5njhhQvI7BVUdya8SMXJ2R68pKMbs9N8K+IhY+HrMajZ3kdsqlVu0j8yPAJHO3JX8RXWWWp2N9CZrO7gmjAyWjcNge/pTNDsxp2k2toCD5UYUn1Pf9a86+L72UUVvY6fY20mr3TFN6LtkQYz1GDzkda/UIT+q4WLnukkfC0cPLH4v2dL7TfyXVk3w4u31Xx14l1CEQmzeXarKMFscA/l/OvUa4Pwf4MutF0O3Wx1W5s7qRA0ymNJE3H2Iz+tbATxTbn5Z9JvU7b0eFj+ILD9K0wlOUKSU93r9+pWbV6dfEydL4VZL0Stc6SiuR1rxW/hrR5r7xHbWtqqsiRKl0D5xJwQMgdBz9BWDe/FvS4HuwmnX88UEjJ5sbQ4kwW5UF8kEIxHHIFdJ5p6ZRXDeIPiDZ6HqX2C70vVGmdgIikaBJVKFtwZmC8YIIJzntSaR8SdF1K7SFPOgT7M9zNLcAIsIURna3PpKORxQB3VFeb/8AC2NFNnplxHBeTi9ikkIt4mlERQE7SVGM8fgCCeKtXXxM0e107QryeO7jXVWGEeFw8aYJLkY5UH069RxQB0mp+H7S8uftUJls74dLm1bY5/3uzD2INZWoW2ohDHrWmW2t2g6TQIFmUepQ9/8AdP4VU0n4k6PqV7NbQwai22cxQyxWkkiTKCB5gZVwF3ZHPpWufE4ORHo2sv8A9uuP5mgDG065ijcx+HtbaGVeum6ru49huw6/hkVt23iNYZ47XXIG0y5fhGc7oZD/ALMnT8Dg1TvtR/tOMx3XhO/uU7C4jix+rcVjTaJdSQPFYaJqVpC4wYv7RjMZ+qPuH6UAdrf6hYW80FreTRI11lY0kIw/t+Ncv4u0Hw9Zaa8n9jWRnkOxMR7eT34rzLx7Y6to+mW1jqdwrWwk8y2ikO+SP12uABj2z6cVHoXiXUr6wMOp3Bms7Fcq7jLjPAGe/TvUydlodGFjGdaKnsbkMaQxLHGNqKMKM9BTqByKK5j61JJWRPZXU1ncxzwNtdDke/sa9VtdQim0kX+Ds8oyMO4wOR+leR1v6jJpC/DG6/4SNpBYlmCBC+S/O0DZz1/CtKT1seTm1JOCqdU7G9ceP/D9ppGj6hd3iQRaoY/IjldVcK/R2BPCjHJ6Crnh/wAX6Hr0l8mnX9vI1lK0cg81OQuPnGDynPDdK+fbXT5W8I+EltLG6tmuHEsERso7mS5liXc0gLuNsZB+504ziuv+GunNJceLLTU0URNC1xeWdzpsUJbzQSMMjthfk+70rc8A9CPxD0EeF7zXnldLe0kaKWE7fOVw+zG3Pc479K2tO8TaHqdwlvp2tabdXLDcIYLqN3IHX5QSa+YLOOSwstA3aLYyPBDaXsYtbbP2sSyFVW5djgY28dskV6j8I77Un8UPa6hp+l28Mi3s0XlRg3EZS52FGccYHIGOwoA9oooooAKKKKACiiigAooooAKKKKACiiigAooooAKKKKACiiigD//R+hfhxI8vgnSWcxn9woGzpgDH5+tdJXOfDuF4PBekpNCIZPJBKDpz3/Ec10dY4f8AhRv2R14+31qpb+Z/mFFFFbHIFFFFABRRRQBznj3RF8Q+FbvTpJ3gSQo5ZOrBXDbRyPvYx1714Hd6RpZtNQuIdLtV23kMESXPmxXVnJJKo8oqXKupUnDqe1e++OIrebw5cre6RcaxDlf9Dt/vucjHcdDz1rydvhJeeIZ01B7DTfDccHzW+n4a5Mp9Z23Y/BelAHSa54W03wh4b8ZajojK1vc2CqlkczLG6hsN8xbOSw4x2rzlbo3j+ItM8PXmlWllfSwRXErBoTOkduMoiqmR5hEvIHY+tekeFPD13b2uraYmjN4a1PYm7UtOYTRXKA9I/MJwTzwRxmuWbRNcnuLy6Xw/r1wplszbTXk0P2kNAzuzON2MNvKgDtQBr/Cw6lp3isWlkdL/ALC1a1Gpizs3kK2qkBVkUuo++Rgp2616rrt2bLSLy4X70cLuPqBXmHwq0rV9G8TXou/D1/a2E0KW9rNcXET/AGeFNzbDt65ZjjA6Yr1PVbQXunXNseksbIfxGKaLp2U1fY+eGYsxZjlick+ppKknhe3nkhlUrJGxVgexFR10H6FHWOgV1nw21BbHxEqTSrHBcRlGLtgZ6j/D8a5Ouy+GmjR6nqU815Ak1pFGUKyKGVmbtg+2amWxyZk4rDT5u3/DfiexA5GRyKWuaPh64sGD+H9RltFH/LrPmaA+wBOV/A0f2/c6eSuv6dJbIP8Al6t8zQH3OBuX8R+NYHwp0tFVrK8tr23Weyninhbo8bBgfyqzQAVgeNXdtDayhbbNqEiWaH0DnDH8F3H8K365u4Av/GtpFkGLTrdp2H/TST5V/wDHQx/GgDfgiSCGOKIbY41CqPQAYFS0UUAFFFFABRRRQAUUUUAFFFFAFW/tra7tZIb6GOa3YfOkigqR+Nec2em2WlT3iaSrw2lw4fyS2QCARkfnXoGuMy6XOU67efpnmuHrswsE/eZ5+NqNWigp8MrwyK8TFXHIIplFdh5/NY7XRNQ+3Wx34EqcMB/OtLPavMr3xGfDNtLdpay3TMpUKgO0H1Y9hVP4ceJtW1V9VvXsbjU7x5FUbJEjjhTGQo3HjnPavMrRUZtI9nDTc6abPWqK55LzxJN9zSLG3/673hb/ANBU0pg8TSjBvdKth/0zt3kI/EsB+lZG50FFc3/YmsSf8fPiW6x6W9vFH/MGnr4YiYYutT1e49d94yg/guBQByfxC8bT6DceI7F7gWhj0lZ9PlETFmnJkBGcEcbU6+tXLTxidWk1w6dqMENhZ2EEqX0luxVJWL78g4zgKvHvWRr+jeJi/jDStJ0v7Vp2pQRwW0898FEf7na2Ack89ela9jF4rvNemnudNt9OVdLNtD5tx9ohaXzAcsq4PTP+NAHD6Z418SaumlvH4igUXUcJk+zWSHy3knWLad2fu5zXofhfxPeS+FNJuL2yvtRvp4S8j2sACkhivPIAPHSvPdU8DeKYLCOw0kNNLpSxyxagwSIzhWDrBEgJ4DZYs/ORivVPAsd1DoEcN3pg0pI5HWC18zeyRbvl3HJ+Y8ng0AKus6zN/wAe/hu4Uetxcxx/oCaf5viaVfltNKt/9+d5CPwCgfrXQUUAc4bLxNMP3us2dv8A9cLPd/6ExqO48Mz39u0Gq63fXMTjDRqkaI31G0/zrbnv7S3uoraa5ijuJVZ44mYBnVeWIHU470ul39rqdhBe2EyT2s6745E6MPWgDlIfhn4Xi5axeU/7crfyBFY/izwbp9hBJeQX0VjbqOUnJ2/RT1/Dmuh1vxha2uoW2mad5dzqFzL5EZZtsKPgnDP64B+Uc1ha94ctdYvVsda1+R9TELXciImCsQOP3Y6Iue/JPrXLisHSxceWrG5vh8TVw8uam7HH+EtIm8UG6/s+SJUt3CszkgkHoQMexrd8Z+CjpPhOTULK4mOo2jCZpUJXCdGAA9M5/CnfD3RW8Lahpl5Ldp9l1uLylifh1kwXQe/ANd3qWv6CbfUbe91G18uHbBcqXHy+YMBT9c1y4bKMLhZe0hHXzd7HTXzLEYiPJJ6HlvhzxHrHhuL7X4ln1OeGSES20bzAq6kZBw3JHTocj0rc+FmnprWpXviTUpILi8nbdHHvBaEZPBHbjH4VnX8x+IfiGPTdLA/sGwVAxZcZ55KnsccVtXi6T4fv7TTfEUkdu5iZrLU4CYpdi4yHK9CMjnoc1pD/AGqrz/Yjt5vud1a+WYX2G1Wp8XdR3S8m92em0Vy1udcs4EmsrmDXLNlDp5hEUxU9MOPlb8QKsxeKbFHEeprPpcx423ibFJ9n+6fzr0DwTnfjaty/gqVLeazhjaaNZGnXc+N648sdN2fXtmvJ78a0b+5MD2t7odxI91LdG0fzLgRvGGuQobJ2E/LtIGA2BivoHUv7EvngTUW064aJxNEs7IxVuzKD396elxpEt1HIk9i9wiMiMroWVDywHtwM/SgDwv4kzW1z4ieXSy0lutxCbhlmLedPJCcmKHrkIULY/pTvAtreWPiQSW0mnNJNps8sEk8oaBl2Wylm28gZDDnHIr2zfoCM+pBtNBhcs1yCnyM+FJLdicAe+BSTaL4fsjI8unaZCbvFs7NCi+buP3Dxzk9u5oA+cdS05YtO8Km+u4me6sJZxJ+7iCAOFCLvkRcYJ5zk59K3pZrdPh74YFvdPZXKWt9f77e4aMhlUxJghjwSQMA4ODivcvs2h+dDF5OnGWA/ZIk2pmM7d/lgduBnHoM1DPY+GgJY57XSv+JcoeRWjT/RlJLgkfwjq360AeAaDZXWh+KbEvfXAtbK+MMhhk8qGFBcjKFc5bdkELz1zX1BWK3h7Qbi/XU20nTpb1iJBdGBC5PZt2M/jW1QAUxmCqWYgKBkk9AKytT1+y0+UW7SNcXrD5bW3XzJW/AdPqcCs/8AszUNdZX10i2seo06Js7/APrq/f8A3Rx9aAM/VLaPxndxJbwr/Zlsx3XrDmY/3I/b1f649a8z8WeBvEGn3F61hYZ0yWTeI7SQyBcdOD83GT2719ARRpDGscSKkajCqowAPQCpKAWh4bYuz2cDSKyuUG5WGCDjkGpq9T1fQLLUzvlj2S/89E4P4+tcrp3huC71fUrbzZPItGSPeMZdiu4j8ARXO6TvofQ0s0pOC59Gc5aW8t3cJDAhd3OABXol/YXln4VkstGgt7i88vYouJDGhJ6sSAT3J6Vo6XpFppqEWsQVj1Y8sfxq+elawhynm47G/WGox0ijyjXPh1qd74f8G6dF/ZVw+jxPHcC8EjRMSgGQFIY8j1FRaB4C13R7Txalouj28+p2kdvbfZPMWJWAYMSGLEHDevWvXqKs4DyNvAGtNa6ps/s+J47eys9OhEjENHaybwZG28FvQZxVnwf4Q1nTvF0epnT7DS4XeeW9kju2uJbnzCWEfKgKoY549B1r1OigAooooAKKKKACiiigAooooAKKKKACiiigAooooAKKKKACiiigD//S+hPhtLJN4H0eSaUyuYB8x/LFdLXNfDe2+yeCNIiPDeSGYehJyR+ZNdLWOHv7KN+yOvMLfWqvLtzP8wooorY5AooooAKKKKACiiigAooooAKKKyvEuoNpmjzzwrvuWxFAn96RjhR+ZoA4HxB4bl8Ranqd9pXlIsMggCnjzXUfO2fqQPwNcjPoGrwyFH066DD0jJH5ivb9C09NL0m2s0O7y1+d+7seWY/UkmtDg1optHq4XN62HjyW5ku54nongrVtQmXzoGtIM/M8owcey9c16J4MRdMF1okkapc2rbw4GPPjY/LJ9ex9xXUZxWB4otJkEGr2EbPfWGW8tes0R+/H+XI9wKmUmzDGZhVxektEuiOhoqvZXMV5aRXEDbopUDqcY4NWKk4TBvfDFlNM1xZGXTrw8+faNsJP+0v3W/EVCbnX9LIF1bJq1qOs1sBHMPrGThvwI+ldJRQBh3XibSrMSG9na2EVqt5J5sbLsjLbQTxwc8Y61R8L674d1TV9Q/sXUFub6cLNMp3AhVAUYBA4H9a8X+I2jX03jTxJqUVhFb26Wqttd2EzDzdnnJzjcW6A8Y5rr9Gi1R/Gl5FLDq9zcSaNIscWtTQpvBlUEBoM7R79aAPQZfF2jx2N1dG5Oy2uxYyoI23iYsFCbcZySRj2Oa6KvmC6s7aLxv5DeHNL+yIVtpnGqzG2W8b5kLy4yJAqlR9eua+ivDUVxBolpDeWsNrLGmzyYZ2mVQOBh2AJ4x1oA1aKKKACiiigAooooAKKKKAILqEXFvJE3R1K1wU8TwTPHIMOpwRXodZeq6VFfDeDsmAwG9frXRQqqDs9jkxVB1VeO6OMorVfQr1WwFRh6hquWHh5ywa8YBR/ApyT9TXW60Er3PPjh6knaw/wvZ/u5Z5VBVxsUEdR3q1Y+HtOsNTkvtPgFrNKu2VYvlSQe69M+4rXjRY0VEAVQMADtTq8+pLnlzHr0qapxUULRRRUGgUUU13VBl2Cj3OKAHUUxJEf7jq30OafQAUUVWluoIriOCSeNJpFZ0RmAZguMkD0GRn60AWaKgiureZtsU8Tt6K4Jqtd30Is7t47y2iNuCJZXYFYSBk7+RjA55xQB4j4hvLG/wDG2tahr/ii80u/svNs7G205D8sA+9udkIyx646Y61jfDfV9Og0i1h1jxlqcVjGgj+wwK7qcHkblThT0xkn3Fen+I/B19rJgtYL2OW2vlP9o6nK26YxcERQKPlQMOpHb1ofRtY8C389z4TsRqXh+5fzJtKVgktu+AC8JPBBxyp/CgDg/G2meH5/EWsosVpo9tY6eLiGS5WTNzOdu1403AlQMKSBklvasCJLmXWL1LiHUPDmorb29lYWsU7bLhDLif5myWXcxI56fSvSvHfhPVviHrkcFxaLo2l6WPNt7yQJJPPOVBUADOIweozyRWBrVp4113XtC1O6sLODUtNVzZ2k2A1yU2mWRsfcDEAKM980AYXxA1y5j1bSNOt7vU4Y9GITZKYyzlVK+Znb1IJ9sVxU0lpOLy5jtdMgWQh9sRjUpsGAFDOCOPzNe8+KdDk1Obw/rkeiXcF9czrLqESBXmiQQSAL6ZBbA7ZIzXDN8MfFF+z61BLdWrwELa6fdzRG4kiP390irtRjxgYPvXDLC1Kj/eVG12Wh7cM0w9CKeHoJTXVtv5pPQ6O6On6X4K8Paiuo61oMM9ks8x0a28xCSoYmQlWwMk4yfWucudPGu+LPC4j8S+Jpba9Nxa+ff26xOoMQcBNyAENgZ4Nd1d2HibUPh9Boukae4F5bSwXEmtXIWa3ySMYjUhhg8YxwBUWqeF/FjeGrSS6uNNu9W0aWC506G1iaMfuxtdC7Hnepx25rtjFRVkeNOcqknKbu2b+k2F94J0+GBJ7nVdGiGH3gGe3HqAB8y+o6jtmurhltNUsUliaK5tJlyDwysKxPAc+t3ukT3viO3a1uLi5kkhtXA3wQ5+RGI6njP40t5pVzplzJqHh4KGc7riwY7Y5/Vl/uP79D39aZJ5R8SdEubT4maVcWmh6feWQty8VsoJwEKoZGATjYZScZKkDnBrnvBtkkUlxegQO97YTGX/RYlCv9hWT5CqgpjfjAPPevaba1TxBrE+sWupzwXEVpJYpavAoa0ZypYsD1OUHXiqdn8M9MsERrC7u4pmhmhuZWIc3IkUglhjAIyMFQOBjpQB49p2j28+lQWNraztq99qFtDPYWl2baK4tfsokGccZwMliMg5rpPEF0k3hfQkt38RW+oHWNi2S3humZ45Qh/euMAggbckDJPWvQNJ+HFho10l3pkxtruGzFtBIsKERyYw82D952AA56DgVdt/BghsNIsl1O4aCxu/t0u5FLXUu8vljj5RuJ4FAHhS2u3xNvkMXmDWArO6OVEw/dbSPtO8rk5ztz+HFXfiNBPaeJPErwLdTwTXAjlZbqVjIiRRu8LJnaIyZD82crk4FeoSfCy0fUZLw6reBn1D7f5XlRbd3mb9udu/H/AAKp5/hvb3M+oSXOq3ci3YuTt2INjzEbnzjnCqqgdMD3oA5P4P3moT3esQWWnWNteQ/dMt1LJsQzSLsYZIyuwYx1HOea9KbRNQviDq2sTGPvBZL5CH2LZLH86oeEfBS+H9Vmvjfm4kkjZCiQJCpLNuZ2C/eYkdT05xXZUAUNM0ux0yMpYWsUAblio+Zvcnqfxq/RRQAUUUUARySLHGzuQqKCxJ7AVh+CgX0MXkikSX8sl2QfR2+X/wAd207xnM0Xh65ijOJrrbax4/vSEL/Un8K2LaBLa2igiAWOJAigdgBgUATUUUUAFFFFABRRRQAUUUUAFFFFABRRRQAUUUUAFFFFABRRRQAUUUUAFFFFABRRRQB//9P6C+Gb7/A+knZs/crn5s7jjJb8Tk109c18N3aTwTpTvGI2aLJAx3J549etdLWOH/hR9EdmYf71V/xP8wooorY4wooooAKKKKACiiigAooooAK5u4zqfi+GAc2ulp58nvM4IQfguT+Ira1K8i0+wuLy4bbDAhkY+wFZvhKyktdK8+6B+2Xrm6nz2Zudv4DA/CgDcrm/GXiC48P21vLa6XLqDSMwYJJsEaqpYknB9MAdyRXSVwvxaijuvDyWc11dxJcPt8m1sPtckxAyAB/CQRnORQBi6J8RtYvlumGhW97GhScGyvQzJBI5RQVxkuCrZHHToKfqfxMk0fxLfWurW9lHpVs06+dHI5lZo1QhQpUAkmRRwetcn4c03xf4ZvDqOr3V/Z2d2kUPnxWUV06RpnaJ1B3KTuJLLu5PNQeONGv7bxjc3FnHPDdN9ouM2X2icLuUFGbK7RudY8hc4xz0oA7Pwt8UrO40fVZNemsYL6wiN35drLvSSEgFQp7uCQrD1+tUrj4p3iaFYXFvp8N1O00MNzMkyLDvZgHRAzZOM43fdzn0rA0M3c9nr8V7bX/npYrbWUr6TLMNplLsQjAZYF1X/gAPQVmW+kSW1zp2m6vp2tLYQaexgZNFglmJEgxlQr7V5Y8nOTQB6vfeNWtTpcs6afbwTB2vLeW+j8+GMZxKuGwyjByBz6dKp6F48uZ9Ut5tYtEs9A1Zymk3RB3Eg4Cy9lL9V/LrWHa22oSeF/h7c2mhpd3ocmeIwrAiK0bgl8LhRls4xyazvA8cGnvpUVxZ6vqWurevALW5ikW3sYmlYs6/Ls4XnJyTntQB6TrekaPrGsT2OoQSzT3lj5c21yF8lZAQDg8Esf0NRR/D7w3A901rYG2Nzbm2l8mZ03IWDY4PHI61b8Og3ms6zqbHKNMLSH/ci4P5uW/KujoAxrfw5o1voZ0eLTbVdMZSrW2wFGz1znqfc81Qg8KjSrWKHw9qF3YiEEJHK5niIJJwVY5xzjgjArqKKAOZ/tvUdMUDXdNZoh1u7EGVPqyfeX9a2tP1Gz1GATWNzHcR+sbZx9fT8auVi6h4c0+9uPtIje1vR0ubZvLk/Ejr+OaANhmCqSxAA7k0tee+OL3VfD/hq+S+urW/tJ4zDHI/7mdWYYHA4fHXjB4pPhd40TWtJ+x6hKP7StFAJJ5lToG+vY0AlfRHodFZUupOT8iAD35pYtTYH94gI9VoNvYTtexq4oqOKRZEDIcg1IaDG1gooooAKKorqlg16tkl7bNdsCwhEqlyB1O3OaJNSso45pJLy3SOF/KkZpAAj/3Sc8HkcUAXqKzE13SGdUTVLBmY4AFwhJP51p0AFFFVLrULS0B+1XUEOOvmSBf50AZ3iXWhpVsqxgNcSfcB6Aeprz27u7i7lMlxM8jH+8f6Vd8SXyX+qyTQSpLAAFjdG3KQB1B+uay66qcUkdlOCirktvcTW8geCV43HIKnFdz4W183/wDot4QLgDKsON4/xrgams7hrW6inQ4aNg2ac4KSHOCkj1rzoxOsJceaylgvcgYyf1FeDfFm7v5viHJHp0upzW9vps6XCxOirESilguV5XBQuM554IqS+8eXE3j+e9tJxDZFDZRymMyCOPcCZAo6nIzXo8/hiz1qC1uo9UmmX7Dc2pm4Yy+cAC5PqMcD8K5DiPM/Ac1vH4r8OvanTJZFsrhmTTdMltpWxCOGZzhznpjvWX4lkii8UR6feT+MIv7cGL6CWO3V59vEWAOPvcEnqBjmvXLLwK1pd6fcpr+rTSWUEkEQuGR1Qumzco2jBGM85qxaeAtIXT76DUhPqlzfhftV3dvulkK/dwRjYAeQFxigDR8HzSyaHELlNTSSNimdRREmYdiQnGOcD6VX8a+LIfCyWbT20s/2l/LXZgYPH+fwq94c0qbR7A2k2pXeoqHJikuiC6JxhCwA3Y9TzXn3xqRpdb8MxMf3T3CjI6qdwH65H5Vy4yrKlRcob6fmepk2Gp4rFxpVfh1v8k2es1ztsouvHN5MOVsbVIB7NIS5/QL+ddFXO+Dczwalft1vL2V1P+wp2L+i5/Guo8s6KiiigAooooAKKKKAMPWdFNzcLf6fL9k1SMYSdRkOP7kg/iX9R2p2i6w1zM9lqEJtNSiGXiPKuP7yN/Ev6jvW1XlepfFEQ+Lr6zso9MuNMsl8h3nv47aRrjPzbd55UDjgde9AHqlFcPZePoVg1WTXLGXTm0+SKMoji5MpkTegTYOSRWHafEjU/wC27n+0dDki0pVVxFGpa7hjbpKy9GU8gquSvegD1SiqmmX1vqNjBd2cgltpl3xuARkfQ8143rmsGf4k+J7DVPHV14ds7P7N9lhSRFV90QL43DscfnQB7fRXk97ol/L4QuNX0n4g6xdwwW0s0csbRlZSoJ5IHqMUvgaS/wBM8EQ+Mtd8S6nfxHTmuZLScr5YOM8YGc8YH1oA9XoryD4L+I9en1a/0nxdcNLeXNtFqtnv7QydVH0JHFev0AFFFFAHO6yBeeJtFss5WEyXsg/3RtX9X/SuirndFX7V4m1q/PKxlLKM+yDc3/jz/pXRUAFFFFABRRRQAUUUUAFFFFABRRRQAUUUUAFFFFABRRRQAUUUUAFFFFABRRRQAUUUUAf/1PoP4aBF8C6MsYIAgGcnv3/XNdNXKfCyYzeAtILA5SIpz7EiurrHDO9GHovyOzMU1i6qf80vzYUUUVscYUUUUAFFFFABXmFz8XtLttbk0+awulWO9+xPMWXAbftLYz07/SvT6+VruGzHxAe6jZEibUiVvnnJjWHzyodmL5ByDyRgmgD3ceO7EaXc6pJZaiumpNHBbTeQS12znAMafexnjJAz2rPj+KehzzWP2GK+ubWYFridLaQi2Gzcu4BTknIGB0riZpnk0e81SIXmrWranZf8TRkPmXrrJyIYgMLEucLjqc9a5LwbpmpHS1uxbzJa2ssfmyPOIVt2xAxLhmGcoGGMHrQB7Xq/jS0uXFpY6DqGu2z2kV8z24iCCNyShIkdT/DnpUmgeOhquo6Zay6FqdimpRtJaz3BiMcgVd38Lk9CO1eQaldWC2emWF4LVbu90Cxit57u5EEVtw+6VvmBOAeAM5OK1fAX9nQ+MtD0fTbjT5bq1W4T7fYXAlW4j8nCOULHYwOcjpmgD0PxD4+n0CC5uNQ8L6vHZwsV+0GS3CvzgbQZMnPYYz7V1ehai2raRbXz2dzZGdN/kXShZEHbcATg968y8W6HqD+IfDNlc+MLi6uGvyVje3ty0JETkPt2+3cY5r0rQbG8061eLUNVn1OVnLCWaNEIGB8uFAHYn8aANWiiigArD1y/n0m6s7pmU6WzeVcjbzGW+7Jn0zwfrmtyuc8Zwa3caVNFoiWM3mIUkhuVOWBH8JzjP1oA2FvYGv2s1cG5WMSsg6hScAn9a5H4neJNR8MWtheaesUkMkjRSpIOpK5Ug9uhrhfAOsXfh/W9XbxDHdNfGBEWOUHc2DgDJ7Y71b8VeIp/Edqtrd28K2qyrKEAJOR2Jq4wctjopYWpVV4rQ6z4XatdalolvGumtBZwrg3EsmTNITliox6knNd3Xmeh+OmtVjt7y0iS3QBQbdduwf7vSvRbK6hvbaOe3kDxOMqw70pRcdyatCdL4kWKKKKkxCiiigDM1HRNN1OeObULKG6eMfJ5y7wv0B4rOlgtbeUpa20MEafKBGgUfpXR1zsufMfPXJzQdOFScmxtFFFM7i3psxjmCk/K/H41X1DxNZ22vWei25FxqFw+GjU8RKBksx7cDgVE0JnQwrLJC0nyiSM4Zc9x71wkvw0vtK12DUrWY6rbCTM8TuY5mU9ec8n8RSODEJKVz1m5vrW1BNzcwQgf89JAv86xbzxRoTwyxDVLRiylSVPmKuR1bHb61PbeGNCi2tHpVru6gyRBmH/fWTWmLS2EDQi3iETqVZAgAIPUEelBzny7os7W8Pi9beOOKxlQC3uItOEYnACkYcHMeRhwDw2fWu68XbDoGtI/lnf4rjGJIDOp4QnMY+/xnjvXqEPhq3gbWjGy7dS2fu3iVkh2Rqi4U8EDaDg1m6X4HjtprS4vtSub64gv5NRdnVUWWZk2AlVGBtHTFAHiDw26xa8VSwDLqkG3ZoDRMOYfuyf8sR7H3/vV9B3Oj6hc3Urvr15FAzEpFbxxpsHpuIJP1rN1bwVDqLXaDUr2C2vb1b26hj2YlKiMBckZC/ulPHqa7GgDnj4UspVxeXGo3nqJ7yQg/gCB+lTWvhfQ7U7odJsww6M0QZvzOTW3RQB5h4ns/seszqqhY5P3iADAwfT8aya9P17R4tVtgrHZKnKSY6ex9q4G90S/s3Ikt3ZezxjcDXVTmmrHXTmmrGdU9lA91dwwIMmRgtLplpNqYzYRmdc4LL0B9z2rqLHwzqOnlLyyvIBdhSGgmj3RsP8AeHzA+4/KiU1FDnUUUdelvCigLFGABj7oqRVCjCgAe1c7D4lW1dYtftZNLlJ2iRzvgc+0g4H0OK255AbKSWIs/wC7LKYsMTxxt7E+lcpxlmivnG7+JXiO01i0ji1ZLm1gtZBNI1usRDk/Ksyn7so2kY4z2zmum8M+OvEMHw0l1TUXtH1OzuGgnivtySsSBsQIgzvYngHHHNAHtFeYfE6Wzk8YeF4BJ5l8LlR5GMhQ2Qrn6Nj8qy7Xxb4p0KyNvrV1oct6kP2yUySSMyh3PyfKMZU/LgdgK4q71XW7g6v4qjNqZYoRFDJNMsbxsSpDIhBJxkjPHX2rhxcudxoR3evol1PbymHsIzx1TSMU0vNtWt+N2fRupySxaddSW0bSzrExjRerNg4A/GofDtmdP0OwtGGHihVX/wB7HP65rkbvxdqNr4d1a+1D+x7Ka1iEkPlXX2vec4IKLtOTkAc9TXn0njnxRplzp+iaje251SO5SciVDEZYRGZWV5AzDnhMYByB613HiH0BRXj3izx9renW/hCeS2tbN9UDysDdApgodqkEAnGUbqMnjPeuf8BeP/EOr+K9FtbrU2a3vHlXa1omGBPmKOJMj5FIB7Zxz1oA+gaK8e8X/EHWU0PU1sl0KG5iRirW+sJJMu05OE28nAPFdr4CfxG1pef8JOluN0pltHilEh8pskK2APu9Ae4oA6yiiigArxTxZYxr418TW93qN3pNhfQQL+50z7Qs4KMHIbadpBJ6ete10UAePeHLiW203xzcWqPqH+ipJHNJZyRRvshMaxBG5YhUBJHUtXEano7RW1jq1rZzR3dkyXCQReG5YUkfjh3z0GfpX0xRQAyMkopIwSMmvP8AQ/Cxf4j+MtR1jTIZbO6+yfZJZ40cNtiIfbnJGDj0rotTt9R0+9k1LSi91G2DcWLt97HG6Mno2O3Q/WtHSdUtdVtPtFlJuUHa6sMNGw6qw6gj0oAp6/pwPhLVLDTbdEMlpLHFDEoUFmU4AHQZJrzrUfDWuX/ww8IeFfsU0SzNDHqrB1BghT5mB57kDpnpXe6p4v0jTpWiluTJIOCsS7sfU9KgsvHWi3UojaaSAngGVNo/OuV47DxlyOav6k88drnHaj4Bn8N+LPDGt+GP7Tv2gn+y3iXF2ZSts4wSNx4C9cD2r1ymRusiB0YMpGQQcg0+urcoKgup0tbWaeQ4SJGdj7AZNRDULMmYC6gzDJ5Un7wfI+Adp9Dgg4qprSW+p6HeQreRxwOhWWZWDBF6tnn0zQBB4Lgkg8O2r3GftFzuupc9d0hLn+ePwreqit9ZRrZILqAfavlthvH735c/L68DPHar1ABRRRQAUUUUAFFFFABRRRQAUUUUAFFFFABRRRQAUUUUAFFFFABRRRQAUUUUAFFFFAH/1foH4YhR4D0YIrqPIBIb17n6ZrqK4v4RXXn+DYIjOJ2tnaDcvQBeAB6jHeu0rDCu9GDXZHdmcXHGVU/5n+YUUUVucIUUUUAFFFFABWcNF0v97t06zHnKEk/cr86joDxyK0aKAIo4o441jRFWNAAqgYAA6YFYevCxRrexfTrW5k1O5AeGSMFX2jLSMMc4Cjr7V0Nc1o+dU8SahqTDNva5src+pBzIw/HC/wDAaANc6XYFxJ9itS4QRhjEuQo6L06D0pV02yWaOZLS3WaPOx1iUMuRg4OOKu0UAUP7K0/+0f7Q+w232/GPtPlL5mMYxuxnpV+iigAooooASobqdLe2lmfhI0Ln6AZqas/X4Tc6NexLnc8LgY+lNFRSbSZ4vql7LqV/NdTnMkh4/wBkdgPaqlFFdiVj6WKUY2QV3Hwx1No72bTpGJjkUyRgnow64+o/lXD10vw9ieTxPAyg4jR2Y+gxj+tTNXizDFRUqUrnr9FFFch8+FFFFABWTqNsVcyIMqeWx2rWpOtBcJuDujmjQK3JbKCQ5KYPtxRFZQxnIXcf9rmmdX1mNtipptsd3muMAfdB/nWr2o6UdaRyzm5u7CiiiggKKKKACiiigCrcXtrbMFuLmCFiMgSSBSR+NR/2rp3/AD/2n/f5f8apa14W0LXbhJ9Y0u0vZkXYrzRhiFznH61598MPBPhq/wBK1WS90SwnePVruJGeIEqiyEKo9gKAPTtS1Oz0uymu764jht4YzK7seigZJ96rS+INKik09JL6ENfnFsM/6w7d34cc81yPxO8Er4hs4/7O0fSbm7MRt2mvJXjMMePl2bQeQT3FeSx6BJqXiXT9K0rwn4ev3sX/ANLmsrmUwqNu0iVyACe+FOcigDotJ0bUIPFV/dwX9xpulLqMlsbyDkbix25GcbegyeORXutnHLFbIk85nkUYMhUKW98DiqVnoOmWeinSbWzii04qymBfu4PWqPh65lsrp9C1Fy80K77WZjzPD2/4EvQ/ge9AG/NGk0bRyorxsMMrDII+lc7c+HWst8/h24lsZcFvs4+eCQ+hQ8DPqCK6amyOsaF5GCoOSScAUBufOvibwzrltNY3es6S1wrRyG6nLJKpleTeC2RhQoO0egHWrV9YWOm/DHTpNWiiOrxXzXNoizBgR5oYn5DtPyDAz0Br0Hxf8RrPT2fT9Ije+1Mv5aqi5UH1z3rn9I+GV1q9xLqfiSZba6lO5YII12KcDkg8duR3rhq4pzfs8PrLv0R7eGyyFKKxGYPlh0X2pei7eZy0HhbUPEGvf2vH4SWHTHCn7PbyxwlgRkHceTndnp7V2useBU8VawLW68OadpOhwuDNcKqG6vCv3QGUZRc8kk5OK62PUtT0WMR6vYCe1QYFzp6EhR6tH1H4Zra03UrPU4BNYXEU8fco2SPYjqD7GtqGHVK7veT3Zx47HyxbUUuWEdorZf5t9WedaV4ev/Dun6hpkPhPSdUdbfyra/iEUP2lCQAk4xkMOpIyDt7Gubb4ZeIBo0vhctZS2d063suqSLl4JABmFBncwyqgE4wtesaBcS3mq63OzsbeO4W2iUn5RsUbiP8AgRP5Vv10HAeQ+JPCV7r9po+o6job/wBpQxva3FrFLHIiIqSBTFu+XDMVPPtnpWJ4T+G/iLQfEOl6rcLHLE0wZ7e28rfZfwjlhtZdpIbbg9cZr3migDyqPwXruo69qt3fWegWFlqVutrLFGrTSqgDglDhQrEP156V0nw8TxJDZy2niS3hhjs44rW3ZHDGfYCGlyOgb5cA8jmuxooAKKKKACiiigAooooASvMfiPew2GpBdN3QX00eLiSJiu5D0DAdT79cV6dXhXjKdp/FGos+eJSgz6Dgfyrxc8xUqGHtB2cnYyrSajoYtFFFfCHGdt8O/EUtlfx6dcuWtZjtj3H/AFbdsexr1S4dY4JHd9iKpJb+6Mda+eIWZJo3QkMrAgj1zX0PEd8KFhyVBIr7Ph7Ezq05U5O/La3ozqoSbVj5dsZbubUZbnU3un0yXW2eOXUoftcLE27EGSBAGLldhyOMHpxXe+ET5mheKYdOW8kjl1KNM6HZC2IX7PGTiKYnap6HPXOe9dxe+BobqeWVdSvrWR9SbUg9swR1Yw+VtBweMVVsfCEM9hqcNn4k1d47y833Nwsi+c+yMRmPft6fKORz2r6I3PKvBbRSeI5rOym8YzHQnKWMES27GKI8SBs8ffBXjoBivo6Nt8aMVZdwB2t1Hsa5O+8B6RJp1hb6YJtLuNPUraXdm22WLPUEn7wJ5IbOa6m3Ro4I0kkaV1UKzsACxA6nHHNAE9FFFABRRRQAUUUUAFFFFABRRRQAUUUUAFFFFABRRRQAUUUUAFFFFABRRRQAUUUUAf/W9f8AgZ56aDfwz7VENyYwn8SkAZz+Yr0qvLPBkpsvi34hsJAY1lTdCnIDAEHPucd/avU648A/3Kj/ACtr7mexnqvi3V/nSl96Ciiiuw8cKKKKACiikJx1oAWkqA3UKnBkXP1qO9kL2Fy1vIPMETFWHODg4qVOLdkxuLW6Knie/fTtHmktwDdyEQ26/wB6Vjhf1OfwqfRLBNL0q1sYzuEKBSx6s3UsfqcmvNNE8fafrmq6Y+tk2r2aFhGEZxNcH5QVCg9Bn8TXq8TiWJXAZQwyAwwR9RVCJKKKKACiiigAoopjMqKWchVAySTgAUAPoNQtPCkHnNLGsON3mFgFx656VIWULuLALjOc8UAeTeNfDkum3kl1axlrKU7sj/lmT2Pt6Vy1e+3DxRws9wyLCBl2cgKB75rDufCei3beZ9lVS3OYmKg/lxW0atlZnp0Meox5Zo8gRGd1RFLMxwABkmvVfAmgPpVm890oF1MBle6L2H1rX0zQdN0w77S1RJP755b8zWrSnU5tEZYnGe1XJFWQtFFFZHCFFFFAEF1MltazTyEKkSF2J6AAZNeD23xnvb7RtbeJDFq0qW40y1FuzfO4+YAkfN6gHr24r2/XIUuNFv4ZLZruOSB1aBW2mUFT8gPbPT8a8B8jXJ9V8RxQ6La6auLa3VZWEh0seQV88y5woWIOOM8kc8UAei+Fvitpuualp2mrp2qxT3W1VmmgCxlihcc57hSRWNF8StXl8XwWEWnqPMxbvaNn5JBdGNn34zjYN3pzWN4Rs0TUfC9/GjJbahrEjWaMMMbWC0eONse4BP4iuasNElufiWdS0/w9O+mLbi8j06W4kWeSASbfMGW+8SCwQ8EcUAes2HjLVbzxho+j3enPYO8lwtxx5kU6rHujeKTuPXuK9Hr5/wBNfVNL8Y+HIdG8NavDaefdSWlrqlxHGsatGA6pgkhRy2D64FfQA6UAFFFFABRRRQAUUUUAcpq9/wCL4dRmTSdF025shjy5Zr0xu3AzldpxznvXL+E7Tx34es7yBdD0icXF5NeZOoEbfMbdt+52r1OigDzv4hQeJtS0DSbe30+Zo55P+JtbafdKsuzb9xJG28E8E9cUzTNY1jSNLSx0b4dX9rBEu2KNbq2VQffD/metej0UAYHge11Sz8LafD4gnM+qBC07Ft2GJJ2574BA/Cp/EOlnUrVGt5BBf27ebbT4+449f9kjgj0NbBIAJJwB3rwv4ueK9QtfGOnro99Cy2kcn7tISWR2UqctuwTgnHHy475rKtWhRjzTZ1YPBVsZUVKirv8ABebPWtW1610TTEudZmit5TGT5YbO5gMkL+n515wdQ8SfEYtbWcLabo0igtcH+LGcgeuSB+VcX4UsbnU/EHhyTXr1L+yvJC2x7/z2CiJn+ZMkj7o9PSret65LZ6rLb6Z4r0y1tdbQ2TJHYTqtuio211BP3yMJx6g4rk5KuK+P3Ydur9T1fbYXLFajapV/m+zH0XV+b0Pa/C3hTTvD1lDFbxiWdFwbiQAuTnOfbkmt+uW+H16t14bhiW+tb02uIPMtoJIlAAG0YfJzjHNdTXdCEaceWKsjxa1apXm6lV3bCsHWdC06ZpL8h7O6iUt9qtm8twAM844YexBrerB8buw8NXcMRxLc7bZPrIwT+tUZGD4Un1rSdBt557Maja3ObpmgO24Uudx3KeGPPYj6V1Ok61YaqCLO4DSr9+FvlkT/AHlPIq7bxLBbxQxjCRqEUewGKo6todhqjJJdQDz0+5PGSkifRhzQBqUVzQh17Sf9VKur2Y/glIjuFHs33W/HB96ZqHjnw9puvSaRqOp29peRwrO4ncIoDHgZJ+93x6UAdRRWbpGtaZrMEk2lX1teRxna7wSBwpxnBIrL0vxpoWp63LpVleq9yhKqSCElI+8I3PDle4HSgDpqKKKACiiigAooooASvIviZo72msG+RD5Fzgkjorgcj8ev5167Va/s4L62e3u41lhcYKtXBmOCWMounez3XqROHOrHzzRXo+p/DdjIz6beKFJyI5gePxH+FV7L4bXbSA3l7DGmeRECxP54r415LjFLl5fxVjl9lPsc14R0mTV9aghCkwoweVscBR/j0r3QDArO0TR7PRrUQWUe0HlmPLOfUmtKvrcry/6lS5ZO8nudVOHIipq14mn6Xd3chwsETSH8BmqnhSzNh4dsIH/1vlh5Pd2+Zv1Jqp4yU3Nlaaap5v7qOJsf3Ad7/op/OuhAwMDpXqFi0UUUAFFFFABRRRQAUUUUAFFFFABRRRQAUUUUAFFFFABRRRQAUUUUAFFFFABRRRQAUUUUAf/X9Yj/AHHx0nachY2tlWHJ5LMmePyevUa8o8RFo/jhpDQ8u0CCTcMgLkjj0P8AjXp19JNDaTyWsBuJ0QtHFuC72A4XJ6Z9a4sHvUX95ntZwrxw8+9OP4XRZor59vPFHi0aPrtw1pPZ/ZtfVmmNyZ1hAKboSqDcUAOSRxz0rpPCvi281HxhpsY12bWXuBIstra2D2ttbIFzvJdSzHIAGSOtdp4p69RXh+n+OdS/4SfxnDrBn0m2R4YTPFOLprB9mBsjCnduPUgYB61b8PeLLFtbtFb4halfqJlRrV9J2K5PAVmEYK9R6UAexsQoJPSsW9ummchSQg6D1rS1Fitq5HpWERmvOxtVpqCOvDU0/eYU5GZDlSRnim5orz07ao7Gr7md4E8FaZoitdkC51BmJMrj/V57KO316129ZOjMRK69iM1rV7eHqOpTTe55lWChNpC0UUVsZhRRRQAV5/8AGrUbqx8E3ENrbXckd4fIuZ7ePebe3xmRz/wEED616BXBfF+yTVPDcNhMutvFPON8WkwiR5QATtbPAXocn0oA8y8Vzatq3gjbCdetILy0X7BpNnZebD9nVtsfmvgkOVXcRn0rr9KuW/4Q3V21OPxN4js5FSCW0urNbd0XaSzJnbkdMnPGBXKtZG28R6TbeItG8UtYG0ndYBeSXM7tujCu/lEBRjI2jgfjXX/DU/8AFP8AjRLa31GO1S7mW2t7sOZlTyVwuHJPXPegDCsjL4htPDXhq8m1EeFLtRcC6viPOvV2mRbfK/wquNzE84xXWfDDVLiO8vvD0Uy6rpOnEpa6pC+4KoxiCT1dQcAjIIHtXBSWF4nhPwMvjvSpYNIs5jE0VssjyrF5GFMoTkbmHQduDXo3gTxBa6lrVxpvhvTDbeG7K0QrKbR7fM5Y5VQwGRtAPTrQB31FFFABRRRQAUUUUAFc3qHg/SNQOr/a4ZJU1YxG6QyEB/L+6OOg45HeukooA5m18HaRa+IU1lEuHvIlKQCSdmjt1IwRGhO1BgY4FaQ0WzHiI60Ff7ebb7Jnd8vl7t3T1z3rUooAzb3SbW81bTtRnVzc2HmeSQ2AN67WyO/FaVFFABRRRQAUUUUAFFFFABRRRQAVDd3MFnbtPdSpFCv3nc4ArnvFHjXSfD6sk04mu8ZW3iOWbpj+YriY9M8R/EMo+qymw0FwHWNRhpMMeCOx4/lXJVxSi+SmuaXb/PserhcrlUj7fEP2dPu+v+FdWXdf8XX/AIg1Obw/4ZtTJuYxTXOflROhOfxp1l8MU0+8sbi2uVmuE+0faZpslpN8ZRMAdME5ru9A0LT9As/s2l26wxk5Y9Sx9Sa06KWGfN7Ss7y/Ben+Y8VmMVT+rYRctPr3l5v/AC2PK/Dnw61LSrzw9O9zohOmZ3m30/yZHPlFBmQHL8kE5Az1rRl8B/2y8974z1FbzUpUEVs1uPJjseQwMOSTvyAdx5OMdK9Dqjq2nwapYTWd0pMcgxkcFT2YHsQeRXWeSUvDFprNlZyQa7fW9+6NiG4jjMbumOsg6bvpxW3WB4c1Cdmm0zU8f2lZ4DMOk8Z+7KPr39Dmt+gArnPERNzr+gWC8r5z3cn+7GvH/jzLXR1z1kRdeNNRlHK2VtHbg+jOS7fptoA6GiiigArwHUdC1e28ReL7XQP7dvLkSpLHPHPbhBK8e7975g3EDj7vQCvfq5rVPBmialqU2oXNvOt3MFErw3UsW/aMDIRgDgUAcAsGn3eneOZtXS8sLdJo7xrYAxSFFgCBmjBBKMytwSA2K5TUNOu7G6tJrrR7z+wJJIvtrPpiwJAq4VWiCyEq5yBuGDj1r2m18F6Ha2Go2cVm5h1FPLujJPI7yKBgAuzFsYJ6Gq0vw68KSIEOjQKAQwKs4IIII5z7UAdLp9qtlZQWscksiRIEDzOXdgO5Y8k+9Wqwr/TtTjvJLvSNQ2s+N1pdDfC2B2I+ZPwyPaoIvEy2rpFr9rJpkrHaJHO+Bz7SDgfjigDpKKYjrIgeNgykZBU5Bp9ABRRRQAUUUUAFFFFABRRRQBzsmb3xxCo5i060Ln/rpKcD/wAdU/nXRVzvhEm6bVdSf/l7u3EZ/wCmcfyL/wCgk/jXRUAFFFFABRRRQAUUUUAFFFFABRRRQAUUUUAFFFFABRRRQAUUUUAFFFFABRRRQAUUUUAFFFFAH//Q9Z8UrPB8Y9AmDxiGWJU+b1y2R9TjivQ9VR5NOukiuzZyNEwW5AB8o4+9g8cdea89+MFpPYX+ieKLb5hYSqkykZAUnIb9SPxFd9YXNrrWkRzKEltriP5l+8CD1Briwz5a1SD3vf5NHtZivaYTD147KLi/JpvT7mfPF9pcFh4V8S6tFqc93enX1s2v5Lxo1li3IWJKHCg92HYe1avgOfHxE0qDSr2x/e211uW11ia+UsEG0urngA9PWvbV8P6QmnpYJplmtkkglWBYVCBwchsYxnNTDS9PW8hu1s7dbmEMI5VjAZQ3Bwfeu08U+eD4al0fWPEMNvcXsviR7i1tPtsDsoL3ERaZ5D2QfMwzjBArotMke08U3mq6VczT2dt4iitZxE5dZYpLdI9zY+9htpz9a9pTT7NJruVLaES3eBcNtGZcDA3evHFJpmmWOl232fTrO3tYM7vLgjCLn1wO9AE11H5sDIOpHFc+wKnB4Irpqo3disxLodr9/Q1x4ug6lpR3R0UKqho9jHo61ZaxnBx5efcEVPb6c5IMpAX0HWvPjQqSdrHW60Er3JNHiIVpCODwK06YihFCqMAcAU6vYpU/ZxUTz6k+eTYtFFFaEBRRRQAUUUUAJgZzjmlwKKKACiiigAooooAKKKKACiiigAooooAKKKKACiiigAooooAKKKKACisnW/EWl6IhbUbuOIgA7M5bGfSuB1Dxxq3iV7mw8H6dMw3BReNwoGcE/wAq56uKp0tG7vstz0MLlmIxK54q0esnol82d54g8R6ZoNrLNf3Cr5YBKLyxz7Vwuo67rfjS5kt/CLm205U2vcSIRubJzg+2MfjV7Q/h0kl3DqXiif7dfj5njBPlluoJ9SOn4Cu+tLWCzt0gtYkhhQYVEGAKx5K2I+P3Y9lv9/Q7Pa4PAfwf3lRdX8K9F18rnI+Evh9pmiIk12Pt+onG+ebnnPGAfTgV2gAAAAAA7CiiuqlShSjywVkeXicXWxU/aVpXf9fcFFFFaHOFFFFAGF4i06aYQ3+m4XVLPLRZ4Eq/xRt7N+hwauaNqMGq6fFd22Qr8MjDDIw4KkdiDxWga4bxXqsPgu9fVxh7W9JWe1UgM0oHyyIPww34Gk2krsmUlBOUnZHcZ4rn/Bo820vr/qb28llB9VB2L+iivDNf+JPiHVJ2MN21jBn5Y4OMD3bqay9K8aeINLZPsupz+WvSJ8Mn5GuZ4qN9jyZZxRUrJOx9UUnvXB/Dnx5B4pja1ulW31ONdzID8sg/vL/UV3tdEZKauj1KVWFaKnB3QtFFFUaBRRRQAVHLGksbRyqrowwVYZBH0qSigDnH8N/Y5Gm0C8k02Q8mEDfbsfeM9P8AgJFIuvXemjb4jsGgUHH2u2zLAfc/xJ+Ix710lIRkYPSgCG0uYLuBZrWaOaJhkPGwYH8RU9YF14bthctdaZLLpl43JktsBXP+0h+Vvyz71ANT1bSFxrNl9rtx/wAvdipOB6tF1H4ZoA6aiqOm6lZ6lD5thcxTp3KNkj2I6g/Wr1ABRRRQAlcb4x8YweHLme0vUZWltWltZVGQz8jYfTnHPvXXTSpCheVgqjuTXnPxJ0u28Uf2akE5jaCYiSTbnEZHOPU5A/OuPEY/D4ZpVpqN+7NIUpz+FXOl8F6jps2lWthpl0l0bWBBK8QJUNjnLdMk5OK6WsLwvbaZpumxWOkhUhjHIPDMe7H1JrcxW9KtTrRU6UlJd1qRKLi7SVh1FFFaiCiiigAooooAKKKKACiiigAooooAKKKKACiiigAooooAKKKKACiiigAooooAKKKKAP/R+n9UsYNT0+4srtA8E6FGB9COo968m8PS3/w98VrpWpMTod7KUtWLDauW4OT6Z5r2OsLxj4btPE+jyWV2oDj5oZQPmjbHUf1rkxNBztUp/FHbz8j1ctx0aPNh6+tKe/k+kl5r8jcRldQykFSMgjvS15j8PvEtzpdyfDXiNUt5bT9zHMxOJWLHaAe+RXpwIIyORWtCvGtHmXzXY5sdgp4Oq4S1XR9GujQUUUVscYUUUUAFFFFABRRRQAUUUUAFFFFABRRRQAUUUUAFFFFABRRRQAUUUUAFFFFABRRRQAUUUUAFFFFABRUN1dQWkRluZUijH8THArzjVviJdahObDwlpst5NJuRbj+EHbnI+nv6VjWxEKPxPXt1O3CZfXxjfslot29EvVs9B1HVLLTUL31zFCApb52xwO9ed6z481PVL9tO8H2L3Eg5FzjKEY5OfTOPypNK+HmoasYLjxnqL3O1Afs6Hod2cMe9ej6dp9pptrHbWMEcEMa7VVBjArn/AH+I/uR/H/gHf/sOAen76f3QX6v8jzrw78NZZr6PVfFd211f+YZDEpynQbc/Q5/SvSLKzt7GAQ2cMcMQ52ouBU9Fb0cPTor3F/mcGMzCvjXerLRbJaJeiCiiitziCiiigAooooAKKKKAEr5s+L+syap4xuYd5NvZfuY17Aj7x+uf5V9J18yfFewfT/HWohlws7CdD6hhz+ua5sXfkPIzhyVFW2vqcjRRRXnHzBoaBqU2j6zaX8DEPDIH+o7j8RmvrSCRZYkkTlXUMPoa+QbK2kvLyC2gUtLNIsagdyTivryzhEFpDEOfLRV/IYrtwd9T6HJXK0l00LFFFFdp7oUUUUAFFFFABRRRQAUUUUAYmo+HrC9uPtSo9pfY4urZvLk/Ejhvoc1V8/XdHH+lwjWLUf8ALW3ASdR7p0b8CPpXS0UAZek61Y6ruW0uA0qffhcFJE/3lPIpNL1i11G3uZIXGbaZ4JlJ5RkJB/lms7xlYRz2Bmg0tr3U1GIGiby3RvXzMggD615x4V8PeLdAu7i8u4Yxa3fy3SvOCzZP3uM85/ma58VW9hRnV/lTf3IqEeaSj3O11G9e9nLMSIwflX0FU6O9Br8NxOJqYmrKrUd2z6SEVBKMdh0btG4aNirA5BFdjo159stQzcSLww964zqK2/CjEXEy9igP619HwnjqlDGRop+7PRrz6M5cdSUqbl1R1NFFFfq54YUUUUAFFFFABRRRQAUUUUAFFFFABRRRQAUUUUAFFFFABRRRQAUUUUAFFFFABRRRQB//0vqmiiigDlPHnhGHxLZK8btBqEH7yGRTgFh0Dev9M1h+B/GUltb/ANl+LWe21OOURJ5ke0MD93np616PXP8AjHwtZ+JtOaCcmGcYaOdPvIR0/nXJVoSjL21H4uq6P/gnrYTG050lhMXrC+j6x9PLujfUhlDKQQRkEd6WvIrfV/EHw/uUh17zdS0hgFWdB9w4/QZx1r0HR/FWj6so+y3abzIYgjnDFgcdKdLFQqPllpLsyMXldagvaQ9+D2ktV/wH6m5RQCCMjkUV1HmBRRRQAUUUUAFFFFABRRRQAUUUUAFFFFABRRRQAUUUUAFFFFABRRRQAUUUUAFFISFGSQB71zniLxpouhqVubyNpyhdI0O4t+XrUTqRprmm7I2o4eriJclKLb8jo2YKpZiAo5JPauM8V+N4rBYLfQ0TUr+cMVjibO0AdT+OK5ZT4o8fpE6+bpWnE7GBGA6EHLDuTyOK7jwp4L0jw0GaxhLztgGWU7m7dPTpXJ7ariNKStHu/wBEes8JhsBripc819hbf9vP/I47TfBms+LJzf8AjW5mhgJJjsY3xgHPX0wcV6Po+kWOj2v2fTbaOCLOcKOpq/RW1HDQparV93uceMzKti/dk7QW0Vol8v1YUUUV0HnhRRRQAUUUUAFFFFABRRRQAUUUUAJXE/EnwbF4q05GgZYtRgB8mQ9GHdD7fyrV8ReMfD3hy7ittd1a1sZ5U8xElYgsucZ/MVTi+IvhGWwuL2PXrJrS3ZUllDHCFs7QeO+DUyipKzM6tKNWDhNaM+cdX0q/0i6a21K1lgkXs68H3B6EVTijeWRUiRndjgKoySfpX1jrNzpUejSX2rPanTUQStLOAUCnoefqK55/FXgXQks52v8ASbJbyET27qgXzIycbgQOmRXI8HrozxJZJ72ktPQ5b4UeALiwuk1jW4zHOo/cQN1XP8Teh9BXsArA8OeLdA8SSzxaFqlteyQKGkWIklQehP5Vbtte0u61u50e3voJNTtUEk1srfOinGCR+I/OuqFNU1ZHsYfDww8OSBq0UUVZuFFFFABRRRQAUUUUAFFFFABRRRQAlVb+3FzbSRH+IcH37VapBWVWnGrB056pqz+Y4txd0cBJG0cjRupV1OCDTODXZajpcN58xysg/iH9axpPD1wGwrxsPXkV+V5hwrjMPUfsY80ejW/zPbpY6nJe87Mxjz9K6fw1atHC8zggv0B9KbYaEkbB7lxIRztHStxQFAC9BXvcN8O1cLV+tYpWa2X6s5cXi4zjyQH0UUV92eaFFFFABRRRQAUUUUAFFFFABRRRQAUUUUAFFFFABRRRQAUUUUAFFFFABRRRQAUUUUAf/9P6pooooAKKKKAGTRRzRmOaNJEPVWGQa4TXfhfo97JLcaa0unXjEMrwngH6dq76isqtCnWVpq51YXG18JLmoTcf66o8sj0bx1oVzEtlfR3thCowG6ngcY6np+tFv8Tb7T/3PiHQrqGWMkSSoh298foK9Tpk0McyFJo0kQ8EMMg1z/VJw/hTa9dUeh/atKt/vVCMvNe6/wANPwOM0/4m+GrvIkvDbuDjbKuO2f8A61dLb63plw+2G+t3bngOO2M/zFVL7wnoV8rC40y2bcSSQmDzj/4kVzd18KdCdALWS6tTv35R8npjH0oviodFL8BcuV1dnOH3SX6M75ZEYkK6kjsDTq8sf4a6taGRtL8STgypskMwOSB0AxTm0T4g2entFb6pa3DAqqA8EL35P4UfWaq+Ok/lZjeW4af8LEx+aa/Q9RoryiXV/iNZNIj6VDMTlvMX5lHDHj9Py96Lbx14stbeOTUfDsknmZVdilTu+UgkdhhqX1+mvii18mP+wa7V6c4S9JI9Xory7/hZl+jW6T+HbyNiwExKnAB5yPwxQfiq0JkW60a4Ro5fLYqCVABwTnFP+0KHV/gyf7Ax3SF/mv8AM9Rorzi9+KEUTLJb6TfS2ZwDKYyDuyOMfTP5VWj+K4VfMudDvY4WBaNguSR835cim8fQTtzfmTHIsfJXVP8AFf5nqFFeY3PxXiRnSHSrl5A/yjacMmAS2fxprfFiPyEdNIuyzNtwVPHOPzxz+NH9oYf+YayDHtJ+z/Ff5nqFFeaS/FRIZXim0W+SUkeWu3O4EdaqXXxWufJJs9AupH2FsspABGCc8dMHNJ5hh19r8GOOQY+X2PxX+Z6tRXlQ+I2vPADH4ZnLyDMZAOOOpP6YqYeKfGd5eolv4fe3hK7HaRc7WOPm+gzR9fpP4bv5MHkWKj8bivWS/wAz0+ivKoJ/iVcR20wt7eIq3zI5A3Z9R6VNd+FvGupO002ux2ryn540yVUYPTH1xR9blJe7Tk/lYHlEIO1XEQXo7/kj05nVfvMB35NVpdRs4g3mXUK7c5y44x1rzofDK/kXNz4mvncqFbBOMYGR+Y/KrEfwm0tiGu76+ncphjvxls5Lfj0o9tiHtT+9h9Ty+Px4i/pF/rY6O68beH7aKGV9RhMUudrqcjjGc/mK5rVvifEZkt9AsLjUJJVBR41yM7sY/L+YrYsvht4ZtH3Cw83GMCVywGMH+ldRZafaWMUcdnbRQogwoRQMCjlxU9JNR9NfzH7XLKDvCEqj/vNJfhdnlD6P438YTLNqM50i1VlxEpIJUjBOP159a63w98OtE0i4W5eJru5AADTncF+XHA/P867Oiqp4KnF80vefdkYjOsRUj7KnanDtHT73uxFAVQqgBQMADtS0UV1nkBRRRQAUUUUAFFFFABRRRQAUUUUAFFFFABRRRQB4549bUF+NGlHSdJtdWuf7Fk/0e5lEabfN5bJB5HH51T+KFnfaj8O4rbWtFs9GnudXtoNlpKsgZC2NxIA5yTxXp83hu3l8aW/iUzTC6gs2sxEMbCrNuyeM5pfF3hyDxPY21pdzSwpBdRXStFjJaNsgHI6GgDxDWNTu9Y+HGk+C3kYalBcXFrfjPKw2ilsn2ICYpPDR1Aaz4GOk6Taatc/8Isc291KI0C+cMtkg8jgfjXrEfw70tPFeua+ss4u9VtmtnX5dse5QGZeM5OB1rOf4XRR/2M+m+INX0640yw/s5JrcxhpI9275sqec46elAGtoF5e6fpmp6h4j0HT9Djto/MzazLJvRQSckKMYx+teFeEfEVpp3i7QvFUr3Q1HU76dNUEkEixrDMQIsORtO3APBr2ef4fXF5oupaZqnizXL+2vkWNvPaMlAGyduF74wfat3xP4UsPEHhGXw9MXhtWjSNGixuj2EFSueMjAoA6Oiq9nCba1ggaRpTGioZH6tgYyfc1YoAKKKKACiiigAooooAKKKKACiiigArP1rU7XRdOmvtQd0tYsF2WNnIyQBwoJPJrQo60AcIfiv4PEixtqM4kYEhTZT5IHXjZW1pvi7RtT0a91S0un+w2YYzyyQvHsAXcThgCePSsbWwP+FveGOB/yDrz+cdaXxPdYvh14lZsAf2dP/wCgGgDFuviv4Zia08ia6uknkCM8VrJiJSM72yv3fpk810GgeMdF1+8a00q6eadUMhUwSJ8uQM5ZQO9eF+Ob57XT7C+tNI8RCSKCK3uFmNxDbyNsVEaN0kAHPbbzmvQPglqNpDDc6CTrsmsQot1evqcZAQtgBVyxIHoO+M0AerUUUUAFFFFABRRRQAUUUUAFFFFABRRRQAUUUUAFFFFABRRRQAUUUUAFFFFABRRRQAUUUUAf/9T6pooooAKKKKACiiigAooooAKKKKACiiigAooooARlVhhgCPcVG1vCylWhjKk5IKjBNS0UWGm1sRC3hAIEMeD1G0c0G3gIwYYyPTaKlopWQcz7kX2aDOfIizjGdg6UC2gGMQxcHI+QdfWpaKLIfNLuRfZ4SQTFHkdDtHFO8mIAgRpg/wCyKfRRZC5n3CiiimIKKKKACiiigAooooAKKKKACiiigAooooAKKKKACiiigAooooAKKKKACiiigAooooAKKKKACiiigAooooAKKKKACiiigAooooAKKKKACiiigAooooAKxfEtlqt/Zxx6Lqo0u4V9zSm3WbcuD8uCeOcc+1bVFAHmVx4E8UT61aarJ40BvbWJ4YnGmx4CvjcMZ5+6Kt6r4R8R6p4d1DStU8SRX6XjQqS1msOyMODIBtPJK8c16FRQBw3xA0HW9ftrfR9MXTotJMkEks0zv5qeXIGwqgYPCjqa6XS9HsdLuL+eyt1imvZvPuHBJMj4xkk/y6CtSigAooooAKKKKACiiigAooooAKKKKACiiigAooooAKKKKACiiigAooooAKKKKACiiigAooooA//V+qaKKKACiiigAooooAKKKKACiiigAooooAKKKKACiiigAooooAKKKKACiiigAooooAKKKKACiiigAooooAKKKKACiiigAooooAKKKKACiiigAooooAKKKKACiiigAooooAKKKKACiiigAooooAKKKKACiiigAooooAKKKKACiiigAooooAKKKKACiiigAooooAKKKKACiiigAooooAKKKKACiiigAooooAKKKKACiiigAooooAKKKKACiiigAooooAKKKKAP/9k=;" vertex="1" parent="1">
          <mxGeometry x="-450" y="5140" width="1593.2" height="982" as="geometry" />
        </mxCell>
      </root>
    </mxGraphModel>
  </diagram>
</mxfile>
